<mxfile host="app.diagrams.net" modified="2024-06-18T05:32:01.017Z" agent="Mozilla/5.0 (Windows NT 10.0; Win64; x64) AppleWebKit/537.36 (KHTML, like Gecko) Chrome/126.0.0.0 Safari/537.36" etag="hjIXWv78tAapFRS1GCFL" version="24.5.4" type="github">
  <diagram name="Page-1" id="odb0awldNmaoaAIGGV41">
    <mxGraphModel dx="772" dy="1463" grid="1" gridSize="10" guides="1" tooltips="1" connect="1" arrows="1" fold="1" page="1" pageScale="1" pageWidth="827" pageHeight="1169" math="0" shadow="0">
      <root>
        <mxCell id="0" />
        <mxCell id="1" parent="0" />
        <mxCell id="opCMUjGsSkM5_SPHou3j-1" value="" style="shape=stencil(lZbdUttADIWfxrdnpNX+XlN4D2YIjYc0YUKg5e3R1mOIlkSd3vnv88pHR8c7yc3L9v55MwV6OR0PT5vf88NpO8mPKYR5v90c55MeTXI7yc3j4bj5eTy87h+W8+f7/mQ/+nV462/4s3CNUEKnAr0vV2JCan+v3C3Abt6fAxmlGCAJWnWAhsoGyIKaXSCJAUoEeyUltGyAqis4QG2IFmiMFh1AVbIltYLE14FCyFYlJgLRdSITJNolGtiRKRGq7ZzqQE4jooBtI2oFO4BUkAVK84EMsrrmBhIHKGMjUkV1VIphXCGqW5zO6W1pFggITklaQK4G0CKzs0KuaMkCGSE53lARrZlU6OB8dG+TXUFbGfyBoGFG6V8zykPjCLFcB87c/OkNWoPh8hI6MBbQofJa3UdysGtbX3FZJh36YUg1GJySeqzYkr6i53KrBeXbjFYnBjQa6wBofHozmhCHoVZZHTN1QP4HkDima09Dx0whrm7+BBKyE0yc1rQ+i43ofHRBtW4tDHHaEMYwzrym7cXn1ar2AxKvKXLteWuLSODg1ZNsYgRfUc0TWz831xQcR4GYkZweBxmBBHEmRz0x/Bm0AY6garpBofHfpgdfO47HebdbNizn98cdil5adjdy+wE=);lineShape=1;strokeColor=default;" vertex="1" parent="1">
          <mxGeometry x="254.1125206623194" y="-53.41002719416443" width="1.7342225794745587" height="1.7395425942100733" as="geometry" />
        </mxCell>
        <mxCell id="opCMUjGsSkM5_SPHou3j-2" value="" style="shape=stencil(lZbdUttADIWfxrdnpNX+XlN4D2YIjYc0YUKg5e3R1mOIlkSd3vnv88pHR8c7yc3L9v55MwV6OR0PT5vf88NpO8mPKYR5v90c55MeTXI7yc3j4bj5eTy87h+W8+f7/mQ/+nV462/4s3CNUEKnAr0vV2JCan+v3C3Abt6fAxmlGCAJWnWAhsoGyIKaXSCJAUoEeyUltGyAqis4QG2IFmiMFh1AVbIltYLE14FCyFYlJgLRdSITJNolGtiRKRGq7ZzqQE4jooBtI2oFO4BUkAVK84EMsrrmBhIHKGMjUkV1VIphXCGqW5zO6W1pFggITklaQK4G0CKzs0KuaMkCGSE53lARrZlU6OB8dG+TXUFbGfyBoGFG6V8zykPjCLFcB87c/OkNWoPh8hI6MBbQofJa3UdysGtbX3FZJh36YUg1GJySeqzYkr6i53KrBeXbjFYnBjQa6wBofHozmhCHoVZZHTN1QP4HkDima09Dx0whrm7+BBKyE0yc1rQ+i43ofHRBtW4tDHHaEMYwzrym7cXn1ar2AxKvKXLteWuLSODg1ZNsYgRfUc0TWz831xQcR4GYkZweBxmBBHEmRz0x/Bm0AY6garpBofHfpgdfO47HebdbNizn98cdil5adjdy+wE=);lineShape=1;strokeColor=default;" vertex="1" parent="1">
          <mxGeometry x="104.45734824852627" y="-1125.1686478838196" width="1.7342225794745587" height="1.7395425942100733" as="geometry" />
        </mxCell>
        <mxCell id="opCMUjGsSkM5_SPHou3j-3" value="" style="shape=stencil(lVjZctswDPwav2JIgODxnKb/kZk4jadpnHGcHn9fqC4dEZK2zZst7ZLEveJObl4f7172Ow6v59Px6/7H4f78uJNPO+bD8+P+dDjbr53c7uTm4Xjafzkd357vL/9f7ibk9Ovb8fu0ws8LLyXSNrE4/Lo8yUI1/Hny+UJ4OjzPCBpJwkDQTA0RMqU6EiJp3CZkpZQGQmJqvE0oSjUPBDEC2KEqxZHARtBtQmPi0YYoFMEOLVFybu1GrZ8oUBnxqXtt3UeZQhnwrT9YD0KgNvo0FmIQNbH14uiiQgIsEKWgYxAqBRA1yaRjIqXWw7JKSNGHOQeKwAZbzzm1RArAq5aqOhptcYGpGimORtfyL0Idd2hCAozW4m1ohRKIdDIbRi+1RiwgDlbv1RMU7MALo42QQfUIZRlzLwQKIHDsO4ZtUMGJom8Yhv9bfqv44A/UKmxhlmbJ4yMw+GrdLGYCQhCI3foWRFA6garDa0+rDf8U9nhGEe4T4IpP1ECSCrWywIPzWKto/jwR+GfZ7JQUdUcq1fuTQe8qfhxYvFDrMnzx+ArWz4uirz0DN/DR4a2EQT7rSkEW1Em7dTN8A/5k33gnPLDX8q14PGoQoVf3DB9h/nP2/kwg39bqMUN8dP7JvQtv9ZPg8QHE1/qVw5vkAXjub2f4gGZxr455PaJh/0G8GeDEwXQg4FCbMW6w2g4FjW4laZ6ABJeKV2g2WDOa9UpldGptsKlPwnfMuspQEZm0dmOmmMpEkzj7HUwuoLyQ0E2cSShFidRInEgrcBJLIhlLwZpHAW5NJivHHUwpo9lknxs6Fr9CJWuKTEavYi1haeCaC8bPtMm7dEfDaeolY6pGxSdaWGAmI3lQoz+RiW1F8yz4AWj1lNGA4m7iNQjXwG8pZScRFEsu+wDxuY01jmVyZU9oSPg2r9JygTakujhSgdWTrq9nBDRHTIuXsNgB9BgLU4sLGzCB2ROQdJmaki7iAAJnBF4QUIEaIbg4aP/S2yQ4t2L5OB0pegIqoA9fcvwHwX6836k8HJ6eLlcy8/f+DsYeXe5v5PY3);lineShape=1;strokeColor=default;" vertex="1" parent="1">
          <mxGeometry x="51.23616142713411" y="-1119.6434410724094" width="12.067586209508402" height="17.074432032200367" as="geometry" />
        </mxCell>
        <mxCell id="opCMUjGsSkM5_SPHou3j-4" value="" style="shape=stencil(7VrJbh03EPyadyW4L2fH+Q8DliMhimXIcpa/T01eSA2LM/WgWwLoZj91D7ub3dUbL+HD9/tP3+4u3n5/eX769e6Ph88v95fw08X7h6/3d88PL/jXJXy8hA9fnp7vfnl++vH18/X/3z5tlNu/fnv6ffvCn1c+F0xoG5e3f11/ySaVf374+Ur/+PB1T29NLBN9Mimf01cmryaLzxdjZ2lcM76d0yeTw0QfsglCnGj8TJ+gbjqnD8anib7gxHhO7011s7rFVK++7+bvN2+ilIfs0/CLoPemRabPVtGXWf4Wja2KPnqmV/L7/rUd/b8nHrvbgTzKns6EuHxf+I81bZEni+9bkxPTByG/5eiC/auUxy30QcSLXewJDxT3a7u37Oi9oHfdW4Y/V5OEPwxpB72T8ZiNnelzM1XQN9Y31e6Bx/JDvTwxRACKwrds3KxxRIwG4dHWlFmkCJWFSP7ohCZ8KOCE+dKS6251zBCNI6s6U9WtZQ6bAuBQsFXYrDVInAiVgReO5AWQRiALeV6RnhqROugE2E2cACO22UrFylyQkomL8wXhGsgteUavmE1RDNG0WYcIHUQ4JGu8Z4YmTohwDfLWYpK66aHiTmkvRArJ+FlphLQSCQx1xrxSdDw0E8g1dDzEZOzs3nANFdNbfJFrpO6/ZzdNrpFhVuV8zWTypdZLh2OgtP17gyH1KD8+ofY6bgcCQYRoKibOJ+QqRQJDnp2vZJkMIRJBZfUd/8+ULpZPaCqduF4dDAYn82EOi5VKj5BjhtR9czCEXkMcM+Beyay+A89xCRx7+hgMuoYplWEGF6esVBdshVmzOKFGLsNqkmUk/lyoLtT5oeaeDQZD1ieAgSqf0n85ZfDM0ATcg4FrJV37QOk6m7U14wS21iWhgEE2U4lLh6bLJVwcwYyzKAGVXSNndhyh/BuJv6ZFJnVCMLExQ1RKBM5ZYJA6+H6xu5tTVWJd2jb4RtFKUwTBv4s6YYTwiKAsawf8mTo3xGgSMdpGShsokGXrABUJ+pD2qmag6gQMyqywelhOcEqHyvB9i6Gxt94SqXHOuqV065XzYPA9ak8GJCPABkeQKeU1wHYMqvpujd0VhaMCyw1WiAFIotqsAVw7BlXPtDHW2TEUJVJlOAaD6rzhfYSuYFDVBhh4UhUlMLWlqQGDExmiFQYmXFwUQX1wgtdWWnXwct5zYCUnm5qDe3CyMTu4afdWX9IN8oG3Om2lNR687FEOIm4Myt4Q1FkHNeNGlOX3ATKhG9TY90YG33vJXZ0oE+8oLkYOqhLJ0KJTS41fVP/6Xva9l33/p7LPcxPeog4I1/uqXUDI/ccS1NX2FcQxA6rCuSjb+kcBZSXwfAYtsooggATtKNDSZjWqSFxYQiQr7iGPncEOZ9SUHy03BTX8VyXebBdgqnqvVHlwD4agh4OVxo9B1jNbyUb3oDdvaZ0LFLk72Uq2ZXRXhA552Q4kK6EP97CWiWqwts5nMuoZNeBc5sa3hrQIUZptVJnaY+LZ9ysWno6yF+dTeTcERmNEuQrR4BcrVZkVX5ee+3JdWCn6PhofY2CEqPIlyyNUnKmGUikbRwxF+lIai97dsFytyuAavDuyEozXAAIWqvwQW/fN3U2rYXlclunbek2tc+vBflaVAiH1znAw2Fu7ICrXN1zS3kpJEeitFi/B8VQXsKBaal+XfZZGb5946x2Rk4S3esezEER5FffgyhIPWe8VYx/G7AcPapHqOLFnvYOoPEFFmo4CNHK3yO6elY3eXx68vzyY6f9bLw+WhhuVs5p/2mWFnWRZ61hfZCwrX/bQxBdQrPwn9HdCowXTvXNaZkmy3izcftlb8EPZVfeDbmD+EF+Oqzc8pI5TPyOLvEZzegCzmMfLlAF6Gj0HrW/qvegrvXrntdJH2U9s8jC9GvG6xE84Um+fT+1J8ynZvm/3RcWTLElBT+Fy45lg4H1H7vh1Rv+2Z4g36fGP1zePXx4eH69PJvd/5zeS+On6vjJ8/Bs=);lineShape=1;strokeColor=default;" vertex="1" parent="1">
          <mxGeometry x="64.24874870352767" y="-1116.7714285508189" width="27.18909246309428" height="16.905296043763695" as="geometry" />
        </mxCell>
        <mxCell id="opCMUjGsSkM5_SPHou3j-5" value="" style="shape=stencil(lZfbbtswDIafJreEREqUeN1171Gg6RIsa4o0O7396AXOIjr+sd65bj6LZ/7ayMP77ultu+H0fj4dv25/7p/Pu4182jDvX3fb0/7sTxt53MjDy/G0/XI6fn99vvz99jT9cnr6dvwxfeHXhWOh0iaK0+/Lm2bU6983ny/AYf96A4gS9wHQTLmsAzURjycUpgIAFRIdAG7EBgAjqQOQlaQDk4zK6ENOVNI6UCp1GYFCFZwgiTSPPhRSXQdyn6M+A2JkAoBMqQxA9U9kALiL4wmtUkGAkKUB6I1SWwe8lvLotGUqIHHiFo+ZtkSCaqlRG53uOKxuAI8+6NXI+wCTjicok4A8WCEJJ2QyUBqmlFI8IYPis0a1RUBBHszDWqLTCsJqRhp6upDBWkoLJxSHyagFJ9r8Zg1IYzF5myeU6kZ9NKm5kaD6PBFhMDnQcKprjwDqUS8myxFQMFynfuHotKHMpcU0vvbUXaBbHEyehwp8cCAsCM90AvXtQF8Uk6KGSDFxXq4FRcn7ZZzG3hAVARLHhgMJAXXeULcAGhvXyXgDoCXnPVo0Os0oShbHt4e1oH7wyglAhZt9AhalIWgw+d4N1drxNO7EwSQfC6hFPwr47A2J89wLkjO2ADwMaFH72Ira4ToM74uH2KJe8BVMvsVo9T3N4PspapNayRgElcr4eymzS2trnce6cHllyOEcK6/Afp66d/QYB7TpYuVSBg64og073dWWAYOaN3sIEcOUuaDUsZtLw4LyKlBvmhOVnecoCBlXPgZMEpn38RXwE5AY86lqI6DzYF7TuEGyuj5EvTZV3kJQKqhU1/3GEUCy2wuhWAQYmVTvOK1gHXopB43rYW0gcd49skhcA6uEmXpwWqhiIKi3zsTIJF4I+wy324cvif8B+MO/O+nL/nC4XGlv/x/vsP7qcv+Vxz8=);lineShape=1;strokeColor=default;" vertex="1" parent="1">
          <mxGeometry x="92.14690453994672" y="-1109.9304166694528" width="7.143489232867382" height="8.409628021843375" as="geometry" />
        </mxCell>
        <mxCell id="opCMUjGsSkM5_SPHou3j-6" value="" style="shape=stencil(lVbLctswDPwaXTEkQIrEOU3/IzNxak1dO+O4r78vVVWyCErb8Y2Wd0lg8ezk6eP48n7o2H3crpevh5/D6+3YyaeOeTgfD9fhVk6dPHfy9Ha5Hr5cL9/Pr9Pv95cROZ6+XX6MN/yaeJpJdGSx+z19YUr574fPE/40nFf4xORihVfK/T4+Cnmp7/fEgBCY+togSZTSPkGEUv1CVPJhn8CRIleEVAjgBR8ppNrnTD14wQfK9QtaXmBAEApiCRERPIVgCRkQlFyyeAVx7inGR/CBfN/YIyAIc4jWDgNJHSXfKArxzkSghAzE2Nk0LXivIADkjP1pTsMdf/to8YLKgJJavHegLomNPT0psF8pNfY7lNK84TAjglDOlhBxlblsQ+CAy4UQvSUEkKOF4JukUBCE4oM2VROQSbxRBigttBGplBlQNdlu7Z2DIgXSprEowJfu3zjwL3N36sA3dckgBq4RKMM+sXi3wguw51F8CUBdlynPim37m2Zzl2lTHACFNnbSmiBLELfnWamr2oXiFJI0LvNx8QFmdRY7/0pzBRLlMHeSOz4AiXJP2Rs8aqW5CJgM3qGQebuC4BJQIRaLB/poJLb2sAf4NF+30gfdnyk6qz+I7zgZa7yfi2g7RV1TBB523vtov+Ph7FC7rTAFJNCDO+b/8eVwX2jfhtNp2ofX/9sFuHyalmd5/gM=);lineShape=1;strokeColor=default;" vertex="1" parent="1">
          <mxGeometry x="103.15497307282953" y="-1119.967507091672" width="4.568653612780916" height="23.587603042497935" as="geometry" />
        </mxCell>
        <mxCell id="opCMUjGsSkM5_SPHou3j-7" value="" style="shape=stencil(lVfLchpBDPyavaqk0TzPjvMfrjIOVAi4MHn9fbTBs2EE2ynflqWllVpSa2bSh7ft0+tmCvx2Ph2/bn7uns/bST9NIewO281pd7anSR8nfXg5njZfTsfvh+fL79enGTk/fTv+mD38utgFamU2Cvz7/UWiEv+++XzB73eHK7w0Eh4MREnauoEySRwMEimv42MhHvFMDPA5koQBHykBfGmUR/+SKIIEmlIYM7aUCjAQXiJeQmqQVPtEa4NBNhYqSEKopsGgSqftPquBsgwGjXvl79NKWkd8owrwkXL2+JZAWxCLx2sGpFIeKW2VBPhnSi7+TBEQZCUbCW2RYoD4cW5agG3NvuuMf4QXKmO+tVJWxKebsloownpV5z9TA/4zpeD9M/Bv1RGPr6CjG0WHbxSAf+H+90KodGVaM8hjBjZ1AiIyAxdSSxRgCtlFVLpyrFAUHb5SAS1nBXItZF8E8Vi0TugYS6lSuv0A6IlArD6Bd5VZmYF6QxDDGZbsCyB4Jp1GLCqzgtdRdWdNRLuvT+xVjwrAh87e1QygxREp3OAZ8P9RvDZf4GIBoaHPfmZsL1VQgap+DaQKS1YT8ViDKFDXi/ZlvRxYKikwyOzHxo4waCxtV7syiy03tMrSzRdqV+/7fZEojSzZG9RItkpHvFYYUfXL0iqPjjjFH6EM38DgpDv+kbhHv5zmeBBBfjlZvuhMJ10HF3zp2rcmRC4eywjwY0IxDpoqXJYmXKPQaYDLkv1hy06YAQqda7h5l6BV1od2wefeUSv8f+xS8H+8Pfy7gbzs9vvLBeb6f39jsVeX244+/gE=);lineShape=1;strokeColor=default;" vertex="1" parent="1">
          <mxGeometry x="106.13606743080061" y="-1109.7871892596525" width="7.498180965286683" height="6.086892538233409" as="geometry" />
        </mxCell>
        <mxCell id="opCMUjGsSkM5_SPHou3j-8" value="" style="shape=stencil(lVfJchpBDP2auapaUq9nx/kPVxkHKgRcGGf5+2hCdaA1nkdyGxq91va09KQPb9un180k4e18On7d/Ng9n7eTfppEdoft5rQ729ekj5M+vBxPmy+n4/vh+fL79WmWnL++Hb/PN/y84GIgTjNKwq/LCVcK9c/J5wtgvzvcAKSRhgEgkWoCAKaoA0ATtbYO4ERh1JCEQgGAQGX0oQTSCAFcB0BNJAwAud/XAU1IgA9zlOoCkNcBsVBs3qQEnM6NQh6dZsrApBqptEVYwzqgBQoyJk6ogrCahjiaxIUEaIi1R70DMlUB8plydfIRcDUmUucyVQXyCwciNWRPpDDar7AUZvky1g4VEFCTzyPtmAqKZ6I83h9gwox0QZ08JGmlHJw8YlAKPf1XeUbyvLQ/gXgagatrXqSgjJNSFhd/Afwx+ebzq6Am5/tH+41QSF6ojflNnYBr8XElnElAflPwbStTQXyuvpFaPeKmxcXJZ8S3RMXXL5o1xv8iLj7IX5Pn4OIvyF/tg+iaXwb8mfuDm329gNb8ldFfhvy3/pbG+AeKOF9uBlg9ov7TlvUF7f9P+aa+P7M1UDi5g5/1+rfm1lRU19JTH7UfAkr2M8BOkE1WlGks+vuznkcNN26t7R8y8roVWDiLKNlykEGiF33XtgVBiSYd54B1joBWNPaDw1YDNInNouaYYbMEtJb5vtEF09kQQPu6dAOIgElq1FxoCEhD7sPlmmdqIAtaqPBCA4iS2k4XFz6gvC0SPUcJJC5aAxoTx7aCIA3sWzZrXwI+BgjxyG3rAWiIzwAXJdt875jk1sw7ayB3Mt/spYpMsjXF5QE/iv7hFWUf1zfYy26/vzzhbv/3bzY7urz39PE3);lineShape=1;strokeColor=default;" vertex="1" parent="1">
          <mxGeometry x="113.69213009909527" y="-1110.7545040363143" width="7.123259190458189" height="10.305761370666499" as="geometry" />
        </mxCell>
        <mxCell id="opCMUjGsSkM5_SPHou3j-9" value="" style="shape=stencil(rVfLctswDPwaXTF8kzin6X9kJk6tqWtnHLdN/r5gVTYiaG3cmd5kCWtiFwuQnPzdy/7heTc583I5n77ufs6Pl/3kP03Ozcf97jxf5Gny95O/ezqdd1/Op+/Hx+X380ONrE/fTj/qP7wuuBDJx4py5m15k6nw7xefl/jDfFzFe09Ox3PajneBAnfx1lMy2wBbyJkO8EFG1pHPHSAwObsNYCq2Z2CaBpsL9ICSyQQAYIqpA3Ag54GokUIvKjsyQKQYKZY+JUkSiJRjE70BUiYHAGwp9nULhRiQloxVSgKwgDR7Kqpuua15HSBWdRqASHOizMMKiINkbDUHgzgw2agBBXlvMJ+YNSN3G9Oc0BDRNOG2lsi9TNHiyklh+8pFBzuOpSEVQHoasU4UVUoBdpCU+s/nFcA6aKZkdUoFzCWxq08a4JCslkLQKgVE2jTVV3WAdhXAUGkPpoCk5PsV6uQDk0xIu8HfHpH2jeKqgzIqXKDiNSCgwiU9XCsAcZAEjAYUbO8y9GhEKTGlQdaAVmDifs5I4SIqHDdvrqwBRx83b67M918Bsn+4vkWzbEGgDslQ6gGlwG3XJ61SrQwafam1/N+jw/swvL4EGdYpBRA/jNYksxO0g9NnpdoNBYiq83ERNrQw5r5quZ0krvO1ehBjfcbDnsQDviHpGhuygG/tRB2POq1ulj1fCz1X90qr4jPQp87PPh43gcSrXcRTBJYe4wOcXWM+se1CN/JN7XB8o56pbSk31ivDQTf6IcN++dfLxcfx8vB+k3maD4flIrT+rm8+8mq5Nfn7Xw==);lineShape=1;strokeColor=default;" vertex="1" parent="1">
          <mxGeometry x="123.7950115913842" y="-1111.693967743933" width="7.75082886411571" height="10.50929486343013" as="geometry" />
        </mxCell>
        <mxCell id="opCMUjGsSkM5_SPHou3j-10" value="" style="shape=stencil(lVbLbtwwDPwaXwciqRfPafofAbLpGt3uBpttm/x9ZRhOTT8Y7E2WNRI5Q47UycPb8en10HF4u10vPw9/++fbsZNvHXN/Ph6u/a2NOnns5OHlcj38uF5+n5/H79enYeUw+nX5M+zwPuIoBIQwwDh8jFOpQseZ7yPi1J9nCC2I2QAKI0QH0E5QA6iCSvuAUpGrAShDyz4gR0SygIqU9wGxotiQZjxsIkQQoz2igJysSaeQPwEB7CShqFaHGkDsRAS1JOWC4gQkILE6xymlbRUgNuFIyI5qlEG2LiQg6T6Am8yWIWYkcVQTJAugCq77gKRgvQdQIqjeE1LNyHpP0pqQaEWrI7MqigUMuiUHUFGtDkNheACZ2ndeeV7SvDxhKG2H1qwQy9IXzdNSXIT0ZX/WOy2Am9RpZTIOgHhqr7mNOSEliK2lwScdWhurdv9mxNVhdWu9Z9wro28u6DV0WBLUOPZ8XiZ7++yd4tq8glbNmTyDKav2D9NFsU1QgbLNGMVZL4psLZImCrYFbnra/f0abdfUog0I0VlfEtSuT2CnQpsZ0YIggjgAbQEtEm6d6mS88VpoLl7MrdYG/x8bL/3pNL5V5v+Xj5M2NT5s5PEf);lineShape=1;strokeColor=default;" vertex="1" parent="1">
          <mxGeometry x="126.73692792486042" y="-1116.680262219161" width="1.1151436455700856" height="1.316009528091454" as="geometry" />
        </mxCell>
        <mxCell id="opCMUjGsSkM5_SPHou3j-11" value="" style="shape=stencil(7VnLUhwxDPyavbpsy7bsM0n+I1WBsBUCKUJef592Nl7G8k5TueXADQYJj6RWq+U5yNXX2/dfrg/Rf316fPh0/eP44en2IG8OMR7vb68fj0/46SBvD3J18/B4/fHx4dv9h9PvX953y/7T54fv/T/8PPk111J3iv7X6UGqTvKfJ+9O9nfH+429ulwm+yzjyUX74nKc7EtwLezbZ9f8ZK/R1cjstU321btA7f+efraPrnhmX+f3qeKE/v8ss31ynv7/EKx9bvv2+KvO9tl5kn9xTay9VGYfF/uc9u2jrW+3J/kJrq7vQ+3jkp+m+/belWbtE7WXpb6V4N87r9Y+kPz7Uf0N3pKwfIY84x/9QvKDbMz9WCLtr4D2qHMDRxpwUOcNQyBDJKNoeROyFEoR+LOfayboSfJKKbs4By3ilIA0B6czipKnMYDUiskSykzKhiSm+YSigwkux9BGWc/ACBQY4OU416FFJyQGnODnGJo6ZQ7VcmOrlCvgULx1aKQOcDDga80lwo5JXSnWgVUaDjboxl+puDSfELynjA301bwcwR3i8k6FNERKdqjBIbJCJCfNFkLZFEljSG4cIqOZZJsaYGJzszuYEwol7uzHnN/gW5lSaLblOtWTtKofk/LMrXhCWg5Sos2VRptHAqZaLVzlPN8vOjSMQ4M+4JtQHxzajKVKx2dDVuckyXhwOYLi4lzngAlMkITxl2ZagqRhAhI0ZxRkipQD4CDzyEXlIzvhPAw2M5SBG1CuRjREKiLRLEWtg5AsoX8lWgfGGZ3mTJ2F9tuGtbbtwIJoFt31PFf3HIpxKEMb7DkYloFDITyGvNqWVl4IkNDiICyvZdkXdCB+z8EvQTO91LJLi0MkxAcHKym5hG7J7myodGHoW0/gIrfHUKwD5bFiqRX4ZvIHDnavikMb7FZ66SDPgq4D/RsHWocVrXwAXegHodTXO85kCXOYNNDlpm4sTStvZKoEOjOZDoIi4nk1Mw4dxPRSZ9dqHWghdAGTcmL6VwdtVktrpBNCiyX8PoMIvuGgs0MKdOPQahd7rHYvzNFkVCXdUJ65ethzmQv1ZTbpF+wXIV3plIa92bxxAG037KlzAKKD1y5HnOxdUk50AVKxagywYN2GXdsoDShA1tCvO9mZCF93sv9/J0tQ0vNtHfYP5WkVw/XeZZYltScUpWO9N8QcQ5YhJXZPmKHRo+JB25Wp0nkFGjJMjCescGBGowOSpzMXzGi2vqRUeYdkl+nMt7LgbT+URO99q8UeyJPR/eu9++u9+/98777gHxqRx5sXqcDw4+2AKvxOIozTzw3sRwV38GmGMqi4sAtru9bC3vP+Mno2Ubwt90h9vJF8FnsFAxpm0kutzOn2TAyOW6zt+zC5bPs38cvFNtC+sW9sAV7izXRh7t9tTIELvbjojJ6tA3uj9cvQs9LbCeHfPh2/bI8fnr9T3xzv7k6fubd/t9+18ej0TVze/gY=);lineShape=1;strokeColor=default;" vertex="1" parent="1">
          <mxGeometry x="133.0645236948983" y="-1117.0546109136258" width="15.650266376494764" height="15.233394019012552" as="geometry" />
        </mxCell>
        <mxCell id="opCMUjGsSkM5_SPHou3j-12" value="" style="shape=stencil(lVbLjtswDPwaXwlSFPU4b7f/scBmG6Npssimr78vXUNpSMQMerPlGYsUZ0hN/PSxf3nfTQk/LufT193P+fWyn/jTlNJ83O/O80WfJn6e+OntdN59OZ++H1/X9/eXBbk8fTv9WP7wa+VlqG0hJfy9LkgFwb8rn1f8YT7e4FOD0g2BO+S8TRAGRENICTJtEzpDFUNAoBbgBYQcPgUB9QpUbUCQOMA3EIsX6BLgO0g2eKJxBHcJhOiPiAq0Gm7Ruj/THuXcYfl2S9CsSpg02qSZgaKsC4itGpe4DBkaW0KF3ENdYPM71EgYBNkRcqwkFY5VUurQgzo0lb7Tdh5i2SKQTZraI0J2hATyIAdbuBqXgYYOrocEFIhVq+Dcg1AifIaeHD4yg+qoOPcAx0Ili8/DfptOsPHrQhSPKsBqgvIjb3bnTXzkTXEiUl1HOzRPYIoJFdD1bBnC3Wqp2Sat3kyRN/+XIAJs20XBYY27BE2RrZlrgxYca/U66lcr3cWX0d6udcZYqRmK+A04BRlAcvgaBpQArXHUShFeh4ztFNoKJJiz6CvQZEyVDbwbUg1HB9/C2/irjJJsxWNFWrWzBPETkJVcKYDB/xOQjafoSpAvA7uxr50i6Lz3blLRPHt889KHf9e2t/lwWG99t9/9NU+X1isiP/8B);lineShape=1;strokeColor=default;" vertex="1" parent="1">
          <mxGeometry x="144.11229108895782" y="-1111.5070720789165" width="7.074224671104244" height="2.052610793475024" as="geometry" />
        </mxCell>
        <mxCell id="opCMUjGsSkM5_SPHou3j-13" value="" style="shape=stencil(lVjLctswDPwaXzEkARLkOU3/IzNxak/dOOM4ffx9obp0RMjaSW42hSXx2AUhbfjudffwst2k8Ho+Hb9vf+0fz7sNf9mktH/ebU/7s/3a8P2G756Op+230/Ht+fHy/+Vhspx+/Tj+nHb4fcFJJWkTKoU//1eERP+tfL0ADvvnGaAIBR0AqVEI6wCN1HgAxEa1AEAjlhEQKAo8gccTlBQcUAKVPNg30rxuL42Sc0iIQciSKIxJTXZkWwdwoxJHgJIwOCH2InUAW11AjkSppLHOAcaQraplBDSKqM7sy5YrtbgOqIVaGADFTgDUa0ppjMGoUus6IIbQqdkR1RCgEI1J60gNpQiCUKXq2P1+6O3Elh7k9Yja47pNDhPkmFjzsgF+R+9SDX3lpr09VW+P9Ba8HPQqkBV7VwTFAQefIEtyAhkNpM6fQgnRwstfM2Wg/0Q1ePsASLTokCrUwP550b4yRWBfSBb+F2CvxNHnR0D+jdLR55+BLpWak6VdKqhT+GZn/EH2pbeRGT8T8CffsG8gXiF19hHuz701z+xRK02dvTN71CEixeL9Z8C3QLLIJ+Kz6dHxrVIG8YYFn5Uy1Hte8A3tb9lz/Mnw/k6dLTP7BHo0U3H9QWD/lAWfM7xbS78XZ/YC9fs5ey7Eo+CrFQAEkJXCGEGLkEFTw3QTUYIzmjmgzZ+AXGrBN9FqZQEimDQ4nqB4winWtsagbVRNqO1aiG5gkc7cD05pghs7xz6eXKe03Le4DTDpjNK0ZoauMtsvufEjw7t+8tiJuWfhdpKureHqEdSaLsSJpyFjgRND6hGtDY2uyjH1drb2NhHHGlg/UHSbGfHG9ssM250NdG4eskkZ3Zc5+xxlSxJiqnT1zgDQJfZ6NkAFV6BpwU37EwAQzx63RQwKiGE5cVOFARgBqhePbaHoGq99aroCaif76jtR8QD0imMAN3nZSkQ3ifXpka1S4ChrAB907n1wLejPvb9/AGA/3j8XPO0Ph8vXhvlz/3nBli6fJvj+Lw==);lineShape=1;strokeColor=default;" vertex="1" parent="1">
          <mxGeometry x="169.228598167482" y="-1113.3734371966382" width="9.506137110132025" height="11.8189532597049" as="geometry" />
        </mxCell>
        <mxCell id="opCMUjGsSkM5_SPHou3j-14" value="" style="shape=stencil(rVbbbhshEP2afR0NDDDwnKb/ESlObdW1I8e9/X1nu6W7gH2qSH1j2XNghjO3SR7e9k+vu8nz2/Vy/rz7fni+7if5MHl/OO13l8PVVpM8TvLwcr7sPl3OX0/Py/fr04ycV1/O3+YTfiy8UkjjzPL8c9lxlMvvjY8L/ng4bfC5EIcGr6QZ4B25Fu8yCbhAA3nXECSQhPuEZAZoQ4ienN4nxEyudTkV8nKfEJRcaQhZKAIfvPQmlUzFA4In4ZZQoNPOZEs9IQEdXKIw3FAcIPjq4l/hmIkZSE3qhxsi0IH8YNEfp24/Uo2bDT6AN2JKw/kM8dzhcz3h3vmpxzvgrz1o9z4K/Y0k2uMDOD9XPTd4D843hbUMBBClFkNxIAgilBsmRSSxpzAQCtDAMi37XgRkkg83VFZQLcykMoS1RyYxqesJEaWmDs9aKKPkl1qit5kGbrC/78InksGDDAqk1PK59RhFHrH2eAfsscwcMk1BJvBQTXPd+S94c7gzyBqCAINkaAjWchgQgt3QSmZNDRLsBVuTrG2iMI2RUiuaw+UrSS0Oa+d3qJH7Wv3XycKDRFPpo5Rh6msklQ6P0kzNPe7wqFJk7u1ncggfyLkOzwivfUfG7bVwLxjXNLqNF0q9PR5UlZLq1LTiAyoquY84hpPg3K1bvI2GoKhsxo2VEMHE8t5R9t94W6xz88vheFzG7u3/fs62rWVGl8df);lineShape=1;strokeColor=default;" vertex="1" parent="1">
          <mxGeometry x="182.03850270162604" y="-1117.8792212066742" width="2.910462473127123" height="25.166740829138547" as="geometry" />
        </mxCell>
        <mxCell id="opCMUjGsSkM5_SPHou3j-15" value="" style="shape=stencil(7VnLchQxDPyavapsyy+dA/xHqghki5BQIbz+nh62PBlrNp1AwY3bJuteW1Kr1eM56MXn68tPV4cUPj/c3324+nZ8+3B90FeHlI6311f3xwd8Oujrg168u7u/en9/9+X27envT5fLyuXTx7uvyy98P+GCaF1AKfw4/SOZaP71nzen9TfH2816leWr7fogyZ5e36TO66NKIL+Pr9N8oJikNgIwSW0GdCnhaUAqkoIPuRGABok6AbJKZzlSqXkClC4xEkAZORyAFsQS3aHNO/QotfAY+gzIEjrNks11aF2MAXSEOAC1S2KAJDYHXbIoCRpHanMd1KQrDdrKXOkimXBJwdZ5B9BRSeFyHmVaqSGBbFCS5LluQQKhXjHfbkUqyWnNEudmwAaR5LQ2idXntBJuo6h9zmkNgynnASbFEckkcIDNVLVA+xO9onNDW5HCNCl4ybD6HCDOZbA2onoqhu526JJZHZClmXlmQ3WeArh2A4ApAApXiwcYBzguxcDZCjJV81t00j4ApN2ZlBSi1jN5bawQKKwjU+N0raI7ABtYC8Cxr3IAenoudU8SSKkbvp7Zh9IwoWyrSKyqoYPx5wHmR2IOVFlxYieUGmlT9+ZnKJSSzVBD0DO/l7lNjrRkfaaG4pCErWBOnQFQc6YzG/qvUoYpSfi9dNgcdWvUXZl559A67epFJeYgUMtKOghROznukE/CDdC/dw+geW2eTM/tsIrvJgZWCACcHD+XpTLYvK0DBzQ3tAo1ZACYo0aWwqhRvc9tSu0SAG2uA3SBxtDGxFkBkaqxdT9SAGis5aC9zR+JuQ1bny02AGM72K4O3GDZzjygcJnv4AHrjHnpkeBzeU/7oG3MmBemFQ0UeU+7wgFQ2A47aiwA3nGefMgb72lPb6NT8UwDQXjYkfYtWiX/VUAezFkHBDdxmFlOvWGmWeE6Kj0XDjMrk57uZUjvCqjUO/RVIzZDrpJB/WjOV++w1v6FZgOqwToOOhdmuUdUmVDjv7//c3/Pn+T++/vDP/D31V+pWaS3PwDEnbjSUqNfZkDF3GVHUv/QnrkVqHGMtI1dTwRQ0C9zB8XEAWnY/zVoKpUZzHAbBGpO8u7GK3Luafa+VcO4vDx/H2V+KGYdP3Ee0PytXYEYkyQBUNxlS5bIrvniMJ0bg8VsKEJ0ha6cGQl1mDUAQ5H5pbSbQBhZbMbFNoizcq+NFjw/dqXNzEhRlEnrkMXNkyW7VMt+XoEphV6Ruypr4cTzArPMdJKgNHzRNqGsAt6KYT3jddxds1ZqDqO/o9RKnwKCt7fITyb5CcOlbfLPLEwYLbKuV/oGIfibBpgw5p53twDoOkbonblA07EHt999JfP8enx4fP/z7nhzc3p9tP3evy/Cv07vmvT1Tw==);lineShape=1;strokeColor=default;" vertex="1" parent="1">
          <mxGeometry x="182.70829107114992" y="-1110.3194014194137" width="20.84536331208883" height="9.961223337972829" as="geometry" />
        </mxCell>
        <mxCell id="opCMUjGsSkM5_SPHou3j-16" value="" style="shape=stencil(lVbbchoxDP2afdXI8lXPafofmQkpO6WQIaSXv6+2O6bIwGnztuzqYJ2LZU/x4W379LqZhN9Ox8PXzY/5+bSd4qdJZN5vN8f5ZE9TfJziw8vhuPlyPLzvn9ffr09L5fL07fB9+YefK65GynFBCf9a36RKIf9583kF7Ob9BSAqaXOAmqgFAGj9cwc06X9xG5CpVAdQJkEtMTX1gEyt3AdIIh1WUBK+DwhtVMkACloKQpI8oBEDlQrV4uvNGAUURo0ato0peomqUqyoPvh+aiBGknZ2vb5EYtB/pur1yYUicoBJfUM5dEq3AabHEOzWY3KbQaTCHqDEQFJRKjq21FBO02hyrjAUtnVER1Xh1rFUeg7VjIkQkLxKzZIiAFBIZQyeAlmjJXXYCYkErCC1d3yxdVBULauDD4GZGIXJOqjjEpruAxqlPA6YiIyj5jk30xn4xleiCtxtZ3pnm21FYPNH683TIXhYUA2dXq8Xaqg+E3vCBZ4hWqn6+hCogtTZeE5+Htk8SEDRi8icKUTo2bKED4UNhPwPEl5UO+nQqWMqBc86MQaEqxGW4MlpPqdhhQrHtuVySLZN1Qx0re2KgwGArB++kPwHwB7+3n9e5t1uvT5dfh/vS/ZqvWvFx98=);lineShape=1;strokeColor=default;" vertex="1" parent="1">
          <mxGeometry x="205.03100145419103" y="-1113.1751538384456" width="2.8346800132849554" height="2.2055473308811826" as="geometry" />
        </mxCell>
        <mxCell id="opCMUjGsSkM5_SPHou3j-17" value="" style="shape=stencil(7VpJbhsxEHyNrgT35ZzlHwHixEIcO3Cc7fcpQqA0LGpKyC0H3+wRa8jeq5tzCG++33/4dnfw9vvL89OXu1/Hjy/3h/D24P3x8f7u+fiCvw7h3SG8+fT0fPf5+enH48fT/98+9JX9r69PP/sbfp9w2UTbQd7+OT3AE3d68v60/uH4uFmfTHG83sf99cG0OK0PxdSm1oc0rY/nHa+uj8bN709u7Hh1PU47y5uiqeL9zdR1fdhf784/bw6UhcDeGp9niaNJwgIQubRZpdhTiOyhcT/bDK9QgGZsmQAum5YkwM07QA1WaBUAEtoFE4VaAYh1BnjTNKAUBiQvHM8Ov98ApGdbE5cdnBAagJoWgDqSM94tR6oSkOIitAaQa8AOynDBG7sAkrADAI6EjlpLADQGlBs7zBHn0kgie0JzzksyRAEg90bEqXjoO8zeGp2xyg5Q6yx09PpInkM0InMWeaS2pBmrna8kBmSRl7rQtEMaUu2q1TEg6ogrngFZ2cGasACKyq3NtOVISWXvxhEHQBBq7ZnPsVqbSpV1uNoGEIQvAVDI+YIpWQMsAxQH6EVx3gHuqLI37JDmEEXEOWVpuAbl1mq8TgIkg3OyPoRs7OytxXhhtwgRyG4mi/fDDYj4wFXF+5PletVMFm4BGuIpEaNGC09Nafy8YW5VuEXKJs8a6jpTOxQGwI+84pKINgrPYqwA5GhiYoASurglnrP0o2oXGdygKtcBldNkCFJLLS4MOkhPaoWFRkFURR0AP7seYkeUhvVEOkk2O+jmWJ8HsbmuorxQMSd5Tw3D9c+AIrlbRfqZHQnRadWRkEIpITVphNpGl7DZQfUZLYyCv8lgijO0tAjthi9eB2Su6EnWZ6xnvhoH1do7kV2ytnSkxW6hmaCU5BmALFWFoZvj2oYIV/W5221WUtXlFs5KlQfh0ZTvWe4QGziBsFuu3L8BoJIYAKEwQPWsANjlSFHIkMtg2GdAlSENQKoMcMI1OoBkOKe13SORDFmyGAAoHFrWR6pMDuHwcoc6uuYNICkZ2uJLaahhD8BqTXLakJcKCqFVh1gst2M9jYisUZbxBAyn0kwH0JGqZMQA2MiAJmSA0FRye8Qp927XAki7BpE3Z61mJnXMbLZBrQHU/HQhdATVBWB1QOTFEFGljTLy1tbUKjHhZ7Jc1pYrnI0BUK161xLlynTLcmkBqAIB36Ai1wFqgPivgNKYUgIQhZZAfxplAa85aOH5BF5RhJZAWutSRhUVQBnNNAbVMxZwRJqAhCq11Cv7QrC8Gsx67oudl2pFHSf+E/TkN3P86BSAcAyZ1mdxnk1KubSgUqd1kKktgVMSJy663ktq0s6j6g0tViwXnmep+4mSaYCpU0PWAbohoz79MpLfDTfPQquyXt0Yp2zUqlr1mjgplZESdmOBZhPyCgRmIybj5FisLQkmS9JwqUyb0YGq0D0SqBHI8sYBEtOQKxQ5bIQNKL/cuPYpnhu45AaNuJ62kVTnWEh+PNmbZpCnJis7hxSHm20HpgqAdokSUpb3Mv3EFAtVZoy0zKH7bZOaWjWOthux0Ce2c7Sha1UpJrpBmS/USmoJdcMvNz9ejZUTc+IugzgSMlCmIzWZV8NSoNEYK18Ky61mf6Jm6a/3AcO7Xu8D/v/7gKWTjnp05ZfmJ8RbR/Kz0P0CQV8wv95Iv95I7wD+wxtpmiG6Og65m8ioAmXZzICi0pFC0QDPH8rEKpMxOKQlvpRl/7OyVivtFvlWI+nhsuPuKmm/WLoxZG51e4Vgo89wsqy4jmes/oaNud72tkHRSU7COKGi0ImLJ9bLARR/adX7WzXhWu587Rh876yvjeV1wl6FoxLrFZEsY/i16QvVzKNw5sJ61fQsE25YUKX3whfK3cNVY8sc0usv0QpXj+4h0r5lIbXyluEfvxy8vR5/XD5T/HR8eDh95bj9nT9rxKPTJ5Hh3V8=);lineShape=1;strokeColor=default;" vertex="1" parent="1">
          <mxGeometry x="207.1484403964829" y="-1108.0990656343658" width="26.304533103677294" height="15.893384739060586" as="geometry" />
        </mxCell>
        <mxCell id="opCMUjGsSkM5_SPHou3j-18" value="" style="shape=stencil(lVfLUuNADPwaX1Wa98yZhf+gikBcZBMqBHb5e+T12lgy7hQ3Y9SeabXUUrpw87q/f9l1nl8v59Pz7k//cNl34VfnfX/c7879RZ66cNuFm8fTefd0Pr0dH8a/X+6HyOHp9+l9+MLfEecopAHk+WN8wcT878XdGH7oj4vwRI1NeAPhLhLrz2fyYTveF/JFxbtK7LYBMVKKCiCfKG0bkD01DQiZCqBQGqWgADFBDs1R1BxSoFQAoFLLOkmBcgWAZkXLiYqHgP/fmwGNIgYYnUuEAMdz3UyIyuQQazlCp6lmYsy66hMk0wkJsVKuSfkmCHD6SiJNxcoVrdwiD1sII50c6kGBt0JNS9cyJZSmQrlpgKcAOkIAyShXsBCFouZQ3TUOyetqSteuVLRyhcmjehWX0IAsRoOkrhSd7TnkZEMlBAuIiHSbXGIGRKoRl6tpUmGFm7RqKyueMj7B1FKpWDgB6FqqkRxuuWqaeu7aTWcyPRopY9LelLdkCdVStVb2lbfN0mgWAO34xwAZuto2xPoynkGm40S4BDjIlKv6BGmgAK4kc9SckN00lbYmtdM9nfzUId9PiDB57zxHPTHgsFo1Qp2Wie8PsM4aKmTgpuZaxCNT4mnELhcHQJhtRoMsQ+A+bP0iMCXAlyeTnjeffOX+ZkBLBpBgq3hXYO+v7uM8XHtWfCv001U6I/TrlVoeLm2rYmB49x9uzVfD5eFrQX/sD4dxv1/+3y708mr8MRBuPwE=);lineShape=1;strokeColor=default;" vertex="1" parent="1">
          <mxGeometry x="251.03639228265865" y="-1108.2424926133724" width="30.514754437362768" height="2.129931226540662" as="geometry" />
        </mxCell>
        <mxCell id="opCMUjGsSkM5_SPHou3j-19" value="" style="shape=stencil(rVfbbtswDP0avxKSKInSc9f9R4Gmi7EsKdJ0W/++9DylFh2fYsDeHIfHvB0eUQPfvewfnndDcC+X8+n77tf4eNkP/GUIYTzud+fxok8D3w9893Q6776dT6/Hx/n388NkOT39OP2cvvB7xiUqYQIF9za/cBTdnxdfZ/PDeFyY+0LS22eSuG3PiWLu7H0i8duAlCj3DoJQAhFJJl87AFdKIKTqKccOkBx54KFWqtLn7MgxKJLT/12PqJQFxhRLB5BCPoGsC5U+68JUyzYgC3EfUtFPAEAMVPqsK65r1LqyBVSQQ3TEfgXIgEyVXF6FBMrKhZzxoEmDzrFQMB6ECqArZ6p9WWum/AnAeEjEKAeh2NO1RgrIQ6HQc6lyy2qrrNHkEGAO2rhcLIBBWZUatVpARNRg8isPFVQpxjYui6RR4xQgYstaMcDmoMqDklYPBqAzCPow5WAApannVpWCoUYlDnCmXbKAgjw4kh6w0LZNMq1mFJ4QpVFnAfCI3zoQYsvk0QTlpoyLRjhQJgUYcdUZFaCVk2ysZjRhgFUBpgQGYpK+1Yz+pdf/AWRVlb4PJVAC/JZEqT+pReABUXRe+qRFVQCEpEX0fUhZVQA0rog9gnSdCIAaGkDquRQTJF/yLYDrtsFYjX1Tles+49tM3V4ekj0VPTdduAkIzf+1qq2Rt79vxT63je6muWvD+2HuQPSulfvagDYZG+aur2Ykhl83nGaKIFVnK4MJraea0Tq4qXp7zPq2bGy0yfWVcU3GNsyrNUeHjS5/0ZgjlY52a1FzQLF/vCR8aq4PH/eRp/FwmK8zy//t/UVfzXcfvn8H);lineShape=1;strokeColor=default;" vertex="1" parent="1">
          <mxGeometry x="275.8471804363721" y="-1114.46528604536" width="10.675731715128082" height="11.286440426850254" as="geometry" />
        </mxCell>
        <mxCell id="opCMUjGsSkM5_SPHou3j-20" value="" style="shape=stencil(7VhJchsxDHyNriiSAEHy7CT/cJXlWBXHcsnO9vtgIlMZglI7PuTmmzSDHmJpNkBu+Orp7vpxu0nh6fmw/7L9sbt5vtvwh01Ku4e77WH3bL82/HHDV7f7w/bzYf/t4eb4//F6sVx+fd1/X77w84hjJdUFlcKvlyeFcvvz5NMRcL97WAFSI2kDQBpFBEgUygDQRKKXATGTpAFQMtUIAIHqGEMtlMJlQKUUB/smVMAChXj8fivUCrIP7vsV5lRJ6mhvKeXL9pnKZJ9BRqV7u7Kv0D6MJY4hUAAJZYqTQ60CThDHySHw/UiZvb2AAhghpoADKHAgdv5XEkH2wdkXyNBT9lb2EX7/5e3JXmG8ifK4Y6rtIUholx9tnVLn86/EYwDZXEzAIaUwVowDFcQg9SWIQhmEILbFnQ6RAo9y7Qzr9pjSJXZJOEXQk3xeU+z1WLPIJGCBNumi6RKDXW+cTHmMuFDJSBcn3mnp37i0hCubEQ8Rw3hc3E6z9oGiNgdGqtqaEdR5YT57ABK7lrsDKwASl3Yi2hqAXLJSl8kllKU0CXaFAm8An6XSJfA8IFKbFKMCui6A5gEBx8Aj+yzRDJqaAfwKQhXFwP31CoBUePle8ICEYpgbp/SoLpFPJ4Ai8pW+51dZihjgWxUedpYtOlU6oyzZCq4OtgdBM1liYA9oiEumEdOeFlTp3Lm5AiAlWyotHvAal6YtqogaTGFyibF886R8BdUhnRkCAqLGuT3Nr+zptwGmLFl/yKgOpksjNQRra9Xe0lZzABocihFhBNjsIQCgtU+ap9NCb0nn54DmO5bAOudJKAsp+L5Mbd0CQP2KJ4A9YQBYpr0xYvMRHS9skpJRum24QbPPdMSzMiZA7ffz0evno+YXeD8fDfb/9XwU/SWHKR/q+9bkx/zbeaoibe90PG0woYjqlUnHHakBnnaMEdXN/tp16dI1jY4p5QxHf55qxtKdvARwSm0ANOrwxFJmyGrTQYkegHTCXrNMABSDzYvqAUjdLYlxcqmhFbIvnK3JaAX1t18GQNOXAapzKeOg1XdMe5KAnC4A9oCGAW+7VPwHgP34e4d5u7u/P16Brt/7O097dLwv5Y+/AQ==);lineShape=1;strokeColor=default;" vertex="1" parent="1">
          <mxGeometry x="298.0181984756887" y="-1118.222797435571" width="11.395115522628375" height="15.287467483116266" as="geometry" />
        </mxCell>
        <mxCell id="opCMUjGsSkM5_SPHou3j-21" value="" style="shape=stencil(lVbLctswDPwaXXdIgM9zmv5HZuLUnrp2xnH6+PtSo5FiCtU2vsnSwgR2FwAHfXjbP73uBnFv18v5++7X4fm6H/TLIHI47XeXw7U9Dfo46MPL+bL7djm/n56n369PI3J8+nH+Of7D7ykuwrsxSNyf6YWDm158neDHw+kG7iuqdHiPFLbxGqHa4RWpbOOjwIcOH1H8Nj4VhD7/DE3b+Nry8R0+QIXg03z8jE/IJJ9a4GPPj1KCaoX0BYwZZRpQeoY0IxNKvVskXTgVBBLRjki5Lzqh8qpL7VWoiOyElnJvi1Jn4bd00N53NSCxlAJKX3STPrAAhfa8Vo/ArCRwpa9B4VmAnz8vLHloJQFu7pVFuOZuRqsJCIJE2tmmJIUHmKJ96xC9h9aCyIQO64YLiIwjY4zIOTXO8w6FqWa83UZk4B296h7Vech+tkFD5iSZGZAEwlQwUyZHpHjPHCuJjyUzKJvywoQwk7i9Yavh7gC7G5p72Sy2y6e50ZMa7Hb7sOMn12cjmu0rs55vzPLvlFDy+oBIhJZ5nd2ULETntu77bigZgVTs1vnkRZUNvPYFp6VhN/Dr3ZbgaD7rVlNUUq/JR4XyY+ptjLH5Zfj0gkj+3+gVKT3GDm2nETfceRv8L7w9fFw8Xw7H43Rvvf2+vqi2V9MlVx//Ag==);lineShape=1;strokeColor=default;" vertex="1" parent="1">
          <mxGeometry x="298.59071349322835" y="-1110.3435778266885" width="8.699050706539404" height="0.8940522051012396" as="geometry" />
        </mxCell>
        <mxCell id="opCMUjGsSkM5_SPHou3j-22" value="" style="shape=stencil(7VjJbttADP0aXYnZZ3hO0/8IEKc26saB43T5+1JVRzYp6eXSS4HcZIscbu+R1Azx7nX/8LIbgnu9nE9fdz8Oj5f9ED8NIRye97vz4SJPQ7wf4t3T6bz7cj69PT9Ov18eRsnx6dvp+3jCz0mvUU2jUnC/pj8ChfLnj8+T+PHwfCPuG7Wg5L0jF7YVAlPI2kCk4LcVYiNflEJyFOq2QsrktYVcKAKXsqOoLVRPLgGFQKwttEQJKUiIUSlw7E5uWYi6DJzJRahgssSlJ3pdwVNhrVApMswSGwvtPQXntAKTb6BwgqVmFSoIOlUq2iXvZqPrGoWStyYYgyksgiggrymRX1hwSEGQwDavAcA1BcrGpdqP2FJwJq8FcjT5RakTNZRWR0m71HynyFaWonapSAwI346aztKIRxBDcbaRRRyDcL7pGIKDdeBASbskHoEyCOWNAdzHhPF/X1/lEbalqDXb80FjFZg5639D/rDtq1JjdD7beKULgiZ5w92501NFAUt30FQr5IEBCZh1QislVOBKzbT5DvOtAqRq5Bn0OyEVG172imwBKEdzPmqPAtBg42Uk7+3QEUQh/wUv2p8MB4LIVw24CCks/gS7i2QEOJmBZheBc1/yaeKVNgZ2HalXXRAS4a2sEBjlU8aZlS8Ib83m33eAbPGlRJPPignPul6pD8NNwuuxkXtAW/LB7F1wLI1zUcu3XvB/Il9bp8ecHwE0CKC03p9mQDPsEDKUnFlNZRACSMvrYlocw5zKWpe1QpvH1Mem+bFp/vebZrIWWoZbiLhkPr1q7MVf/94sdipnhnuRTG2zmoqTGSn4PmbmPsMUAfp8WGxerX+yrluwSZKP8gLq5heU7pN6VVzGpKkBPN1Zbyocswsyy1YHsulsfRPEg+wgOtQIie97JW9GJsCzEEZDwcMNJ/b96mZhQX2OXDXi6BKh9OF1FUdslxZntye0faxdFIEyvXuvJA/XO6mnw/E4XWndvrd3WPLXdP8V738D);lineShape=1;strokeColor=default;" vertex="1" parent="1">
          <mxGeometry x="311.6581049156059" y="-1111.1694652410847" width="8.862303675035758" height="9.002838789016245" as="geometry" />
        </mxCell>
        <mxCell id="opCMUjGsSkM5_SPHou3j-23" value="" style="shape=stencil(rVfZjtswDPwavxISqfN5u/2PBTbbBE2TRTa9/r40XDkWY09QoG+OM2ORw1ODPH3sX953A7uP6+X8dffz8HrdD/JpYD6c9rvL4apPgzwP8vR2vuy+XM7fT6/T7/eXETk+fTv/GL/wa+JlJl9GFrvf05tKcXrxecIfD6cFPgbKvsN7phK2CVIoxI7AjnLaJnCgUDuCRHJ1m+CFfH9CZAqyTcgUUodPtdm4ii/EucMXJgc88JF8r1Gp5IEHapH0hOrJAVFDIuf6ExIl4ELSsPWi5kKegc+OnPQiJcqAoBZLn0hqJEqMOos4EyJFBwhiZQ2hRXKdoH9zTxAqIDFqpBItIYFqqJk4WJMcUkmrIVtCQYRKUq1KFeSSEmqfGkHz3WOCMalQRYHTDtEToqOAAldawc8ETwkFLlPqI60V/ffMdUIiNi1AyIF60NQo/o6AUkNs0xhNQgQm4TunkUq+fW8hq6ATvO17GriCnPZWJU2NByfk++RD2cqUex80vVGzV1mraQKC0zuSZEtIODWsD4JVKm3aLHyIuIA8W5UicrpSvmuVSFbvnO33Gmo04sYjjK5a5v+TUEIbOPNE0UAAJ5LqaqZiwkMuU+5PGIMPKohjs3jeTW7CrXvd4rQ4oYJQO4p9uy/SOtUG3oRNh2gByZrs91WDBILgSxux83JV4ISTedos1rcMquHWR+dtrCXv+m7l2gxveNUA4eemuMCDiOm+morBM4hAlns8mug52BD4NoDX8ZG4F5TbLreFN/ZIa2hb+GJ6BUVQZSPejB3sb7Tb9twvt/QxNZYf4X1fYgV2CY2X0bMSo13+H+8vj/H6cLssvR2Ox+mutfzfXq701XQxk+c/);lineShape=1;strokeColor=default;" vertex="1" parent="1">
          <mxGeometry x="322.20947658667137" y="-1111.6880321789292" width="9.083251974421604" height="8.538370069515645" as="geometry" />
        </mxCell>
        <mxCell id="opCMUjGsSkM5_SPHou3j-24" value="" style="shape=stencil(7VnZbhQxEPyafW35dvs5wH8gkZAVIUEhXH9PD4sn4/JOrZCQEFLektmusd1HdbnnEK8+3779dH0I7vPT48OH62/Hd0+3h/jqEMLx/vb68fhkfx3i60O8unl4vH7/+PDl/t3p/09vF8vlr48PX5c3fD/hvIovCyq4H6cnSVR/PXhzsr873m/toyy/bex96E/OA5zEcYFQxNV9QJU2LpCyVLKjItEP9qVIIu/P4sb9qJfs9u0T2jfXn+zYh4j2jdq7Ntrbfsh5o2ga7YP4zOyTon0hAYviMto34s8gGfwTxZP9h+n9sXvsfAJJTtP7qf3v7Nrsn2W0kzKdNzVmHyG+Xhq19w7tE8k3yy6wd1KJ/80+oL1nBYn+19Sf7ORDGPOnpu6xnfp1o30xRvFkP8Yf44FzESUH9k38GOHspZId2ZagBLKTQFaIub9vBVjNMI6wlBmDkFWUFb1xILCWSiRZagCg0dpoWqQkFXjF0Tozn8ChtUkigcsNma5q54LzTF3Fj6VcMqWKapXeMA6exKEWCdDNYm8Pe4A4Jl9sPd/3AHlMvqhSSPkboGUEBLal2ulhBVRRVnDWMT0CaIWqpDQBmFu1d4ANoLIzWOYUBDTm1iba0EuRuFUd6hADNEJ7BkgQh9Y7yx4gj4DkOlPtAgICWOcxQBzdmnx/xV4uldGtC5GxOBi1Q8U52nyq9foRUD0lsmWFkQQ0UPm11AP0Z/Mbi7S1V2i4mQq2Vru+2SgGR7zUFFnjguQxgFZcwZMztNaTeQMoJPkMUEG1JcpLBmiKXnJ8hRnAaKat/WYFWDoyt86HrhLYCmvP3AAqi7T2920AjW2p9h1vACy97WdUV5X2OPMJytXK41B6BW/cGpmXCgqspR5YtpZ+P9jkEpMOBgA109KlM+ik6RN3K64Q+6n2Iu2mW0/juVSmEnW8RPHeduEMbVqBC+ml4uIUB3bXdvNdINO7oS2BFbTqxj1Ahj3VS4fA61vl2acoBZaS+5uARTtAQTRKrjVOK/ArYp3ioJFKARPzwJXWRgPJvjKdISutUWvUaQxc0r7JF6X7onQx0v+b0jWuHFMjZXp7XaQxFNCFMYXDwFnR0hINOAgxpRvZhTr2IcO2QbChQEbtsOkA5xF+Gr5xxWQAlOuNXpBTkDyW3JLAbO4QsOTM00z1WXJCUZunMwNY1xxXyFUiye9lpAwTJksmBvCoNnKhZ/AZQ233LHYh8FYvYxyW4QjLb6R7S3hPp9zAAZrpMOdlav0ytYaptUf7fzm1nhWY8Rax9/1tq72nTBo6929Gk6yNR6zflKg/C9aXVVBhKrhLrXX/ouy4qY9E1tZBbztmD6TLhzBGcCDV+DDZ7EELut54ztsXVBS88fnpK4OjdOJX2fdszy53frpvOjpY8Ov0/tn/rBzNHvbD6dAr5kPg30gU+SHy+Gof2q35TL+Q/PFn44v29sfzN+qb493d6RP39nf8pm2PTt/D4+uf);lineShape=1;strokeColor=default;" vertex="1" parent="1">
          <mxGeometry x="335.35697425659737" y="-1119.2936975751966" width="18.296984376860532" height="14.468846917204113" as="geometry" />
        </mxCell>
        <mxCell id="opCMUjGsSkM5_SPHou3j-25" value="" style="shape=stencil(lZbdUttADIWfxrdnpNX+XlN4D2YIjYc0YUKg5e3R1mOIlkSd3vnv88pHR8c7yc3L9v55MwV6OR0PT5vf88NpO8mPKYR5v90c55MeTXI7yc3j4bj5eTy87h+W8+f7/mQ/+nV462/4s3CNUEKnAr0vV2JCan+v3C3Abt6fAxmlGCAJWnWAhsoGyIKaXSCJAUoEeyUltGyAqis4QG2IFmiMFh1AVbIltYLE14FCyFYlJgLRdSITJNolGtiRKRGq7ZzqQE4jooBtI2oFO4BUkAVK84EMsrrmBhIHKGMjUkV1VIphXCGqW5zO6W1pFggITklaQK4G0CKzs0KuaMkCGSE53lARrZlU6OB8dG+TXUFbGfyBoGFG6V8zykPjCLFcB87c/OkNWoPh8hI6MBbQofJa3UdysGtbX3FZJh36YUg1GJySeqzYkr6i53KrBeXbjFYnBjQa6wBofHozmhCHoVZZHTN1QP4HkDima09Dx0whrm7+BBKyE0yc1rQ+i43ofHRBtW4tDHHaEMYwzrym7cXn1ar2AxKvKXLteWuLSODg1ZNsYgRfUc0TWz831xQcR4GYkZweBxmBBHEmRz0x/Bm0AY6garpBofHfpgdfO47HebdbNizn98cdil5adjdy+wE=);lineShape=1;strokeColor=default;" vertex="1" parent="1">
          <mxGeometry x="351.3538999726643" y="-1123.0996823665782" width="1.7342225794745587" height="1.7395425942100733" as="geometry" />
        </mxCell>
        <mxCell id="opCMUjGsSkM5_SPHou3j-26" value="" style="shape=stencil(lVfLctswDPwaXTEkwec5Tf8jM3FqT90447ivvy9UDR0BlNeTmyxjRWIXWJATP7zvn952U3Dvl/Pp++734fmyn/jLFMLhdb87Hy7yNPHjxA8vp/Pu2/n08/V5+f32NEfOTz9Ov+Yv/FlwxVNyMyq4v8ubSCn8f/F1iT8eXlfxOVANKj5R8Lfjk6fYVLz3VONtQIwUNCAE8mAFFkBUAC4UQQqSIRedQiKfbgO8UMIKUAI1kEMlrzmquSe1vYAjrgrQInkGgNpJvwJkhQJIYopmBaYCtpSEJL1CLeTBClJIWbNaMqUKSIqUdeVleQO21AIFLUMKfZO3AEWXklRjAUILJ3kAsAOA2Gt5BXCg9kQmr2lNjhpQupWhWGUFlEO1DT3ngACNOFtARbQ2qnXQASgtgGZoZXKI1jboIMrgLTmTNG4gYcl5C0C+J8LVYYUCPKCl/r01IMNaMsY3bwn1A1vjE0BASQdrAkJrQUmL8zoLgLQG63xSGgm3aBqKr6Et8Ua1RrSlSHFoUY+KL1E2LDno9lIaLQ8AJFzt42a1JShcG1xD3BZtqXWfW+ngQYt654YOCnBAzC5g3FhmzB3biJ8CiFnrrHPuh4ntESRNbeZ062+2h1ztwl6noustsj1GE1XtxuLPBQ1qAWghVkxvL0FRF9NcjyB+0K0m2HHXc8KVI9/t/GYGg4+hASQHQtY+xhk2nBzgmpZNksqA1Bh6x185guc3aUdTqjJ+QPdk6UadsoPzrcjfbOKRxMK40fhOvJhkMfHIhQuP8XD/sZ+XP+LRaCuJnP6+OCrqy0TRxhdQohKfdePLyQ/oO3+/mviK+JT963iG58gyjBCGk1z4z/ZOBfUKYzzU65N3tvvx8vBxQXw5HI/L/XL9v71QyqvlMsqP/wA=);lineShape=1;strokeColor=default;" vertex="1" parent="1">
          <mxGeometry x="358.9181662211429" y="-1122.0367111473204" width="8.916603615503721" height="18.417642320387838" as="geometry" />
        </mxCell>
        <mxCell id="opCMUjGsSkM5_SPHou3j-27" value="" style="shape=stencil(lVZJcttADHwNr6gZYBbM2XH+4SrLEcuK5JIVL78PGBYVDWF1ohuXbhJAA40Z5O51+/CyGTi8no6H5837+HjaDvJtYB73281xPNnVIPeD3D0djpsfx8Ov/eN8//IwIaern4e36QsfM69SKBOJw+f8IFLhPw++z/DduL+AM5PkDh8ohOv4xMvnFjxTjdfxTSjHDp+pFoDPlLXDKwUF+Eop9fkmqoigpK1PIFOsgNCo1o4gCgkxnEt4zpkpgaLaL3IvQikkOInUq1yVSgKEQtoTtFJDuqXl9UIwJRkRmDSsCQ3lEBadzoRAMV8naKPQS61MEYRkKdZVleyfYBiMEPreyBWH5Ag2Hwp08CFxIwbN5JOOlfS2spKCFCbdeqELBVAj3xhlEf4/Oy+aaojgetssTPCArqZHhIrcNKCpQpf0HlAirqpzmZpgY3gf00wMkvBG2SI1RHBObFIyCulWgt8NlhW36wS/fC6k+ZLhtpsVGhllJlnhCzQlodoH1PA8WwIr1Qp0ybi8PbeF6Q7iCZRWw2aGBNan3zyZFDSFH4QEd5uLR3B9XL5WsQzq4+oZBW5zpxcuj2sHgV5341nqn3C7+Htsexp3u/nUd/l+fcyzR/MRUe5/Aw==);lineShape=1;strokeColor=default;" vertex="1" parent="1">
          <mxGeometry x="359.26662503192347" y="-1117.9590310915123" width="6.48203327886018" height="0.9525449416451952" as="geometry" />
        </mxCell>
        <mxCell id="opCMUjGsSkM5_SPHou3j-28" value="" style="shape=stencil(lVfLctswDPwaXzEkQZDgOU3/IzNxak/TOOM4ffx94bqURUjeNjdF1oYAdrEAN3z3tnt43W5SeDsdD1+3P/aPp92GP21S2r/stsf9yZ42fL/hu6fDcfvleHh/ebz8/fpw/vL89O3w/fwffl5wqZKmMyqFX5c3EijHP28+XwDP+5cZIFcKIyAnyvk2QBrJCOBCyrcBlamFAZAapXYboBaAjoBEFYSkTLEOgMikIOkaKJYBoJQF5Fz7+dMBgRikYDWsY5Gi9rKtAoy32MaqJkrhNiBmKjzy1qiBkCpxHL4vlhQ4QBclihRBBrFQGUloAWZgCfJ4QpuUss4CUx1TblYjEFLNXQVTDgXS1rKnrVp7ACE18SdUK4MCQKGmHwIohQUA8dxaj3iWg2CAI65aN4CytkloE6DhshpgbB81UwJMt4XHmPgYOIBVqY45mIlERJyJXz2goBOMJvEALVAauXlARYBMmT2AgStZu4j6KhV0AlNgz8Pfuq0DUnf2GdMVqZUX4tN/AWQsq6lVcYuyekBEAOnjbNZAkIfS22Xeokga1fuSARQRpwtA7V54qx+clqysEczcc8ctiAvghBgChXFKmzYC0kbr42OmvoDKZBGIByi2vrhoCEG28VHA1d1nEwW1nOTFzNJOzfqQm7av6+YwVXqdiUjZzdFMAuoaer/MrQ8csCC6CHSN6kdcLt2o1leZ2IfytL5VOKZZu26mGiW4aogsNkrKKIPJqfv3mAK1griU4SZjosljPEaioN5hYpeA7Upow1XfO7afBbTtWSuMNslCCSi7mBGPNcrcN8Z1EqIPyRZQpAvb91xItlY3UCWO3YAmgMKQ7F7hdCF4k7Eiur3eAAmEZEp2W4DgcZVsdDQPYKClJN65peCbg3iHkUm+twDR5WB3CXyCu17ZJl5wDs7CJOGQincAU1dFIdmAdYAAtfThe/F/AOzheg1/2j8/X27x89/9td1eXa78fP8b);lineShape=1;strokeColor=default;" vertex="1" parent="1">
          <mxGeometry x="365.08429470970555" y="-1115.281748791776" width="9.720485107509376" height="11.210204842424572" as="geometry" />
        </mxCell>
        <mxCell id="opCMUjGsSkM5_SPHou3j-29" value="" style="shape=stencil(7VlJkhs3EHwNrxXYCstZyz8UoZGH4fGMYjTy8nsXzECTSHQnrZsOunFBNlBAVlYW+hTffXv89PXhFNy3t9eX3x/+On9+ezzF96cQzs+PD6/nN/t0ih9O8d2Xl9eH315fvj9/vnz/+qmP7J/+ePmzP+HvCy6ohNpRwf1z+UWL+PzfLx8vgKfz8y3ASQVAENeOAT5LdhMgNfGJAOJ43jaDE1+PAU0SrChJIytSjCBHSeF4fBTVaXxJopFskbQ4ja8quRyPT1LKNL7x9TSpaR6fJbINreICTtAIIFQJCSOgO9QkzltanAQWsgHmPVJPaacZNyka7fwxIHvROWgjIpvBSKB+XpJUEnMOonPMXjJhhY0vsCCaBja+zbRzUljAEQ/NSbwTb4PxnsVrnMkw3jkyPknE9dMDS7g/ju+PisP1JLYeXddT2P6o6Px8L4E/PzcYX/j4MqdAkMD4Y8+vMJ6uP0idMyaPgPbHO+SDCXFmMlqkzcJuM7AdUh2qs1UCL40Iu+l4mWewOR3ZIwPAmeUmjZC6ywpoex1pfbRLcWZp9VTc12OunKclSJ5jKHFU0H1AkzAv6SpNu4CapM5B9wJLqFHrUMJNfOvQ7/0KZSGCWruxyP0ZMpIvWg0namEAP6t155ISQJE4L8lqUGZBW5kF8mWaD1ZUfcRzaOTgWl7YWiSTGNpmnDZqBJpx3m0avSGKBDZFGdZpo2ugMt9MZuYgzCt4khBGV9BhO8tMhN4yEkp/ZwsHoH3hwmR7Avzujo3NUNASWk41khAGSBkBngOAGzVSk9djgKAD9SN9lwoCHJENA0BCmPQVwqWyuMI7WmkAsDwGqCypTWcUY2C+0wB40sZfktS2ABfxHBg1OmA56cQADsuokY9qpRXqgoDK9N7UHWbI1BraOSC9LUWJGhs1wBvWzGtWleSXJXF6IzWUUsMAeclp1kX2FIVtTbxQF2wY6p1CXRYrEHgMFYtcpzdXvgwAP2Th6KR9Q8CdFPU/lNPNj87xxv8ws9HM18/ncCXLURmFXtL688rcSZIwB23dKo1h+3sr1MpzOqPT1Uqp0asBABw1G1dxv/E/ypRvaQ+tgWY5fc2vG3vvmRi3UWQ3QBxaeGQdwJL1qxB20hFniLyH7uQDgJUYtksFi6LyjDP2p3lbjRqeiUBa2JqHg9pvIPLiZhI139rGMf3PgmJdE87gqElUj61obtR8G6DAlV6mLYpGvLIyekfeW4LRDcpbxYKu0nvaKv667/l13/NT3/csOnHnvidhu+oLdbamK2HeoBipfekyAUUt0rLZcxyukXkFCW2kyKZcW7N4dBUOLyOs4a2sMGMhv2mpDy7/wUU2fnW+NOj9qp0UfrdzO8TSIC6XQ364n/36hPdbXbuJUvuA9SwptZydZRUBnqwoBDQiqY5U2gcUzHzjXSYxhKVXsJLoCI0MUD0C2JWEARrMoJzZZXGQSu1aX9JMDCuxTE970EtNZgXNAGB1+m0syX8DgMLodgm3D8hD4W4AyqiR0UEagDl5MwVted1Jg1bsqHS7yjkChB97oXofYB+u72+/nJ+eLq9/b//H97320+VdcfzwLw==);lineShape=1;strokeColor=default;" vertex="1" parent="1">
          <mxGeometry x="376.0312035943639" y="-1119.761608113629" width="24.520499945778095" height="17.799774123856587" as="geometry" />
        </mxCell>
        <mxCell id="opCMUjGsSkM5_SPHou3j-30" value="" style="shape=stencil(lVbZcsIwDPyavO7Y8pnnHv/RmdKSKYUOpdffV2kmFOGylDcTtLa0u5LdhavX5d3LohP3uttunhYfw/1u2YXrTmRYLxfbYaerLtx04ephs108bjdv6/vp98vdGDmunjfv4w6fE04CXB1R4r6mLw7O/Xy4neJXw/ogvhQkMfEemcTXiOJNfIQPp+N7D5/s/h6xEEA+BoigRgLoITajUODSaYB3e0pmRBJkIUdUxGAAuaBngIhsVagegRRR+5nFGaDExUoAgpAtoEAIryXB9RZQ4UkNucIVCwjoidRZ4KItOsGTolNBtoCiOpAaUkKwUusWldTQAqLA50tSkoLAWJLZa3t/R1TivpFWa40883xKN2/N6lHPGMPKJihEtdZ5FYk1dGNtX6loY/NYSoPMVvxvf0YVgSDaEaCy9ETmdsjoHPSsCD87ec+S0sQaupmTfUJlOjeDeCTuosl9BtBeDQdM/63EX0ckNloFYo9Qu9CphGynWC2IpN10Ah3pxmveT92Dwc26ob0ZtDtJPq1TNUNSb5OP9gLjp6lXd0ikExo+VZHE8mkES5Sf1hF6TRFDXPocOR+vi9+3z8OwWk1Pp8P/j99K+ml6Z4Wbbw==);lineShape=1;strokeColor=default;" vertex="1" parent="1">
          <mxGeometry x="386.80600604631695" y="-1117.301143588362" width="2.185099333338289" height="1.0160802801723987" as="geometry" />
        </mxCell>
        <mxCell id="opCMUjGsSkM5_SPHou3j-31" value="" style="shape=stencil(lVjbUhsxDP2avGp8kWT7mdL/YIZQMqWECdDL31fbjJe1nJwOb5usjqzLkSztLt+8Pt697HcpvL6djt/3vw73b4+7/GWX0uH5cX86vNnTLt/u8s3D8bT/djq+P9+ff7/cLZLL04/jz0XD7zOOE4WwoFL4c/5HCiX+98/XM+Dp8LwFVOI8ALhRrdcBwhMgUwMnKFMbAZmpxuuAoiQ8AJJQBSdU7fo6ICppug5oTCkNgEo1AHkhLmNUKQkwqFFpo8tUC5APFLLTz0Be1dvTqAF/xTI02hMLKUgBC5XxgFRgRI13yXlcSRUALCI6uhwoZgAwWo4x0gBZYa91NKkESiDLJVOpI6BSBKVgvMsjUSvDsBqPykhUYwqDsMYQfD2bDgXUs9d5PKJVmLmaiMdEbA69HFg7YoxTwy2DmURGQKECnEhK0TlhFQvYFKPvAM3YBCoo+CgVK1ngs1GtefmIDOraNlQqwJ5EWry8APk8cdvkUQpI2cujjmf9h72/qHbU03SJJ8iw9nSuhRA6qa7Jj/pr7C3ziv2ODyavoFkIRVfJCXejyf61jK7kKxUvryCe6YJ+QY1i6kSmAdgfek/YxKeA+Fs1iZdHfJjaluVXAB9Cb7Qb/jSoX9XLZ+BvJHb1XmHLSj6eBXfRTFm8PPKXL+hH/Uc8/83fAPQb/8XLI3usvly9BNjfLtVvRRMINcd/ywi0/3PykacC1j6DXU7wegNtbgx0sfI0AzabqlBIpV/tm6sbcdpcdHOvASrwoaU+ha6ABG89awrNlX2hDE7QNuUhUAG8EO3bxkq8BAuT14lpHetshQGVaXOla6U2OMLWq37oyoUaGk1XImz2D5S4ZTR1IxRDgGZ/gkIXluYztkejCtpXYl83ujye6Gx+k1F/hkujycdxFo+4vZtBrnginoc+rvc1BxWapM3Xs2U5AGpLI3V7rELi2eIbxuKR2LvsZVqUToIVYJcUaJIGcKu1AQpa3qfF15Ye5MPiYvMAaJLN+sEDGNczTydAQPblaYAEEmerZptOCChKNppNeVB0QuyNfQNA+74B3PguFbZJA0jzAPiZZlooxC4wFNZPfwj6P8AePr47PRyens6frbbv/Xcq++v8jSvf/gU=);lineShape=1;strokeColor=default;" vertex="1" parent="1">
          <mxGeometry x="83.0093729767541" y="-1076.4932991384762" width="12.63732964129288" height="19.60311956155261" as="geometry" />
        </mxCell>
        <mxCell id="opCMUjGsSkM5_SPHou3j-32" value="" style="shape=stencil(lVbLctswDPwaXTF8AuQ5Tf8jM3FqTV0747ht8veFqpFtgtJmcqNlLPHaBTjEh7f90+tuCO7tcj793P0dny/7IX4bQhiP+915vOhpiI9DfHg5nXc/zqffx+f59+vTZDmdfp3+TDe8z7gslMqECu5j/hKo5v8fvs/2h/F4Z8+FhBt7X0niNkAq5dZBcuQAoDoKtQGwJxEASMSuAahP77YB3mkELaIyVQYuypLjFSBUA4xJ2iSmK8o2oBSbRK2UQEjFUekABXiQQCG0nbvVYb3XkSR3Lvw2IDMFsYAIypSdJYeWKddtQBIKbBvBCMDEJiQmASGlQsV4yEsv13OIxL4FJKqgEewoBQuICKA1EQtwQKQittUTIAEyZUq5CwkAaqDUJw2ooW2K0pUVAWrHb20lCumql3tqIA/chaSFRgCVXEfvgDQaKQcLQKNMMvm2rJ9qlCl3Y6ACQF4bNCjrrHMj2jIVwD5VkOvqinJQjWbDPoH8/jogL4q8WxEBNCJ1GuWwtGYVEHQftFW6XbG+hNJC/+vi1cUHcuh2VoRt08tSez1c05pdG76HMyzbieQpgmC8o9hq05EALXtdJN7Yoz2i4Zth4RYOrttXu8+xyiJb0TjyaIlEcjZ+RIbUiVJHDd45zrYrIXte5HFjg0f2X3wVfm6vh9sT9GU8HOYX7P3/9smqn+bnbnz8Bw==);lineShape=1;strokeColor=default;" vertex="1" parent="1">
          <mxGeometry x="102.04415786309244" y="-1071.026206124243" width="1.5260185341655634" height="13.607028232877148" as="geometry" />
        </mxCell>
        <mxCell id="opCMUjGsSkM5_SPHou3j-33" value="" style="shape=stencil(lVfLjtswDPwaXwmR1PO83f7HApttgqbJIpu+/r50DbsRXQ+Sm+PMyBKHHFKDPn3sX953g4SP6+X8dffz8HrdD/ppEDmc9rvL4WpPgz4P+vR2vuy+XM7fT6/T7/eXETk+fTv/GFf4NfG4UQwjS8Lv6U0slOXvm88T4Xg43RBEiXuCMnHeJtjfVToCJ0qAEDNJ6wiJKsBnoagdPlDRbXwpVNjhQ9jGt0Cxuv3EBvCVWr8fti/GbQKHZQNLTCM8cjMR+iMkpQAIJVMpHSE3EhCklEj6Q1cmKUBmpdyfweKm4NRKLfX4Rg3ghepDeEu74PERyByo9WlqOmpFeHXrZ2ogLVYat0QKAhpmQRe8RRiuH3uFmxCDQraq7avM9Kow/hz7hLD4o4QgEY/PDMqedIWvQC+Lnvr9J4DPxA7PlJGtUE4+/pwQvrr1rYbBedfr51nBO/dfqIH9Jx9Py39+JP6GryB/Vvre2NhWAqn/QIYF7BO0ziZ2ZwGU2bjvLLA0W8CdBRxJwP7XBiGws64NiKFFrw0ukACBVwY6FiSI56N4XW2oWkWCACX7Qq9wYahYkdlxli4W5mnkv4S6WPIy3WRoKiZRWnVi9AUzBemz2gpDQVnWStKHlSNMOxtXnLGwHRoZhXrhjICcOjYKfa+3CQ21Ai1zot0cWoBwGrxZayIGhNFNe6UTw+5thNhXs2VXQYRlqLwZoZDfGcENvinChmyO6lJjHKpABxmD2DwB1YOVqCZPQDOFeUZM/gwNeUbwXcoIjEy7+YpLCgvICKm3PVMazb5GcAWUAmycI6HP1jHhkbE+eie6g2AP/65gb4fjcbrB3f7vr2z2arru6fMf);lineShape=1;strokeColor=default;" vertex="1" parent="1">
          <mxGeometry x="101.30244467559726" y="-1076.2600742072461" width="11.06413553049653" height="7.280937660009699" as="geometry" />
        </mxCell>
        <mxCell id="opCMUjGsSkM5_SPHou3j-34" value="" style="shape=stencil(7VjJUhtBDP0aX1XqvXUm5D+owgRXCKYM2f4+6rh6GMn2IxyTym08lqa1PD1JvUlXz/c3T9tN5OeXw/7z9vvu9uV+kz5sYtw93m8Puxd92qTrTbq62x+2nw77r4+3x99PN0NyPH3Zfxtf+HHUY6ppKEX+eXzRmXr9/ebjUf5h97iSD4F6NAqVKSEFodKMQs5U42WF2KlWoxAzFXBCShTZKASmjBQi5WBPoNahfLfyGoQCDUrdyTOyJxNbebW/QfnenHwIQL5QYyfPDOQrley/n4F8oxSdfElAvs/jX+MTUDw7leLkBcuLBbUmUIC8ULD2JxKA0CFv8ZBJEH7UHutvJUb5ij6eQhnYrxXD1t9QKQLAqX8uoGpRAxnWgDexEWqTOC6dkK0LuVEEPsdGxdZAyRRRktt0cUVEDBRKnEW7KGgagNONPYz0TQNh7cpcNkqtQGAEZl8JvVAFpal/u9IXLT7ghPpYbS2LkAAw5UrdgYkxXQSFgi0HSdSRgoLtRCECm0KZJi8KSuEg16pQ3AkBd6kyo7goYM5ThWxN0uwLAPjwwZ7Q22wrl6LkMtcrpD3NQ0leIaMTuo9Sx7yhvTx3r1BQVetskLzTKKyqIM2HlUEvVGZKtqq7UETjRfDMJHhaGM3JEo1iqSIFnvPNCq0VwVs8M2k9QHj32Z/WFQeipNBwVDYUEDPVk4rTnoFr2g1h6jQiS60HT0wB9qBRoi4PPNvYxRJ15CqUcIk2e4KCLyAfqh/0FN4RU2W0iRsFhDMdTiouokyLR6sqJAy+9ymMBnGSaRSlWiYxrjKNiKzrPOy4Fde0ZEou03mOsOdP0Dy4sCY4z1Shanmp9dnEzk8bPF1cFDIecrMfQmuH84zyUnXzDMOx8nUoXGYyzT1Ca6ZmnU5LE7sIb1vTOnmjTWAsXo758OT9N2xuyJ7/m9u/vbmJx0OIcNpWQLgE6DKHmCtqF3TXKXomcFlrslmT6vKJ82vPZJ0/HArrHFXWIx7aw/ySNOZggLnsL5y0KSN7kk+Zymc0EE4ErOQTqLE4OXNlvyAWPTMCo8WWfcm/0Y95fm21QqJVZ2kSq16JmuvpippgX+K55y/yAS5G772BfFteH16vO+92Dw/H29L1//56VF8dr1bT9S8=);lineShape=1;strokeColor=default;" vertex="1" parent="1">
          <mxGeometry x="113.74377772538776" y="-1068.2463194681113" width="12.059551169482207" height="9.579721326359536" as="geometry" />
        </mxCell>
        <mxCell id="opCMUjGsSkM5_SPHou3j-35" value="" style="shape=stencil(lVbLctswDPwaXTEkQBLkOU3/IzNxak1dO+O4bfL3parqQcjaTm60vEsQWLw6eXg7Pr0eOnZvt+vl++F3/3w7dvKlY+7Px8O1v9VTJ4+dPLxcrodv18vP8/P4+/VpQA6nH5dfww3vI68Uym5gsfsYvwip//vh64g/9ecVPiuxb/A+Uwn7BM2ksTXgKbp9QkrkUkOIjkLeJ8RAKTSElCnKPiFUF6UhZKEACMyUtCGUakEBwZFvLdQ4C3DaJ9JkCVoAgam0unnnyAETVaZsLRSAjyTF4pFuTJFtjHLcxztK0eIdyLzZuxmv5IAG9X7znjSJsvP+YBSIxECBGp+2EErNQ3B/jUaxeAb4qnDeGPAMcyglSxBAGEIaLSEDCYY6YBujCIqfA7liRQjoSfOLVyoLqjQhNmmdoWzsyW3qwIH24pVKtIR/gb5PCLZFDpWGCI5YNwTgdNqUWpka1F28TCFcu4yaC/lNaQouTRNSnZrHDt5qVrMCpJEn3aYdCugn8TWvpXU4M5wgwqRtRJNOY25v5JjaDGWaWve7S5wGzDw254Z5PyeEvBnMCvuv1jRtx2b1GeEj+baWPWUQI02U2eA9SAotththh7O3U7ymFRA5hy3eAQXqppOTxYP5V9y0By14D+4vMg34BR+Av7VG2MangFZaa9ariX9E+DKZX/KBQdGv9o2FUJADn1w1/4+vh2WvfelPp3EtXv9v9+D6adyh5fEP);lineShape=1;strokeColor=default;" vertex="1" parent="1">
          <mxGeometry x="67.15902213505206" y="-1033.088977424471" width="3.343967286335665" height="13.85893112128158" as="geometry" />
        </mxCell>
        <mxCell id="opCMUjGsSkM5_SPHou3j-36" value="" style="shape=stencil(lVddU+MwDPw1edXYluKPZw7+BzOUa4Zey5TCHf8e+TIptdxsh7e02Y0taVeyB7572z6+bobg3k7Hw8vm7/R02g78awhh2m83x+mkTwPfD3z3fDhufh8P7/un+ffrY0XWpz+Hj/qFfzMvkB8rKbjP+Q8faEz//3mY8btpf4H3kXJqCGn5wlV8fS0NnimGdbwEcqHBO5Kyjh8jicU7t45P+rrdv5DndXxmcmwTlPM6ofDyvYWgKXCIUGwJRCiAkL07h7gwoqcgYInRElKEVdCoU2kIOVHx64So3/MNQddkUAfJNk01DyBqdpTaQl/kYSVP5MTuKYIlukIo3oOg86LMM14LByqdrRVUK6jQfYoCLLPuJ7b4G7Ig36qiqNdAQgsVI4pCGRXAWy8rYQQJVWuZHVVCBAS+QiggZCWUYGOOaEvSFdnTiIIWSl3VRtBhlBDNlhi3YO1Y2eoOrsAknbCROesMcJZwo9LSWa0AK6g3OXcrgI5USLgLAXoh9jmC3gxdESKaC+SMLDRn0Mts+qOHys6UjZdVp2DOFortWKtGQCJyVwhQdZ6SdAQsopQtIaEVfkrQkSBtDLUBg6JJ7NzP0DlRbNlupDWVLks6StEM0SS2W0oC66AhulYZOvwZKElDNGNB0+BB4bLOnXZLmmgG2tOgjft9gmKN/WSD5tdD3tjicQTCtrvo8QTgdflg3AyL5hXf9kdtseiMdy7pGZ8pgQ2xdYLiM+guYRHlBb6ggO0EqftBAVsJKR4pwtnupYJABVZ9FYv3wATOjn29lgiYBt2B2Y9QoM52d525GXism2Z1RsN4s7lU8NLK1vJvDBbgMeent7rbeH34vkI+T7vdfAO9fG+vnPrXfF3l+y8=);lineShape=1;strokeColor=default;" vertex="1" parent="1">
          <mxGeometry x="66.22709906092473" y="-1033.8382978878526" width="11.713249900756418" height="11.978693497639032" as="geometry" />
        </mxCell>
        <mxCell id="opCMUjGsSkM5_SPHou3j-37" value="" style="shape=stencil(lZZLctswDIZPoy0GBEiCXKfpPTITp9bUtTOO0za3D1RVsQhFiLyjaXwCfzwIdnz3sn943nWEL5fz6efuT/942Xf8rSPqj/vdub/oquP7ju+eTufdj/Pp9fg4/n5+GCyH1a/T7+ELf0cuIALigBG+jVsRsPzb+D4Ch/44A6pACY09ITA6QAbiBmCBXB0gAUoDpAIxrgOCUFsJ6lNoHcgFiFpAVbEDEIRWdC1QHNGJgQxQITkeIkFMFqgOwCo6LwBZB8LH92ZATg6A04lnoquTOAaJ1h7zuj0CtXnWtHkKEGJt7ZObtQhsIhRBPMFh4YChOAAFCGwBcgqPCcgciaA6pR01pgsP6HhIKjpaIDpB1dK2dRRdDdo8Emwa/hf7ansu8syO6KytYjyIryEuElcgee2ZIS56gR3RMUMQCxRHA2uptUea3bSfF9NHnmYuxGm3oABZgJwzJcjZRok9B4Bs08BOOywmyXD1O4Vxqz3RlKONg2HozzakX4wevSNTaYAvhluQKYLbpmcokFvNDMErCrI3DE2SPrcXkFZAcFPGaaqYyR5BnPNElZeMvVtyPA3iq73XBJkhlxvshSd5285TNHz5Br1FR2Sw8XRG2nAVthXn5+v6jNhWDzc/1zYAuri+Dp/6w2F8XM7/t69J3Rpfonz/Dg==);lineShape=1;strokeColor=default;" vertex="1" parent="1">
          <mxGeometry x="83.94471812141353" y="-1030.3205613670868" width="1.0341274801090423" height="10.389580034374658" as="geometry" />
        </mxCell>
        <mxCell id="opCMUjGsSkM5_SPHou3j-38" value="" style="shape=stencil(lVbLctswDPwaXTEkwOc5Tf8jM3FiTV0747hJ+/eFqkgxYHszvUkkVsQCuxAHuXvdPrxsBg6vp+Phx+Z9fDxtB/k2MI/77eY4nvRpkPtB7p4Ox83z8fBr/zi/vzxMkdPTz8Pb9IXfMy5RrhOIw595IVfq8d/K9zl+N+7P4rmQJAMQXQGAxCTBAGKn1G4DSiK2JwQK4XZ87xTEHsDEHQIaW0CjKBDQuwFo2RAFBWR7ggQqCNAoVV/VUAGgULdFSlolRDov2ytAG8MAIBTZAzKqUiQWn1IBKbVOhT3pjgCXVYrUQEqtUmu2cZlqhoDupNFJQB80pWzLGgUDLsTXSJAyoueclhRvtU0sZV0AjFUXH9uf8S2B+ErR5qP2R6poVKxQY6BcoHecKmKhCPwfwzof1i4z5typ2py0CV/Y0+lIdACgmVQpWVlIo47KpLp05lFpoxOEqk1J7YncpkJqyZ+QkZKCHwDKIYFJr16ojrTAsl4HAA6lLgmsgLzI8frPp3gOucDJrXOaLaAKnklLl5Z41UoH8q7++2fyvQrIVCzlSb0goUSh+ISQQVU1Ll6lCGShonGEmSJQRfD+1xlbAd+w/IrXeIYj+8L8tVKG8Wz5VoZWDtSsRlWEBfBVm9nvF6EEBqos1VvjtQIg/n8vbF/H68Pn7fBp3O3my+X5vr9N6tJ8E5X7vw==);lineShape=1;strokeColor=default;" vertex="1" parent="1">
          <mxGeometry x="82.68147695652408" y="-1032.3673946007143" width="7.344675912248116" height="2.270958804729162" as="geometry" />
        </mxCell>
        <mxCell id="opCMUjGsSkM5_SPHou3j-39" value="" style="shape=stencil(lZbLctswDEW/RlsM+CbXafofmYlTa+raGcfp4+8LVUMlgKXreifTOiJxCVxgCA9v+6fX3eD57XI+fd/9Gp8v+yF8Gbwfj/vdebzI0xAeh/Dwcjrvvp1P78fn+ffr0/Tm9PTj9HP6wu+Zc544T5TnP8tKcP9Wvs7AYTx+BhylqIBYqUUARGKvgOKogB0CU9Y7lEQ5bAMxUioaiOTTNpAq1WKPFHkbaBJDUECuFCsAEjUddG7EBQCFslGJ+yHXAVE9aSBQbgBoVEzQhTyQ1TETsyKqIwcI2SI7DURqOIisg6iVQoYyeb1DY5h9chFRJ1PzfWUdCDa/BSgoN1yXfQEcvggmZ2RtlICsoolJppopYsDrI1WJ4QZgckNKBAQtQNW2ITWK8ltCbPpIUnINuICImPQOUkEZ5VKgoHeQGk0ISBTYAgWlRiGutkYd8BlJbxND8T3htwrIAqnrtgVYWRtVD4FqSjRQwYCxvlpggxCVigamhEcxZNuCpOKgV0Zy1QIFyXovkMX5tC/JJzxQKabecBZAZABB+9azf+m7H3a7bseJipEpUwM9KNmg69LrV9/nbkJLY2/Q7a+6w43Jga8ugQKoNra2mimBKxO70B4pLRvpbzuV76a8PpNQ1YdhWDRXzoKvNtubxa9XcuWOwzSK2YaKBjzuOv+fkjIQBn2cGxflrJY4D+6fUG8D8vAxEL+Mh8M8T3/+3w7QsjQP3+HxLw==);lineShape=1;strokeColor=default;" vertex="1" parent="1">
          <mxGeometry x="82.6702225825677" y="-1031.0847393610197" width="8.327206291372272" height="4.049325363580387" as="geometry" />
        </mxCell>
        <mxCell id="opCMUjGsSkM5_SPHou3j-40" value="" style="shape=stencil(rVbRbtswDPwavxISJVHSc9f9R4Gmi7EsKdJsa/9+9Ax3IT1fVmBvisOzj+QdxSHdvewfnncDh5fL+fR193N8vOyH9GlgHo/73Xm86GlI90O6ezqdd1/Op+/Hx/n388MUOZ2+nX5Mb3idcZlCmkAc3uYHRajL7yef5/jDeLyK50gpWEAjrtuA1Ck1C8iU4zagVGpsADlRAYBaSIoBcKcMKPVCnA0gkHQQL5SLiw8BxFcS+/5IGcU3EluiTDWDeE1PTHwnQfl26tHyKTcBlhAzRYYA34JGCaXQFpUtgJSWImzVtHcLqFQQQKjZJqgSJUFVCK8AKOm8qOyaUgEA1XFYJY0osbeClpVR0uy/oI0LiJICbB8maQCzaQ7BUuq34pvVnmobeSFTs0qKy/zYanPwXr7hTfZeroi/6tjGJ8qoZd3PFh1niH/39YmqEjCMYnhP8B2hdsVubk4Ugs2pOdhLIfFS5c0iOa8JnsDVV0m9Fv8noMoy0heA6NQHbtZrzA3tFigDgBKoFqBm6kB6k5Jtq7VuyAuru/mq93+nRMHdC3r5giLpUHcZ6AADfY6+zepWpNXge9ADTDh43TWhCMy5ckKLFEC+q3hdHRrk7/jUsEynf8tXhBgsU6t6Cn+sX6XDYbTSg+5WqF8fXQZvx+vhz+b5NB4O8+J6/b/fVPXRvOWm+18=);lineShape=1;strokeColor=default;" vertex="1" parent="1">
          <mxGeometry x="82.73328773647142" y="-1023.923663142988" width="10.90240114331805" height="2.0556671325308846" as="geometry" />
        </mxCell>
        <mxCell id="opCMUjGsSkM5_SPHou3j-41" value="" style="shape=stencil(lVbLbttADPwaXYldcp/nJP2PAHFqIY4dOO7r70tVUCoy1hi5yTJHyxlyyB3k7n3/+LYbOLxfzqeX3a/x6bIf5H5gHo/73Xm86NMgD4PcPZ/Ou+/n04/j0/z77XGKnJ5eTz+nL/yecZF6m0Ac/swvSqAm/958m+MP43EdH2j6bwVIjQIAMFPMBiAKiNsAKRRsSpIgIAtFm5Iw5bANKJ2qWMCHDFcBLZFYAFfisg3olZJLqVJMAFCoVAvIVBgCgnjSggCZcvEcMiCtAAkWoCoBWRXAtnAxU6s4JauSdlfEHLpVSY/MWFVLIVJFlCtJMvGBAiLQKAYXzx3GN0uYKQHv9O7bqOC26/77MZIAwjEoQadQxZJ26s4Kciun4jg3qkjU7kUVWWbOlqrJWaFgs9VPZqv4hEI9+hME25nFcyjYO6VblTpuJXVn8XVoqA55KdOq0jfcmSxpbaaOT2i2cIUqFknsvGCqqPWqXwwBu0f5ZRcfUA2+GK9bIVuBdHcKEGjaO7YERScgUGjabG4760QDlKX4IpcGZ7ZK7qxQZani9YkRiS1plQFVWSjYkar+zqDt2Jt5NaOuZ7TcV1YHMJp5xJbxtKxB24VlZXzEJ7iZtQesk3ugDr8fbf5Nawzj3cRu+PKi8Xb+1rqUcCsfy7dqj8D45Hq03dCzuymRYP7Rj6HCeKd99UZ7M14f/l+fn8fDYb59r//31219NV/V5eEv);lineShape=1;strokeColor=default;" vertex="1" parent="1">
          <mxGeometry x="103.4373388577319" y="-1028.864443641568" width="16.916238718220892" height="2.1527774246958966" as="geometry" />
        </mxCell>
        <mxCell id="opCMUjGsSkM5_SPHou3j-42" value="" style="shape=stencil(lVfZctswDPwavWJAgudzmv5HZuLUnrp2xnF6/H2haqiIkLSdvMkyVsSxWICDPLwdn14Pg+e3++36/fDr9Hw/DvJl8P50OR5up7s+DfI4yMPL9Xb4dru+X56n369Po+X49OP6c/zC7wnnHLkyojz/md4wZffvxdfJ/ny6LOx9JF87+0TB79sHIZHO3gnltA9Iof3dAN5RyvuAIsS+B2TywKWqHnMHEKbC+wDHTNwjgqNSwBGOch91yCRhH5ArBdcBYqQMThjT1LuUCrGAQviWxQaouZV+G+Ao9DHUQhGkSSqlnhpVowKllkxJLKAiQGzfWwJAWkUaOZcuoRhcY/8i6AD6QakTvU0rgxj8HOIMiBTxCc64JFRRDNxyMgM8jsGTGJdUFSoABPKmcEwCuCSJJFoARwCYqbYAeAAIvKIGQ2poP7CzWUKFUyUzIqB1QP2wlj6tNIO0qkvVZClRwi1aV2yFJ2iZVv0AK12abC0ABRUu2XmyUM89MnG2RySgZEpXy74CtXKUd5PXTBHJBq9cSsQAMDZ1H3UNTT13ZcNopYcT5dOAqGO2L3XSpgaV0/mxnlkexFCqpatOgAJ0JhdyZvCm1iLbMdQ20haTOoPRrt8zI8hrE6LRnqn0WXJ4nxFLJTcPgG1mkBgmtSxv+0O+z1BpAW2aazv34WYKgBOrNUabFSgeN87PhIBr0moSYnl0dgvTVKHFk1LvjGtStq105Pq8q3eoW1ovfZg7UKZsaYYlTncOa+5RZj65k//fXh8+LgAvp/N5uj8s/7cXBn01XTbk8S8=);lineShape=1;strokeColor=default;" vertex="1" parent="1">
          <mxGeometry x="115.10884900563133" y="-1032.4449942526385" width="6.353024386107948" height="8.54021911293918" as="geometry" />
        </mxCell>
        <mxCell id="opCMUjGsSkM5_SPHou3j-43" value="" style="shape=stencil(lVbLctswDPwaXTEEwOc5Tf8jM3FqT10747ht8veFqsgVoWg7ucn0LkFg8Rr07mX/8LwbJLxcL+fvu9+Hx+t+0C+DyOG0310OV/sa9H7Qu6fzZfftcv55epx+Pz+MyPHrx/nXeMPrxGuRMo8sCW/TSaZU/h58nfDHw2mBz4lq6/AsxHWbkJRSb0AiSdwmRKUmHcFOQtomaKYcehfsCt4mCFPtCa1QDIAQKMeeUEnzNoErxdwTGjEIKydKwRMKiJJFPZRehxAoACcqJfEWGrCQSNTjE5BBKK1i9J4qH+LD7N8CH4BqN+8WomF87POuZRgfpub8TRRAYsc5ZW74SAriWebo3fBKFaUEU8ieUAQQ4ly5SwtAAS6U28oF8CSLKYuPEYMnWVBTXYmAkojnnFyqDCrNCLxOI1SajaR5wrvyHxOsIa5qOYHEYJ3727LSgNNtJYPhgW6ZpHp8AZWgpMnjGXlMIj5CClReZ0WZLW7h3XsyKXjPZ/FWCK512UBQ1N/Z95YoMK81+Klp7Y+Bhdgo9jHKMCVqmK+b8WYRuFyFSnN4AQ7URCU5PGqmtfqRiYdNYyrZvwfhrZsW7y/CZypu/MEtxDLYbSHWaND9bSUwLLHF8J0JCpvEaKAXwCKAeoQ50Ats8xm0agtQLQ6Pespn98D/4+3j39L5dDgep511+b9fUu1oWnD1/g8=);lineShape=1;strokeColor=default;" vertex="1" parent="1">
          <mxGeometry x="130.60145562851483" y="-1031.695173532646" width="3.3378413541382104" height="11.639735912587703" as="geometry" />
        </mxCell>
        <mxCell id="opCMUjGsSkM5_SPHou3j-44" value="" style="shape=stencil(7VpJchw3EHzNXBFAYT/L8j8UIcpkmCYVFOXl90543M3uxHRO8MbD3Ciqkl2oNauAU/z04/7L97uT+R+vL8+/3/318PX1/hR/OZk9PN3fvTy84qdT/HyKn749v9z99vL88+nr+d/fvwzJ8dMfz3+Ov/D3GddciQNk/p/zL0Jzrf/3m1/P8o8PTxv54J3VPcBcqgIQXdwDiktJyDeX2k7eXLVjeUuuhp28d6Udy0dbPv8m7/2xfAou8t/vQj7jzxnp34V9cnWxkX1aOJYvwYXCDujCoLkt9lgBXWqUukv7Ext0LMKkxdn+yDG6LILIguv7M8TmYjwGdJaHV5JwQmSfJQSRsJG5nPfyUQapOR8neRF0wWVj+aiyzPlJnyDkEfKJz9uEPt5FY3mlv3fBs7wXQbqm1MZfWcsby6ukhD77mpK8y1I+RZb3IqK9q30fn90V6S+LLJ9E0QpLSdvIm9CncNGFvMoXlITq36MQTpw7W6iIIoHG4SnFdArExEUiNReyADQu7LksaXRUqT11muKCBuT9F2qWvQaAsv9Ci7L2wiakUquysAxAYEAXkTESfZ/6DQ1UmDVNtQ4AVSsAoGRrCFZ1hsCOAyCJ7AHAPAOK8oPnljYASqWpYACgYgnpUieVTJxhJKRns3Yd3r0zIIucBqBNX/BXEmifcYgl9QUEn1EspaWRXgZMKtWmuUjhRlJgaFFminHnz9pxpTJ5ASFThy6gR9SrkoxWfCFScwYjFAkEAHd/LykzAC0wQLVbnMH2gKjzoUyccMSvUqlzio6OpczaF8K1BYgzVAwWs0rC0wDUwoAs8qGCOU9fUFS+Tv0BflBtt059HYCmAW0iSsoP4wuZAeoMiCXyQ6rSD+iZxJVyktwTACLbRZNnqESerrZMoYexRGUGjlNmNQ4N9OkoVKqYuagp2lKeLwLa5DioVIVZUXrD3qw1LnXk8shjPOeVLEOjJw4NTH6KFPfM0ZqjnJIA4GIcF2J6GVB4zsigKxrAZwBdEfSnI5YmgLQS8qFNAGWlduEMahoGoE0AVZf6yv23VtKAMjnONKBVBiiiG/w0waEKqHp/GaFa+wWlsqRYMKzfMyZwgaKOXRYGtqZQlX0UAU4q1TVtDzNin9WtSE6GQ1MZgJKKfffO4YcIzhpAsyLsJs3a2XFdM9e+8tQVoPk9NO6BATLAK/OZTXgduTp1/kS/4urEgKIBcTp10IDZror2oYA3OkPVGZR5WARArTXGGfaVpq/d/tBK+2o5Il6nXE4MkDk6FXAA1O5wBNMEqFfCtfKh1VpgJIQxQO1CRso19oOiGyOpyXF6lHsLtQ1AturGlKnrjREAXJj6QqKO/JCmBFJj0Ojt0xfUHroX3oIOlXS00tVB10P7SKA2mVVTpncCAicQGoSsGtPypBZ9aOPd72DwSqXIoZGvLN9vPPHGEz8aT1SFpvG+BTxR3WmOFkVXcFUumbpflumbJPVCpbaO0JuBVFEm8M4Li2O1GPBcjlFo1A61zNQ1yADHVE8DKSZYVcqKcR8diwGlUuCVKMIvqS+st2jrciPrXcVtd/c/4La7+/i7u2o8aCG8vS4CfWopV5Z9NCwiB9VFZ56oLpRUrT2H6aomyAnidmW2AG5XZgz4eFdmsS41YgUkmaIA0IOrmiU5AYAu5cYSSzgu5mW63fJ7BQh894+kVY6zsuyV17qk593x4IguIZJc4AdjKyHLVU7fHvDcHvDs5T/WAx7jhc8oTUK+TQ/kqn5R5/llSky6Wie2qPWlLV7uB4Upm+mUxFhHKoWqHwdMM3qIMijGHEgAL+fbNG32qn4gtD71XCujvLOLxovupJ8dFu7iWXYbm95+FukCGJzm1CYJZ0hLUG48oLa3+G/b59moBBpAC7S3l2dHnYBI86it6szGpREA+eB44vEW5FUuANSRAVB7GERlKe8EhHep1LmDXzlzX17ebY0qFGrMcobX1L6DF08jLIQ+bVnerXGH8ivL4/terV+Xxw9vT+S/PTw+nl/Yb/+fn9TjV+fn+PHzvw==);lineShape=1;strokeColor=default;" vertex="1" parent="1">
          <mxGeometry x="130.80222522972497" y="-1036.269658191531" width="18.481676398595607" height="18.56342824547404" as="geometry" />
        </mxCell>
        <mxCell id="opCMUjGsSkM5_SPHou3j-45" value="" style="shape=stencil(lVbZctswDPwavWJAgudzmv5HZuLUmrp2xnF6/H2hqhyLkLWJ32h5l7gWBAZ5eNs/ve4Gz2+X8+n77tf4fNkP8mXwfjzud+fxoqdBHgd5eDmdd9/Op/fj8/z79WlCTqcfp5/TDb9nnmMm5onm+c//T1Tivw9fZ8JhPC4ItZL4Hs9UMyCEdl8j+EDstwmlUOktBLUQtgm5kCsdIVZybpuQHKU+5pwopG2CLzZJtVAGWfKJvPSESh7E4IU8W0KSbYKrNyxUBoRAuScsan+bweTyygTwKREHi8+gDr7lcIEXkCSmlG0VCpDeStqKF1A1tsKrmQqIV4jF4gX4oyJb3c8gP1qAZAiJCqpYJFctAelUVZTSygIIQWOO0cbgcCeEbAkR95pbVY2RhUJ+JYtYoEt1pWtGhECy6rWIhM2tdxeEAt48p+9FsoQKXHJu1QuYkFtnLT0CUhL7Wig+AGE48m6VU9A72psmYC0ayBCTFItHj9e9eJE2MhYzwQFCqDbiqK9R3SboUJJe2DrXChpTgVJvQauCnvikIfbt/8FsTplCbwEPf8UXY6BdcBuvOeqroP6AFGXX2uqKT0AUOVCIBi8In9v8uuLRolAc5WDwSEQl2q78AK89Ve/wp3qq6Y54a2x6+Vw+tUeczQ+q1/QMmp0C6uHubfMTBD1cl9uX8XCYd+Pl/3YZ1k/zIi2PfwE=);lineShape=1;strokeColor=default;" vertex="1" parent="1">
          <mxGeometry x="151.4310795826034" y="-1035.127226169196" width="2.492208312636931" height="21.750893920045968" as="geometry" />
        </mxCell>
        <mxCell id="opCMUjGsSkM5_SPHou3j-46" value="" style="shape=stencil(7VpJchw3EHzNXBHYl7Ms/0MRoswJ06SCorffO9tjNBuJRtK62RG8DZuVjQKqKmtBX8KHb/efvt5dvP328vz0893v188v95fww8X76+P93fP1Bb8u4eMlfPjy9Hz30/PTr4+fb39//bRJbr9+efpte8MfN5wzNm0gb//854Ezrv795Meb/MP18SCfTG2DfDYurMWdNc0N8t5Y8XqXjI+DvDU2Cvlmimd5u5b30fhR3pkq3u+rSZb2G9taPnjW30WTFSCYTAeUNQAr5AEQmqlqy6W/rwOSM0EBrMl1BLT+5NwIwbhx0zl2tzoFYIeW5VsWGnUf2+VDN8u5QiaRPs4UtYHp/XiDX8tbUzLLq/1aE0keT4T+1vgwGcApeUsWrj0sVvKjPqnI87F8PimbKuwF/RvLq6i0Jo0klEAD8jwrOSiCTMg7DhnIq/e7KQBiP7GVfzqWd2K/zaRRn9ikP7hsShkBVUYkaK41BkSxY9CQn1ZQKsU9TRwBwkdfFdgBxaSyBuAMKYojrCysAKcnt4hW05Bju4XY6ft8hWbseErID06plLsf7CsU48WxwvH5WIupIpQBqMRdoG+RkRHqdTzW4nr4LU9pNFzJMhoyUuSoUgn9FacA/NtO+SCLUyrI+kRIoGQBqHt+2e0Ay4gsW4tpox2QtFRKqI1z4CsrrABx3DRoJ4pjrdOmwYMqazbLzrdldmEHAGJjgHKNNhHxWyu4zrv/dg+uc8TxlPQKdbaD4mIUpJ4BVfASAI4AwRRh6RMAqE2w94lKyUThfCeb1u6NFShEwXyqDgagjirFpA0Xe51/qEkU87XEOa7YruQ5oHLrAlpIwg7OWuaZqlNQa8aPm2i6kGmZK6vDoquoJv7Goipp1cl0OOoqtp0bV58V9b8G2NGbKqJauF9GtRnZElmcKwDUAJTaS6IlgFJKkdUGAOSvSFpBODg27cZTKknScW7cuJUoi2K4M9EAAKqqByBHBhQREWWqZ7AHr1ZwTPhF+zcAbOnSuWoFIPcuumI6WaH1bmIFoA4d3qrcezul0Q7VyUxd9px2ACSl0tQvAaD6sc2XJpWiyBCbtxbedFWAynYAwOoA4oirpqkAmmMaTaU4pRPWyLKp2XiJVEpvHSu1HAAobwWgTRGn6pktRZXvBLSJZmQAnQJUXRm4xNqSnMqj0/QA5YSauSHJNfLW1qvlVWqn5hJJTM0btmqD7ODl2K1Np5T2vLqsvqnfzTKmAaDaARVTEznuvSF4bwj+Rw0BcuZo6WBlngap0EwtWt1RO67vU5IxDSalKVnZlTxn78LujdKhqcmGnQpd32lhNZKisRqUVEkxeRNG985OxkOCM9PQK0sSwAqJZli+z81WAyPK03BvlUXBpDSd3S5dVJ4OPL5GPKgyNEeuBOB8Xq+QqH2tWqXdNw/tq+p3tzkceauVCWUbyI4hmoIksm2ASkNy+JJYIYR+a3MIICu8FRzBY/4keyCXe7gcAFXNyS03TdvFgAogE+hUq7y7er/Ieb/IGe3737rICX2kdTh/ORrvWftg36D0R/6YDKyqHTeNMUBDaorm9wnBIeF4BahcWgQ9RPOtU8KeDqr8BgCAMHopdtVE4t/uk8cVXNRfAQSeoYHJFJVCAR4BdE88l0+mUSnSH6zsTIHZest0XhtxXe50hkWGpxRe5X0J3M6zBeRnGJ1FDvLqxsf14d3x/ZJX6DbGVXnJZXk2B3kr5QPJF2nfqZFC6gxSnppHt2fClTzpEyVPTLwOf9Dvp7LU6f7a9ovXXX4f0y3s+31fFb0tjx+vnzB9uT483L6AOv6fP3nCo9vnUuHjXw==);lineShape=1;strokeColor=default;" vertex="1" parent="1">
          <mxGeometry x="154.42478083653702" y="-1029.513268045634" width="24.834644824699637" height="11.281164650537809" as="geometry" />
        </mxCell>
        <mxCell id="opCMUjGsSkM5_SPHou3j-47" value="" style="shape=stencil(7VnLbttADPwaX4ld7pPnNP2PAHEao2kcOOnr70vVWUfLlcYNUKA9+OYoMxKfQ2q1CVfP9zdP2w2755fD/vP2++725X4TPmyYd4/328PuRX9twvUmXN3tD9tPh/3Xx9vj3083E3L69WX/bbrDjyPPR3J+YrH7+XqFyZffVz4eCQ+7xznBUXEdIZMD+EIhd/BIySO4qx08UHXr8EwiBu4SurvvnWUK4O6FIvexoQzh0t/dNesW4ZVSNPAE7i7EYuBn8uSdwTtwe8WLNceBRHlPxeIZ4Zlise4i+zWTYoL/Whpr+JQMvpyxP/R4dQAH1PWVPNUmIFRrUPRUAyzOPqBJKMd1fKLal1uJVCGe+4KoDO3PlPtWrLE9cQVv/K2JIvA3t3Cf8BlWXGrezfBISpJtGMUL6IBI2divGcnr+ECSLZ5BhYbBX8WDfHETmxneAXu49ffM3wLi75vczPAM9Mrb+tT8FiC2Kihs8R7466gO9YbyG9rcOeG1gYE9am2frxKwAmnD9w5nLWgkodFKSqoUUcZ01PYuJ6YEUhaCHb6xtqpdrmmh0DdBLE1Xl5syN9WcEQpSObZpS54CSLMMfaY6h/pehKRPdBZcqM4NrXBmtqoTfZiktkivEWKfarUSrRKi40YsoaAw6bhjSxCQCDnN3z8kVKEY32NSrW0XmxFQIpQQkg1rxgRvwqpLFdDUiVAtAYmAEqIhZKgCGiVTS4LHlBJMj0qCc1wTF8USInBaS4MHQgI6o9XqgiWg0a+EzNbpgExiu4hrHl7rd5kQyLMloGmy8ITaNspVH4Z+8EhneKHjMvLBt3k/7zhEcLb4ZlK1Vkx5kA205C2Uq8AZVKvdyzWuaE2aWm4gMPB6sanj+2QjN/X8OwQtf9MQOiDQaFeCeULR9QaVq6fYEzK3K8s++Db5T2NRFxbQcjqp47A8oIbQXcAsrDqpK4hSSE0ZT4QAR/u0ohsfMtxnvNgezR7u0D41dT8RSnuNXnvNM4O6JFh8l7eey1vP//zWM662OkmhPUaHSoTLhbfx1+08AHu4RWN2yoHur/XT96NeCSBfqT395C/cIC/HjasD5nLc+C+PG7Pt24D9FfseLpSQTA3D3ePTEB5ON95SsvoEc2Dq4Xo8DXcTIsYnrGJPKJWATkx9teuDpgWuD2XwIeCwFvt+qQT0jqx5joNJcB7py2EZTAKJ89GK0OQ0ykO0K5BnOMLe/03oPEF/vH2Cuts9PBy/YM3/bz9Z6aXj565w/Qs=);lineShape=1;strokeColor=default;" vertex="1" parent="1">
          <mxGeometry x="182.86026516999846" y="-1033.6662518902021" width="14.126617867224672" height="15.63213118290315" as="geometry" />
        </mxCell>
        <mxCell id="opCMUjGsSkM5_SPHou3j-48" value="" style="shape=stencil(7VjJbhsxDP0aXwlK1HpO0/8IEKc26saB43T5+1I1NB1xZh6aY4vevPBJIt/jIu3k7vXw8LLfeX69Xs6f99+Oj9fDTj7svD8+H/aX41U/7eR+J3dP58v+0+X89vx4+/7y0Czbpy/nr22F7zecZ4rSUJ5/3H4RR4F//fLxBjgdn2cAl4jdAAiBUgAAR9UPgOSo+G1AoVQH+1wou237RDEN9tVRzsieebTPFMD6kYqxL+QE2Qex9ug8gaqxryTgPKH/O7PPgDGh5K19BYR5qqO/jrmHbAPgit2gFKAIigsHYt22ZysgtXcR2YdkCYjgPNxXmwmiAgJ4RUAOrs+G4EQBZYxdv0yS2iC45DFhHDmwvkY7DPbRk6CUV/dGAkRgBqtE83gipwwgiQrJKCHdEigiaE0xG0AGotiQYkWnSH6kzMMSlLOloHQNrpe42ivOdP5phXXKEhVTprmzuM4ZL1SqdRpx0JJqBMRCHsnIkTekVfIgLytbWWRciRTA4w6FYeZoXH2ygASEUYologHQDtlWUwUIAiQrVXU6A20rIHoLYBBWBYgBKHFArQoII9OqX8E75LFC5qnpbkVJRrnm2Iv4Fg+cLSAiH0ov0TOA4JSzPmhVBTyo+CJbAGprmg8mgVqUUMY526iUB493iCZKBVd6t2Ba44Z24DW1gt6jAMN0ywfgdFl0n5ZxYIeymAcbACXQshhr1QDFVQEuWacrTtEULACNbC1Fk+UBSaMBjFozjpIeyeSDtgx8pPcBaiAey0zMvSmtA+LiphC7ftcBOoaMxOlc4HCUTMbpHFBAEdAMzma2FdiykjptiIOjoQ4ahjetSmiQCZaFCEkQvaqM6zuGdVKHvTBmTxun0fTvbUwlQpdd6LPg5ILAWl+tC9ljDhbpnGCF+Svud+D8/+93//z9zht/uVOyQbA33UZ7AahyqQ+k04MLw0lHS4gZIINed0AGa8obhjWp0fDVasR4pPbKAyh20R5JAWgIVkA1O2QoCrfo4R4PX3pDk2oBSKZ65zVjRdsBVdLS02oGQNdIV+3jnQJQZjapJhtWJFU/3bdmTDvUb7hLcwZALdmzHe8Ez4PvfrH8A4B++P1A+nQ8nW7vq/P/7YOq/nR7jJX7nw==);lineShape=1;strokeColor=default;" vertex="1" parent="1">
          <mxGeometry x="211.12609598730342" y="-1034.6614820059317" width="13.645103128904747" height="13.415923291666191" as="geometry" />
        </mxCell>
        <mxCell id="opCMUjGsSkM5_SPHou3j-49" value="" style="shape=stencil(lVbLbhsxDPyavRJ6Uzyn6X8EiF0v6tqB4zTJ34fbxaIm7R0jt7XMkUjOcKQhP7zunl42Qwqv59Px9+Z9fD7vhvxjSGk87Dan8axfQ34c8sP2eNr8Oh3fDs/z75enKXL6+nP8O+3wMeMyZZ5AKXzOC62TxH8rP+f4/Xi4iI9MSSwgUeR1QM4eUBWQ1gE1LH8vgNxI6jqgNWrdALSqkNcB0ihGAwiwBGGK4uNBQtIp2QoiVZSPULD7F4oNxnMw8UwM8o8hULCAGEk6PEGKBTTKqGShWi0HgQqquVN3gAyLUBLENjU1CiilRr1ZAC9tuA2oxN2fUNEJhdjypsQxKrp4HlQZXAAgU7En6Px1RJzOs5V2zFSRlvQEW7RQwhmJG+fFQVZ7ZA0mYSEpCVYXYWnBKsvZxUOStX9+lgW40aRT50b3ZrPafBrO/3rSAlVAwK1hLtCyJ7twmhCK2I+cPyppjIpWw3PDXPH0s3dIbVNHsvsuQK+xaLtUBE5OjdTcTViWqm5fbIWKZa4HaPNRu2QNSSJsqx5gS5jEAuJ1lO3+F1q5CUjetCfmkfa8kJSWAoYnUnDxBd7kOursG9SBuVy9FHqnDBp0NTm9UAP5B68hZbjD/YvNh5ky3F9s/7ksL42VfjarONYV0M/kBdEE5v/dx+D9eP34//Lcjvv9/HC9/N+/VHVpfuXmxy8=);lineShape=1;strokeColor=default;" vertex="1" parent="1">
          <mxGeometry x="215.17042914127637" y="-1031.4487393903114" width="10.705104412229424" height="2.6551759416499157" as="geometry" />
        </mxCell>
        <mxCell id="opCMUjGsSkM5_SPHou3j-50" value="" style="shape=stencil(rVfZbhsxDPyafSUkUhef0/Q/AsSpjbpx4Dg9/r50t/JadHaCAn1be4crcoaXJrl73T68bCYOr6fj4evmx+7xtJ3k08S8e95ujruTPU1yP8nd0+G4+XI8vD0/zr9fHs7I89O3w/fzF37OdrEQl7MVh1/zP4ly+PPH5xm/3z1f4c+v04CPlVJcN5BGPBoIU5F1g8ykdfRISXTdoCQqOhiUQgpiKEp1PKExBXRCoxoHAxUKFcQQqTqWQqAAfJJ441MhATSxvQ6DQY3ESLlKbfQpJ2JwgmTSkVeplDOIOlAZT2CmCk5orb/uBoG0reM1UKoOLwngmTI7fGCAt0wqHg8C1kLF+5NAvNq6u5e0oIjwSmlUwPK0rOOvkuwiGUVEkFIbCUq9WtcCcLWZiRFBljCjwAXWjWZPqDEMmouVYS4O35DAkVLy3wf+NPUJVCgifKMQHT+odbXa9Vz4T6CGrSfU5vQVhK8UfQIx4Mf8/yvnkqAMEs74aSM+dMLW+Hf5FmDjNX31piBBvFaQwTcURvlmPdHjG8Jrl3/hBzU4w2t0/Ff8fRevfOSP+PpV3ICCr9/2H/HFwhv9MQMFDcVGexkN5BLS+wbs9w+bYhmkaIr+BBv/qOZT7T3/ajso4ARzQEeXLM0VGRS/HTQhBm3O1ommPgZkkIJfumyrSkAHk8kPjgx3KPUeWeVEoJsNxpFU2xoh3LlTYF80uAuXBAgQ/NRIJGCKRZ9yAqc839Y8Sh/bOYKDw120r+dXHQgI2yhHB0fLdwx+4MU+cd7Hc9dl8R4NyJi8Uoy/n7syC/cZff8frzMf4+1huTs97fb7+ep1/d7fteyv+Z4m978B);lineShape=1;strokeColor=default;" vertex="1" parent="1">
          <mxGeometry x="230.9812942083795" y="-1031.232343569247" width="5.592106521448841" height="10.83982854718372" as="geometry" />
        </mxCell>
        <mxCell id="opCMUjGsSkM5_SPHou3j-51" value="" style="shape=stencil(lVfLctswDPwaXTEkwOc5Tf8jM3FqTV074zht8/eBqqEjQtamuckyV+RiFw8Ocveyf3jeDexeLufTz92f8fGyH+TbwDwe97vzeNGnQe4HuXs6nXc/zqfX4+P8+/lhWjk9/Tr9nr7wd8alRFImFLu3+Y1nKv7fm+8z4DAeF4BQKcUe4EhkGyCRgusBkVzeBrCQ64/ElSIAeCHuAVGPBDjoiWN/pOyoRACIlLgDFGWVAIdMnDpA9RQrCGugKP0OGmgQ1hQaxSvAU3XbAP1eMFHKJOBIpVDuScdIBeiggNiTjoEYcFBArT2AW6C3OFTDwRMDgEY9GA6OPOBQpf3dAGp4JFxVM8sKAEjXRGV1JAeEq4UkWEAF5quqdLBhZcDBu+sJrgiBUusWtQ+TeiMiIeqKRIZVQFl7I7XGAQGSzdFYiREgrITQlENScwv7AhCREGrOYDlU7O+yilL5JIP6KhBTK7ebOdqXb83RXHAVMDpoigTIIRkv+dYybkfJtbq18HdAwnFrB4uUyyjlAgVvAQEpnaxw0w4IkFu6LDjAslHJi40S6rtfBqRim5wGGlkjaAb3SuueDijN3DrUxyiAS1my5lOzMNhhVZa0TztgJR0EjM5aFNDkECxAPxHAgcQ1o11VgM6LK29/EqBiuzrD0SdpsiWzHhWYac7pNZYmye316rG+Q4fWUG+vV0uYAtamjtvrV7MeFkzX+/48GfNdlWxNI8SXV8OqjpJAMA2QsbT3GKBJaABMDlQKldhMJB4PSSm3UrUc6UGb+vId4D8A+vBx5XgaD4f5xrL8315R9NV8vZH7dw==);lineShape=1;strokeColor=default;" vertex="1" parent="1">
          <mxGeometry x="239.1677982208372" y="-1030.5007311227475" width="6.970525058073251" height="7.857901961694771" as="geometry" />
        </mxCell>
        <mxCell id="opCMUjGsSkM5_SPHou3j-52" value="" style="shape=stencil(7VnJjhw3DP2avhKSqI1nx/kPAx5nGpnMGOOJl78PKw21S09dL/DNRubWC1+JO59YJ33z6f7dx7tTCp9enp/+vPtyfv9yf9LfTimdH+/vns8v/umkb0/65sPT890fz09/P76/fP/4bpPcPv319Hl7wtcLLiWJcUOl8O3yS5Fk//7w+0X+4fy4k49NSp7km9RM5LOUOslHlVoIIEkOE8A1CoEAgrRZoxxE4zHARPtscZVCTF4sriatHssXyTZ7qI8n3JTP0mf5HiUok6+LPNM/i84R6EkCkVexhPKZyquhfOvH8kl6RHkj9iZJiz7GUm4k5E6+k3yIEgPKs3iFkb87+Ugy2rMRnu8akvwJEjrKR6J/GOVxlQ9SuPycD81GxA/i22Z9WpBE7O3S21wvURqJr7eIrnNBesoShbaIzRmXvcKIRl7CBoBCXap5aHwF+C+kCXnL6bOTchNtBFAwq4vyKq7SwK1eBsRoB9TZhqa0VTugLIXZ2Qm2ZLY/ghhd3OvQiuJIlpuA6j4JaIORwLU4MufqpTLK+zagSYQ4dDo92jo+PJQcsKZ3I5H28tWGANaAHWALgBXQ94GxBxAbPBFSWFQiubSNgLIYzVRSSYpujRyANhSpHIBxqMOqIwAMQgewQbKdMKd3aZJJ5+uKo8STL3AbNCKAzaoesZF5PSgZzs5VoFW2a3s+KqAE45a3SgeU2a2mlOBt6T17ySr1kv/d5mw1b88M4GEqCGCt0voo+R2AGe0AA0CkRptJ7ggozAbD5LM0xuQBb16Ig3Fi5UcYAJRbbUj+LQ+yeAQIEQGMG7pfdc5v825MJoqHujQEsILwZOppOYGpVAcb3NnAxqg/DwirAxJTyTXOGAc2dzeNIZk4JXZAXpIpEM7qgL6ka+Y1miEOgUe6IenbapRH2uoCYHHoeLGyK6s7ylZdilqZDdeL4w7AONxWcUvgKlcJjdbR244AaHSWyNxqS+vLg5keuXWtuMhs+FGAz6w227DrbbcRiszV3WRsB5AGt7hOOaXp2jLmhp9ZGKAiPXHya8Svr0T0lYj+QkR02ZrUSBeNXkBANqqTLjKCasXkc6bJstU1RuZa6SLH77s4qOPY3d0G5NG3dhOFqZTjsttL9ILsgALLGR3X/iMAzF1vM4wb54Be2talJFs1453d/cZoZTJcgG6OJiekPPZPV5WcnbCNYEcy7fXAVljRbySQrZmXKB7gA4Md8D/c+S7Pf9357uV/rp1vxK1Ya9Q/ivpUk0jfeVQgCnVE/HavxoGmRuPb8FroJwZGg7G+otcj6bsxYxtNtItGQ/4Y6PRLAVtcoPr434bPZwQ4LXMj0P6wFWQEeWUb94V2Xd/S3ZZXvN1F2j9dPqM8u2MnxWV4ovWyyc/+VHoFSYobJKVbs+1x8/MzvS67ulAwmdbvj77W/W95//D9HfKH88PD5RX0/n985+w/Xd5X69t/AA==);lineShape=1;strokeColor=default;" vertex="1" parent="1">
          <mxGeometry x="248.73072396613213" y="-1037.2473360417416" width="16.329758752426486" height="16.2701928971522" as="geometry" />
        </mxCell>
        <mxCell id="opCMUjGsSkM5_SPHou3j-53" value="" style="shape=stencil(lVfLctswDPwaXTEkQfBxTtP/yEycWlPXzjhOH39fsBoqBm3tNDeZwoqLBRakJ3542z+97qbg3i7n0/fdr/n5sp/4yxTCfNzvzvNFnyZ+nPjh5XTefTuf3o/Py+/XpxbZnn6cfrYv/F5wwZNIQwX3Z1nxTFz+rXxdAIf5eAXgTJINgMnxdnxylKPdgGrdji9KKNl4RxUQqpmKs4Q8BHjnyFlECuQRp0TJiqQr4kDSnto7k8S66X1ZuTPoiJqoJJA2ZTbxOVEF8Tc5+0ApoPhsy1woxu1w/Vgx4ZEyYCMkgz6QfCXnTbgjBmQ0tYG8Zg8+7xPFkY5H8XXsUSbxQBxPxaqT+sL9eG0GW9zmAdA9DWAT9tJX7gPCTTtUCsDG+jrblFvJBWqaBoCQQ7bUOWIHhaoUQA61v72Kd8DFQtmaWHtUQAaByhCvZQQSOSpDDQoFUDQ3NrWPXYGNeLZNVPvgu68nVdtDQhX0aKRo5496CFTrZuiuY/4+Gd8NcuVIRF4oxCE+oe8XkpF+Qoa5GdDS23XLLyUO4kPHMwXLR9s7o2b7NCCN7SAZSio6I2wJsiYF/JKlH+zrDjqHgSGzo2h34EQZUIp5VLX1FSiDnpJiAXod8ehYdaOJucDrjRKoZQQglT6m2hUgodYIxGHMQfBpMwwWFuhNv4q4Apgiclu6KZzrQm/ZM9kcVDcGraGAwf86cOBpkMZubfMVqbQSWA2UYeHagTcc+kKMHPfZq/J/APTh42b+Mh8Oy8X++v14k9el5V8AP/4F);lineShape=1;strokeColor=default;" vertex="1" parent="1">
          <mxGeometry x="260.53229250379263" y="-1035.055979082505" width="4.57731207330653" height="4.046916055642512" as="geometry" />
        </mxCell>
        <mxCell id="opCMUjGsSkM5_SPHou3j-54" value="" style="shape=stencil(lVbLbttADPwaXQkuuc9zmv5HgDi1UdcOHKePvy9VQY6WsqbtTZY5K5LDGe6gD2/7p9fdIPx2vZy/7n4cnq/7QT8NIofTfnc5XO1p0MdBH17Ol92Xy/n99Dz9fn0aI8enb+fv4wk/J1xgJuYRJvxreiVU8p8XnyfA8XBaAFqmmrr4wKRlG1Abaes/EKiFbUAplGoH0EylbQNyoJA7QIokdRsQE+U+pcIUQQ2qFGMHqEoFAIQpaQdolTIoOlQqDtBIFAAycfWADLoUhGr2gJYA0xTDKh7RQNx8PKJNSZKPV8CasVx9SytvxzOF4OODwHjHQKEIzg8krp82puB8nWWyiA+g/5mkn7mWqEC+nGwsPgElByUWD8ioYMtoBaiIMSNIfckKShhl0zygIZ0FUkdyoYyF2VZToUg2JoOVMDkCQJn/XgD+wkNbKbmilHg+78OCby5+31K9QY5fQAY5C2VZAqp5NsNlj4Db8TwFSxLAXKx21MgyyIdX+dgYATO9G4/q1dmpbvtAZhLvj10i7Tuaza1BRtFa1I9duu2gu4CUfY/0tiHu20v24hzFBPyryGpO4T4oiWLPssCLQrF8+4QCvInYPUGaixckguZVwNCva/A7nOGQ1ugXmm0UkE8tfqFhETc7Lvp4tA+ML1+vgAkyM48+nwT4Mg2m6PrPoJ+jJ3h+E8rfPKpXpcwN2LDF/7zK/gPAHj5uzi+H43G6eC//9zdtezXd0vXxNw==);lineShape=1;strokeColor=default;" vertex="1" parent="1">
          <mxGeometry x="271.7994391885154" y="-1037.917010499441" width="3.530505012616639" height="16.925849792791944" as="geometry" />
        </mxCell>
        <mxCell id="opCMUjGsSkM5_SPHou3j-55" value="" style="shape=stencil(rVZdb9swDPw1fiVEUZ/PXfs/CjRdjGZJkabd+u9Lz1BqyvUVA/bmKHcSyTtSGuTmZX//vBu8e7mcT0+73+PDZT/Ij8H78bjfnceLfg1yO8jN4+m8+3k+vR4f5t/P9xNy+vp1ept2+DPzhEKcSN69zwspU5a/K3cz/jAeF3jvKCZDiEKStglS236NMK3kbUKslJwh+ESxbhNqJK6G4EgCwCcKucO7AvBaERsQk0f4QtmWSKiAktZKMRh8bqJs4avVjLmduEmwAXEi+SYie4KWKKGQNOViCYE80iz3rlCRC3CFihY7VxRiB10x/bckZHxCILcKyaMThFxXJSGPdPAk1qhcYe8ogdkSAlWGBG+txNoLKGnfC6c5I2dI88E1Z6qoRqHf31FGRkrkQod3aP9M4vr9PTRq6ESmgmaFCuS7+jDuzZJ6AdCwYHdNcKFxQRqvBqq6yCONKzk779SnjJrz2lmLToBZJ6rrXvufhMTENumonQCMGrgXOpV25tcXm6dklSt6N4LmjJRsVaepCXQLFC1+If3XNyeFsjoAeNVTsK0z6QhqyhRthXRkogppZ9nppcOjAt+55sprQWvLaAPfNUKJ8NJZ47ld1FvxWIFzbs26la+NPwc4rbm/oTK3eb+llx3uqRIDff/1qfY9Xj8+34WP4+EwPyuX//fvSF2a36By+wE=);lineShape=1;strokeColor=default;" vertex="1" parent="1">
          <mxGeometry x="268.9551376866161" y="-1032.766614171412" width="9.303090880824067" height="2.6075263986646453" as="geometry" />
        </mxCell>
        <mxCell id="opCMUjGsSkM5_SPHou3j-56" value="" style="shape=stencil(lZfdctpADIWfhlvN/mpX12n6HpkJKUwpZAj9e/vKZZYiGZ/CnTH+vCvpSHu8yk8fm5f39SqFj9Px8HX9c/t62qzyp1VK2/1mfdye9GqVn1f56e1wXH85Hr7vX8+/31+mJ6erb4cf0xt+nbko1NtEpfD7fIcrify98/kM7Lb7KyBXamyAyhR5GaiBWjRAqTT9XAI4Us0GyJmkAkCILZASlbIMtEixGyDmEdXtFRJFMYBQDiDmSFzsAolyBlltJLYMSV8Rl4FUqNsdZS1DWwZioZps3QqFvgx0EhtCSxTQApmyBXoZaV4KoVoliVYeACUTVwskXLZOyQK9wxVEd2yBJiRAq1KpBg8wWoF9vynQgZSkU7Ti7oESaFCRGRApYKDZbugqd6C9GAIFG3XPI9P3LlEoPxZEpYIKoWmy8u5MCQQxL4QCDRVCNyAe6GhLKqbigQo6SNUs7IMWDIQZAEutDVZ9HQLKUqQy00YHLadAdytEamAWaww803dDMeiongEwaM2Jm2QqR1Q4HlK7F2iPbqlTfyxoGafBdVpxx8ljhVPA9bRKAwUto4OvxBfxJPMNVMcml9Ka3Zb+00AKxEcAdQ7ukFOxMEhrSX5qXA3D28NSvP3RXVZgBar3JtOYAVmazeIWoFirNw5q0BgII7LXao5wsk5/2/ZR74G0Wvp432UFSiBDXIa7G8/jEjQN2T5fxkS47Xw0gc0HUEAJWiO2NUg8jMSSMRGX0z72eLtos1ZQi5lBlVWowZaZMwWwJd0xO2Oihg7ZN7U+0QPIpmvWkw266R20QhrCvwKQi1bPXJsHIsiSCidXHwPq/yi+DuqKUdCx+wO0XQ7t20Cb+W61byBoBdyAYexZFeg2BpUjsqBx1p98OfCWALETgHkYwKW0PvYVegegF/8+et+2u935m/n6f/+RrLfOH9j5+Q8=);lineShape=1;strokeColor=default;" vertex="1" parent="1">
          <mxGeometry x="277.8082687076205" y="-1032.613803970972" width="8.23319540691704" height="9.837482143118216" as="geometry" />
        </mxCell>
        <mxCell id="opCMUjGsSkM5_SPHou3j-57" value="" style="shape=stencil(rVddb9swDPw1fiUkUp/PXfc/CjRdgmVJkWZb++9Hz1Bi0fZtA/bmODxLvDuS0iAPb/un193A7u16OX/d/Tw8X/eDfBqYD6f97nK46tMgj4M8vJwvuy+X8/fT8/T79WmMHJ++nX+MX3ifcKlSkBHF7mN64x0J/37zeQIcD6cZIFRi3wEK1bIdL0zRLMBUwjaAHcXaATgQu22Afs/1KwTf9rgKKCSli0+OcgYLOPLcAXKmgACVpE+hZCoJkCRU+i1VTQqQFJk49CuokHEbkJ1NunhKIAfdQHAdIBbygNUqJKkHZPIg6Roo5h6Q2pt1QKTKFiDAezUTRwtIAgDFVoPmwBUAVOlgWfoDwCgdK0VQbwqovZfUrchLCki9DomxDlrAfdJJcA5q5l64FMgjWpV1ZwERrRCtvRUAhROq0QIYFFC9NaFZ0gGxpAUZLa2C3Kr1ZQCeHEpaAb3Sao0Malq35I291b9oBSFnalobGWIpLFZIlJFbYyNxBgigeas1yqKmIwIUcos245A1KrlsARUDcrA6IOG8c5ZXrdGAemW1Was3MhJCp64BMNX/CcjSvDabKAykjot+r30BTRTxtgvMiFsnVpo7b0sI7Btao2ZQ1+aW1fiFbqq0gA0Fkr5TCq4fvxhxvsCMedHt9QsgAT2NpZ4hzKge92o/fnyjbN0VnrzRDJoicxsE9/gEJrS6zpzdcFMdXWoUaCN+Pf52dLzzyWg/odXtzRHwhKHxZv7j7qXxxnEZHnk039A7urTj9Bb/qY+vzbJb+hr/qEFA49JjZOyLXg/HSIB/vl/8BUAf7teZl8PxON2G5v/b64++mq5O8vgL);lineShape=1;strokeColor=default;" vertex="1" parent="1">
          <mxGeometry x="287.72468795627765" y="-1031.0630975673432" width="8.310359692208577" height="8.41326365718981" as="geometry" />
        </mxCell>
        <mxCell id="opCMUjGsSkM5_SPHou3j-58" value="" style="shape=stencil(rZfdbtswDIWfxreERFESed1171Gg6RIsS4o03da3rzzDS0THZwiwO8c+XyT+ihrSw9v26XUzcHg7n47fN792z+ftkL4MzLvDdnPandvTkB6H9PByPG2+nY7vh+fp9+vTqByffhx/jv/we+KykZWR4vAxvUmU7M+Lr5N+vztc6UVJpNPHSEXXgVSIcwewkACAMwl3gESKeR2IlUIPNKNyAEAi6bdUC1UEVJLQAWoUErBBKcQOsEyRgVuFqnoggzioEqd+S5lCWQcsUHQ2CBXgVmNi84CgFYSyeADFwQqVBVArAJRS8UazAKAlAntAgQ0xBArOTYUystqo9smklRjkdzOimgcMJJPVRah1TuDbQL4BVLQlJjMPGIpcoFruWWH8XBc2gMiNTuSFl0AFtTCxLuIAAteA4LKvRRq4dfy8KDnFNtToAQaRbl1F7iuIeG/JJdJFF4BFncnUAwUBdfbJdWNCNhjxwksFF7W51CiUQGqMgFuhzrFfA+IilypaoRntVtC5e/4fQJIHrlrV7VZmVPpQG64gmcvl6pArcV2/6JTtFEUlnXwvzkoKekYbLJzJEmBFM1PpC7StGYFTk/jhx0hBB5DsEymSgNSWQtpvKMwLrg1XMTp9Bh6VFqDq9Ki/5OhHqxZDYG9OfnbDKZf/VvpFH5G++FMhUEL71/m0v+jR7NnmQDe3tUkS/H8Jc7pc9KjXNX12sy0cR5peqtMrqMh7h/N/69vD5Sbwstvvp4vE9Xd/c2ivpltHevwE);lineShape=1;strokeColor=default;" vertex="1" parent="1">
          <mxGeometry x="302.4379295393592" y="-1039.266516013481" width="5.296451686892302" height="16.648766872456708" as="geometry" />
        </mxCell>
        <mxCell id="opCMUjGsSkM5_SPHou3j-59" value="" style="shape=stencil(lVbLctswDPwaXTEkwOc5Sf8jM3FqTVw74zh9/H2hapQIhr2NbxIFiMDuYslB7t62j6+bgcPb6Xh42fwan07bQe4H5nG/3RzHkz4N8jDI3fPhuPl+PLzvn+b318cpcnr6cfg5/eH3nJco5ymJw595IVAI/xa+zeG7cb8Kj424mPhI09u1eMlUuokXKul6fM5UbT2ZpF+P74WCmPhCpYL4ShJMfKMuIL5RSrbfTBkA1DsJmwTtoDSY0CyiontGQEH4oOgDIybJcItqayoKG2BBE4KtqbZl5RpMoVlYK0WEa6FmEzovwF1OUBRt012WPS8nJBLbQ1NqUEnipBEpoaaZsoW1BmIkVqYYLXEVTptPSEwdNe1KYuUe7eCa1gnPCCUHawx44hxxhToiWpVhHaPi+XHSi0wNFeTErR7WbxofEepghwsTmrQJJCVnAiUusH3RZmrC6nZG1tT6gc14p+yRAsLVWfEkLuwBtyX4w0HVWEAP/vTRPQXw4I83xa0C9bnjc8X95ZIWS1ltkIH4mBKft8xIewupKyNOYNzC0t7K6ROoP5wDVCpVwJk/q5R1WM/55OBZc/UIQ3xcvxNiwLMdnuouGfzf8ZUhPE4OeuQANdx4W/tvuD58Xgyfx91uvleuv59fJHVpvoTKw18=);lineShape=1;strokeColor=default;" vertex="1" parent="1">
          <mxGeometry x="299.29607923009735" y="-1033.7760278239555" width="9.40085327908507" height="0.862400475497264" as="geometry" />
        </mxCell>
        <mxCell id="opCMUjGsSkM5_SPHou3j-60" value="" style="shape=stencil(lVdLctswDD2NthiSIEhinab3yEycWlPXzjju7/aFqqFiQhJk7WQaj8DDnx0+fRxf3g9dcB+36+X74Xf/ejt2+KULoT8fD9f+Jl8dPnf49Ha5Hr5dLz/Pr+Pv95dBcvj6cfk13PBnxLED8gMquL/jSfDA5f/J1xFw6s93gFwgUgPwCC6vAxJDwQbAkAx5YvChkU/VxEX5WLS8d5BwHYARoqLsgN06QDxCLQMUk8I6gIFbFxFBNBRkCO39OUCM6/Li8RQbQCEIBkA0RBWDUK9YcyrlFhAhWBQ8oNLgwBsa5D7lpOLBJwOQwKUWIGEzEoPFrX4GsDQUCEWbhAZp5mrxHcA0iSEr0gGyAfDOgXMtAs3sFhVFkYhAFmsGZJ1M0SJRICmTEnjLTRmoaABZuZF0jxFAYgNAgH6XBslm3sUBgdzMS1YPkK7oZ3Ew+p5UZFEmbUQaa4HdJ5NtUm5rdCtdIySvAWZBECQV6Y2SS3o4bBc1R22S2TbKzK2+GrlWD8TardGuOFZdAAGtOMwBko52iWqTCDztIk315FG3Jju99wJkpJW2piVZigGIuSbC51yfmuHylMOa/pOKqfOszF3dNXI1clF+1ouFlDOSFfVcJ3GCQcCTnlho71ayaXjlo1R1Ljs16rDFmlrLy5urQa3ydggy1phODMzhM7Q41TAgWGlHwKwJs1UJMjjUuprtcZhnLp3WgjUAKg1cN5XHAcWaDDOTJArJ7qqKtKywaHGguvM/+AoQgNp8gr2yDgMXNSDb0y1EDbD6hczPMDPJ1DBbWbc47H0rPQCQj8+n2Vt/Oo0vu/v/9VNOjsZnID7/Aw==);lineShape=1;strokeColor=default;" vertex="1" parent="1">
          <mxGeometry x="104.41358667280406" y="-990.8504293466847" width="9.762440246749192" height="11.987720404199145" as="geometry" />
        </mxCell>
        <mxCell id="opCMUjGsSkM5_SPHou3j-61" value="" style="shape=stencil(7VnLUhsxEPwaX6ckjZ5nQv6DKkxwhWDKQB5/n964tKxm2XZxy4GbvTvtebdm5J1ePd/fPO13wT2/nI7f978Oty/3O/2yC+HweL8/HV7waafXO726O572307H18fb8/enm0ly+vTj+HP6hd9nnJOqEyi4P+cHtYj3/558Pcs/HB4X8t6L8wOgZMmJAKrUNgAy1xCqaBkASSUQDZqkhAGg+IlIAFVKHgAhSiwU4NIA8Cq5cpPGsGapzIXQDZ5doEGFfBhdDtKYA5A3HktoVD7W0WHJLKKhu/cm7zKRV9FR3kli8VRp2cgHJfJRshp5x+xPoit5R+SzOCvvmT3okWLkI+kBLTa/6FNmf+nl8hZ/ZfEs0kb7A/c3WvthIJNXiWO+fOQOewkjrUCDJxrAEqbiovae2wKkMaTZS2U+OMtDpUhlTZZF3ciljXZlRNWNJrXUyfJdQEJMxrZsaAwS1oIyHgE10UarTtroQwEVkMqrK3qHkYW0fgu9cubEpU5O7wO8lFED6JjVElxsYy0lJ5kBtJPbXBrgMxYlRH0Ma0m0+GqWYkoj00OwVQmrTLPia02cqaVIKR6A1CygBQownIFqzVxDMxpy78EtQBk7rpXOy1sA03GIm2OAas8FPEnkoIUB1VtAZRqytLQCMA25nxxLk1hYk8QVgFHllFe1YY0sD7HndZG4zAFmAoORhTQQXttqTfQAwutkSiP2EWIrrLY0OFUiJj5aQOEt6lYaCktctUQGH9jUgPK2mY6XOs4cilOxkMR551ZOZAmE7ycVhpiKOE5MsVlA5XGtJtXge1YbSESzAHoEle7iskeZDyimtQbmw0cB1VuewR6WiNOl2pYriY8C1a4Amc98GAWSmbAu+IDiHDVMYybJA8YjM85gbsycXP3oNGauC2xcx0zHzGlDLQuk1ieiTaeTzQPTgHnKHHIIQyRRSnXFlTggSB4wCBvaWLT51vpm9ttpSiMNEVLvyNnrSssV+6xpCEzfdFxXe1LDLcYzMKmOYcLOzeZKLBh2Z1Xq9OeS/rmk/89LenR2jUmdX7d4whALGkDZvqr2zJl4gHRAnAM4N7GjgKlEjQuZd73aPQkrL514km1inHOR7dz2JgP7aCAKot2Hp/2VZc1efIB62Qqj/aZyIe+J/aGf2Ut5UhXerrawv5HfRw17K89YyNm7V8h7UhLO5quBhUh81jcejXblagCephLS9a7vWrN87Ufblv1jPWCwY/Xw0Qv5y/L48Hb7f3d4eDj/ebB8b/8twKPzPw16/Rc=);lineShape=1;strokeColor=default;" vertex="1" parent="1">
          <mxGeometry x="120.64762568760807" y="-994.276575830163" width="14.495773250312846" height="14.967308201099389" as="geometry" />
        </mxCell>
        <mxCell id="opCMUjGsSkM5_SPHou3j-62" value="" style="shape=stencil(lZbdUttADIWfxrdnpNX+XlN4D2YIjYc0YUKg5e3R1mOIlkSd3vnv88pHR8c7yc3L9v55MwV6OR0PT5vf88NpO8mPKYR5v90c55MeTXI7yc3j4bj5eTy87h+W8+f7/mQ/+nV462/4s3CNUEKnAr0vV2JCan+v3C3Abt6fAxmlGCAJWnWAhsoGyIKaXSCJAUoEeyUltGyAqis4QG2IFmiMFh1AVbIltYLE14FCyFYlJgLRdSITJNolGtiRKRGq7ZzqQE4jooBtI2oFO4BUkAVK84EMsrrmBhIHKGMjUkV1VIphXCGqW5zO6W1pFggITklaQK4G0CKzs0KuaMkCGSE53lARrZlU6OB8dG+TXUFbGfyBoGFG6V8zykPjCLFcB87c/OkNWoPh8hI6MBbQofJa3UdysGtbX3FZJh36YUg1GJySeqzYkr6i53KrBeXbjFYnBjQa6wBofHozmhCHoVZZHTN1QP4HkDima09Dx0whrm7+BBKyE0yc1rQ+i43ofHRBtW4tDHHaEMYwzrym7cXn1ar2AxKvKXLteWuLSODg1ZNsYgRfUc0TWz831xQcR4GYkZweBxmBBHEmRz0x/Bm0AY6garpBofHfpgdfO47HebdbNizn98cdil5adjdy+wE=);lineShape=1;strokeColor=default;" vertex="1" parent="1">
          <mxGeometry x="132.73321031749185" y="-995.5134754700265" width="1.7342225794745587" height="1.7395425942100733" as="geometry" />
        </mxCell>
        <mxCell id="opCMUjGsSkM5_SPHou3j-63" value="" style="shape=stencil(7VrLchw3DPyavaJIgs+zH//hKsvRVhTJJct5/H3AbHE0bM604otPvslr9A4BNMAGZi/67tv9p693l+C+vTw//X731/Xzy/1F319CuD7e3z1fX+yvi3646LsvT893vz0/fX/8fPv310/dsv/1x9Of/Rv+vuG8uNBBwf1z+yAXae6/Tz7e7B+ujzv7JFpm+yTRn9tXKTrbB2nx3N6rqJsAqYonD/BFwuxBChIYoElIEyAmyRwQZ4A2aZUAkqQ6A+IIw5nTYY6qZlEG8JiG6KSlc0Ab/7vZVwkkDU1qWbJQyIGcZMhzHUc8BgRJeQKULJ544DMytRp38zkgOIkRAZX4bNzObT6S+UCOpE7qzNXiJTNAFJ2dzlECYZKmQbRdHkKjTwizD9mLJ0zS7QAboIljPpQR9Q3g+JGaJD/7oJJJHmIYBb+RtYgGAkijZW2AQNkdrRxmH7RKJVzqJ57JZ2EIhN6pIFvtCY1EKbXFaWusJHEGSHNJp0QbpTEHuJQzZetr493VQ2CAIh5KtHCn82i8A9CiOBbWJjrXdAsUkFUSHCnSRmltq85PsJpm5CsqBfJgJUVu0FIkzSWq/P4pDduMrxKJ09VJAR8kECqZfZybd6B5NnsIqh/lcWafC9izFmP2dWaqPZD5u7W4V3vqrx+S5dXekXZh9sWhPcmw2bcG9p7FJ6AisYSw7w8SMT6Vf3/OEH92r5l9qWDfSHc0+4r8oXww+zn+Sm+Qzmc4T+I12bAATIcmwggDOLhB4lBAZwBQbHbPOqaDzQcQF5EqqqoI6DRkT6iD9BtAqTRvimXT48YAFftEMeYSYhgAG5Gnyrm10c33AJI4A0SHR2J6xwDQi8qmRM8A0Iys47PEGQCq3wBspDoAxHHI/3ukRBtGdxoAmbL1IKx5DEGniVuekN+gRloApKYPyJeHGDgD+CVKTP8bAJqAATxjaxnc3CWOabYOgKFHeabNh4XejQN0KVHaBCoObgZgl7MB0AcrUZa4hiNJfwLLQ0OB1H3g9K5hiRJn60Ee2PDp3MKNyOPaFm6kt9pGyQiovJOlpUbZ0uDHAYu0NfHM+n2X+zBybwQ+VTLwhESlm00geI0mOkyWZSaxi5o+ISOZTAqwTUbX86B+CiVTqQjw8S09vOpzloZf+vyXPv+Z+jyM5clWxbzq7bjz9/tN0ZypbbiktIyZ+BiQkBF9N8FmbIcpsK9gCiknFDy10UbUt2QzoOsNkoWUF1Y4zusUcafa0hB+ZwBYdtRM75y0rkgLbY7mBAjJnEfgzgC4TkmUrAaAZXustBuZ0w42bSbo2ZbKqnd22m6EyNaLBUWYfVJIQfcbBlakgXIjBvShL+tIC1ArsDmsOQ6vzta8OCfxSUzjMsXwTOvS9azklJScenQ6Nzq6dQCQT/lu22M9GLvYvKo6qLZLXOELfdjlJU8Xybppif32nDQBXYYS6zyJhdV6JawyCm0CPUowuvHBKmRcllSlF3pYeqX1pUIybQIKnDYdqYTe/X0VDIeVDunbm6Ad95j+LyjZrEDZorogkfpLDeJAw5dbmofoO3Y4oPhXxyOUx4ptt0NjJ7I7vMFLzDDE+nGWPbZ661JsEW4AP3cMa/XKXsTW5R1Jph3DeIRptruBvicFpZ0rfUAe/WfXVZlU8ssCzW4v9mIYlXPfMrLX7cvahr+AcdgrbHCuJGUmlJddGGOdG4PNbpJnvcgd7EfYPejwCrH4R1I269jv6FrL4f7S2kSj8QkB7QM9D5S98Y2pTjcWujt7pnV+9Ocgb9vbH6+/PflyfXi4/XRl///4WxX76PY7F/3wLw==);lineShape=1;strokeColor=default;" vertex="1" parent="1">
          <mxGeometry x="137.19188155044708" y="-992.7040895171917" width="33.57794097553998" height="14.646576478392427" as="geometry" />
        </mxCell>
        <mxCell id="opCMUjGsSkM5_SPHou3j-64" value="" style="shape=stencil(lVbLctswDPwaXTEkwRfOafofmYlda+raGcdtk78PFJmKQUebyY2idonHAiAHvnvePTxthuCez6fj783/8fG8G/jHEMJ42G1O41lXA98PfLc9nja/Tse/h8f5++lhQk6rP8d/0wkvM6+QDxMpuNd5gxNJed/5OeP34+EKz0wihhAiOUAQTxINwZELAB8pSIePAvCZYrURUK0AXykUgxeqEeClmW94X6jwOsE7DdDZFGUq2ERJNyIAExpDsTHESIySqjJnQ0ieHHIpkbNRp0SMZAi9SymTeEBQWVNvIQKXaiWufQweEXKfVs1SzICQqNgscW5pWCOkG6UF6KAudaWhxVSRhULBEgS2pyapa0+GeO1Ob2VzlFDlMaXQ4S8RrdVRsaIFKLIsvdXwhTI6X/rC9rHNmzXCpSoXh5gymhfSFF0yGnBhq0s25OgpIw1KX3ZRvmrOal1KOjQRQVXr2j/DGfZtwtQoNq2VsYV+yn8I8ym+ENvzr8bsp4RlXC0GdPCjCCjbnOpFVMD5gbwt1CqUQQCOpPYJCmAYufZ3aYQM782bSydXeCXo+TberJ0PJpH6b89P3CRcyU/nT8zwnmWK3ZXmmyIr+gZbEFzg6P3uQ+drvC4+XlXbcb+fH2XX//tXmG7NLzi+fwM=);lineShape=1;strokeColor=default;" vertex="1" parent="1">
          <mxGeometry x="162.71699321562323" y="-988.7870900903815" width="5.550366838941766" height="1.412246720493809" as="geometry" />
        </mxCell>
        <mxCell id="opCMUjGsSkM5_SPHou3j-65" value="" style="shape=stencil(7VjLbhsxDPwaXwmJ1POcpv8RIE5t1I0Dx339fam62q643jEC9FIgt42jkfgYjkht5O519/Cy3bB7PZ+On7ff94/n3UY+bJj3z7vtaX/Wr43cb+Tu6Xjafjodvz4/Xv5+eWgr29eX47e2w48Ljit5bih2P//8kqj63798vAAO++c5wFGuIyBTzesAHyiMAClUGQCYchoA0ZEDJnlPZfQheaoJAlIeANmTx4DiR0DscVs9wY2ARCFAgIsjIFMqAOCIjUmFclwHaKLN+koJRDVTkWF9ceTr+vrJv9n6AHgRe07n62V9vVBa7O/A/kzBWX8DYhFJsvGMbn29ozjSWhMmwB6N3hhPZYQH9qh3xv5AGRHCxjMxFcC4YAs/aHzA/tUSVAKMj8/WAXUJJUAZZxhUuxBcd8BTGDPGnbLXCVdthKYQXy+ASCWb/RHhqrNCpwUG7K+V4sgI5TijiLoFJzQGHuS4RoqjC8lRBUkuTGx8UBkCQS2+q9QEKJSADGnVGnXXOKC6bzLFFlCAEGndSrGAigCZfLaAjKQx2VpWgEMnRJJgo+RBHrTWq7d5gCcEKsbpSBWFNRIbk0K/5NYA1SROqAB+a5SWAOi0xmSUmIolTKkhdQEAJin54sIkRgBva1QBiEutgJwNK2qPFBANQNkFVEABYUGNGz5UU0BaIbimnQlrhcJUnFXWVkA402V0eqZtazVqM6cqAHSm9VvRApDXeaGVGqaIC8J6nWHH02rUlFwiAV1kO8GYFLtU/RtAKfZGiTe6AO5N4PwKAj4oII7C1DpFVEGpt+ITNyLW+2BPqL29v96oOivGuWvn9T4jUhjrp/XeACCTRMw8QBZpL8wmRgEyyZd+P03NmF4PaIAJ/TKY8uy7dq4NYWbiSaE3gO8j0vuINMXzfxqR3MJfBycGZweA5PsOa/EZyzgU2DyLVWsdqdC7RenNzSQT3GtoTSbMO4dPUEqV0WmhvfA1SPve8haATIyfmcRAJsRTloUPQCaEF71FpoxOkF7kE6D0B6XrgMXozLjOFCBmFMbq204woyHf9GExS6K2U9hqF0fsg7dzG0dIVs20aWxV/yIi35ufIm8D9OPvy+fT/nC4PJzO/29fSvWnyyur3P8C);lineShape=1;strokeColor=default;" vertex="1" parent="1">
          <mxGeometry x="186.7779737159358" y="-990.6093960188159" width="9.163262811999191" height="9.77108376850083" as="geometry" />
        </mxCell>
        <mxCell id="opCMUjGsSkM5_SPHou3j-66" value="" style="shape=stencil(lVhdcxoxDPw1vGps2bLs5zT9H5kJKUwpZAjpx7+vrowJ1t3tNG/kYE/Sai2ts0kPb7un1+2Gw9vlfPq+/bV/vuw26cuGeX/cbc/7i33apMdNeng5nbffzqf34/P179en6ZfTpx+nn9Mbfl9xMZCECcXhz/VJEWry78nXK+CwP94BOFCrIyBSC+uAZF/HASCFRNcBOZCmEWBJFgCoVNoAyEwFpCRCWQdAYlIQQRqxDABOFCoECA+AKMQJAALFMSXrDIMacqQ8phSZAoiQAiUXofUniwD7WmXGEgLEzvpd4wIAGKtllJJ1MoIAmcqojMqQVVYfoYXeyWVWlepYQrOaeR2g1rfgI8CaM8l4HGrqr1gGCFXxRTeQUlOKdRYB0NqqV4YBCjgOzYQzFl1vVa0B6tiHKvBIx2AsuhAFNsJCqANoJ24N4CNUqhny2lwRdsobABSf0qQNRJNQkhkAiymIT0lR0Sad7AFQfUyRPUsRpRQX+gBrmAOkb4zVlFwNmSoGtJm+K2qc0do8gJE0rHEOcCN6VRrZR4DSqDO1JsoogsmbPUtooUwHiH0fImBp+YwmMI6nMeDkqpTBGjUAu85VEhTBRtlM32jJTcNyBoDq+yxAo/cO9gq4g0ofjR9W4Mb08ppjP8BNXwmM19Ln1l2rGfRh1mhb1Mj+cJfmzZDhGWDOIYyL3TZ3RYs9URq3qL1CQUap+ikTu5dY9mOp74L+e9wCc83O8Al0Y6YKdzzNIAZsNDxFhSLq8WyZJIXuStT77tywBa3eXUmFOzrNhljBNsBKdCwZbwVMPSPRXWdU4FXALGWoHtCQVNmbXLUkUUqRovgIcF15C6r4cFZvijVTBnNb/ZzXBIewegegNm5Al4v3epPWAaPF26pyY2AlnzwbRgL5cXa4aBfJ2q1k5LMULKHPXqH/A2AfPm7sL/vD4Xrhv//e3/Dt0fW/A+nxLw==);lineShape=1;strokeColor=default;" vertex="1" parent="1">
          <mxGeometry x="197.239419330435" y="-991.3897125912376" width="8.500896262739372" height="9.905398265032561" as="geometry" />
        </mxCell>
        <mxCell id="opCMUjGsSkM5_SPHou3j-67" value="" style="shape=stencil(lVdJcttADHwNr6jZZ3B2nH+4ynKkiiK5ZDnL79MshjIHlFrxjaLYg6XRAGaID2/bp9fNENzb+XT8vvm1ez5vh/hlCGF32G5OuzOehvg4xIeX42nz7XR8PzxPv1+fxi/Hpx/Hn+MJvydcCpLqiAruz783Vcr05usE2O8OC0DO4lMPSBL0NqAkabkDxCZaCKBJjT3AS0wEUCS7DuCLFGIhe3G+BwRx4TYAHsfSA7LkeBsQsqQ+hpDEE5d8sjHAZiIuIUk9bzmKku9VSn8+0hwJz76K7w00J4GwAJK0z1FrEhphIUjuLaiXRpKqKD3tLdT5iOuAMpO0BBAWtEpzFqAkBm3Sqg26MgB4MC7pfMR1HpwT52yafKYmtDehEDn3KfWS1ijV06hz6wFp1uytvBo5gEtW3WDOrwDUpWSZA4DWRlzFkGkPQBKNgmDTM5cgiGp5UKIgAGrfKfGmsLSuJKdOIo/BBI3qo7WELPUujaJmLqEQTBeotBeDabcWNYsBtbTSaCUDaKzWVQyJlYbOtbnI0h0BabA8sGq9JmpMIFYb6BumNiKnGkN2Va5Ucuh9pgtkTnVZ9e98j+rPATCnvRnsH4m7PncRxErVheTVO/GGa7QBUhxuHlGXOaoSCdUrosflg5xfZncve0DgpQTzvX6wmrAJFBFfr9BEpy78NZXHKSjVTpNA22Stdj/EMpaJAewh2nOMbYtppzYpPSAWUdIxqrPLVeJdL7e5i15YTnRvSNkmCUckIgUs2aZNAsC0g8W+riywlTX52YEFwLEYLrPmAqh0T49qO3cuEsn0iaubwHj7YLWNnbZnGltxuwMwWQo0SwAYfUIfgZQ3gg4GwPWDtPr+coLiU9Ix0sWBBYBl6dN3vv8A4OHjivmy2++nG+ryf3slxavpOhsf/wI=);lineShape=1;strokeColor=default;" vertex="1" parent="1">
          <mxGeometry x="205.60250356255028" y="-990.3563265126031" width="8.592571648820984" height="8.664033355640436" as="geometry" />
        </mxCell>
        <mxCell id="opCMUjGsSkM5_SPHou3j-68" value="" style="shape=stencil(lVnLbhsxDPwaXwk9KfKctv8RIEljNE2KNH39faka2lqUd4zcHHsnkoYccqg95Jvvj7ff7g8pfH97ffly/+t49/Z4yB8OKR2fH+9fj2/26ZA/HvLNw8vr/efXlx/Pd6e/v932J/unry8/+3/4fcJlphg6KoU/p29YqNZ/33w6AZ6Oz+eAQLXMgEgp7gMSU9AJUBtVBYBAMc2ATCntA2Kl6FZIlBoARMp5BhTKYAWh4p4XEnCESlpnjpgKILWM7Y7nWyUG+ykU5hhIpiBoP2UmSBolBgQVauIXQFmRMskMaIUKWCEn0vnIVUkLOPKSdyVRQYA6QjQARoMgUhsFngAxUQWs2gpt1k4hAWlXIvH8vK0INpR1BGnbEJNmADBhxQmQsXJM/c0ldqIISDVAdnGOQ967K8xSEJzaWSjOW9Iy1LrHqhObMixIRajNiaFX1CM+MewMSA3cBusbSxmmnv3sWGJL7gAAvMjHBIUAtqU5cJbuBQTOKpC41MjEGMCubCsVEAfbksy0cqUA9COJeGapbUXhMkBHIpzV1QBySbcKsQEUd5IQKMyaljJ2eXkJoexqsRCDJTR6UWsYdeTyqePSHRRmX6+82Z+hAZoMkNQDCgLIhX6CKpkBSvWADA5tANfSBRfvvoJjKcLq3c/QPCBdYckdOlyjVZMHIFrZEiF6QEaFKQ4SzwAV0GoAXVZALFndyuxZKiD5DODKhgUOdZQOaB4goM70UrqaGQwIS3pHzFJdBIQKkwXOlT7ZHNceIL4L0GvvcgbUsyy91yIQUdUQb8g6rRiQnaYTrkvizYYBUBwMwIumYV3SJdJhGNk9AC8AKKCwnOGqRMMCgAJ6L0CW6cfsTAR66P2meQDqQOaneAmcgDgIL+ODhRKMD9aWvQ/NoxbuOSwnURvJFFkyq9VzLlnsUeDMCEdnySK2ZDzax2bJzCUiOxNInYdjWPl6bs6Kszk3ojM0bx24DKL3WHJnsFOhPs2bXM7sT0OaDn42NnuvyN5HfxtwZtIujxybKTxbAgKSHy1NEA2NTcnbmT42oUkuUZu7Yk8m0Hdt0Cszr/1fIED1pS9WmEx5cVjYwlkyx9k64CgU9bmHu3QNvmZEPALZAtVdCFi6o1uZ4hVt31wZdl0QzEpEdNXFQ/BbXjRoHOIiUGnwFkSGCd5SO8GuvoxYNjugvFvHnwxbdPDTfSvDCl0+sDfdjCc4G77c1Mq4t/nqUgPkx0TCyxyNDmCMllnJPQ8BoxYydY2nwDQ16escgyrQ9WQdvfWMVMaA9T4TsVqWK1wDoKm4LP6236HgFcICgPVOvdRYxny2B3BztwHQ+GYAZ8RY4b1SXsRpAHQNbQDfnhVHuvkpoANQZ7Peyh6Q8IWgX0FGsuwB3vnC4TrAPvx/v/FwfHo6vR45/92/D7GvTu9S8se/);lineShape=1;strokeColor=default;" vertex="1" parent="1">
          <mxGeometry x="214.7154568292218" y="-999.3375602577696" width="18.684725533404194" height="18.18370251979347" as="geometry" />
        </mxCell>
        <mxCell id="opCMUjGsSkM5_SPHou3j-69" value="" style="shape=stencil(7VrZbhxHDPyafSX6Pp4d5z8MWI6EKJIhK4n996nJotfT1TslCAmQA3qTdsnpJlksHrOn+O7L7YfPN6fgvjw/Pf588/vdx+fbU/zhFMLdw+3N090z/jrF96f47tPj081PT4+/Pnw8///5wya5/fXL42/bE76e9ap1tykF9+38QXFW/Z+f/HiWv7972MknK36Sz3484ap8MJcm+VTHJ1flPT8/ZctSPuZZPlrLSj7UWR43lPKR5N14wtH9yyQfmxXpHz/bG6v5qOQryWfr5Vg+WnIs74W9yTzdP1kV/k/W0yIv/JOtdL5PEPYWi22WL+aFP4v1zP6MAs/FXJzj2y0Ie4vVJV9SOJavlkk+Sv9US7N/Spb5WC3M/ik4san7N5KHvV36P0zyFfwg4oX4kry3JvmkzfipwZLwTzLnWL4Ie6P5ujxfxCtY7Hz/KuQ95yP8k4U/PecX/K/yHd5e4psE/i+n7/CThf+95fk+GRkh7I0j+3Z8q/yTzc3+Cd2SiFe1Muejx32EvPdMEMWCildhB7mBqOt4SBZmA7yMbwxMQLihV4BGBZgNgA+8YPSMEFPJawO01xWQw3OObTkvMJH7SJGh0PxI6+sk4azNUWtwm2Jpb26GXcsSFlDwsw2tDOY4PGGOc2vS6M0GUugyc6BAqdPdKP5HCn52a/eyN0AcypxsPcjmAwpUzaBQFFs3S6uCAl8d3dVOIWqFuBhdRQMCtLbFrU2dUEaYdoF74YRKNaqNLu9Ioc8nlGRJgA9GE8mgq1Csijh0anOSbltAe3PgwEtN1fHCCQReSsJLqJPc+crCXDsjQ4O7YfKgzksW8o6vyYA0wHtdoTGQohusc700OMfNBcIWRZxxBFXD0qRTNyjPTu1wgwAGFCgKHUgSYdiwn1ihCmBAgSa0nR+uazSeuXCECh1CXYll2vDDkUJY3KRoCcWgzwnXixxzNgVyU7Is0IQr0aAG4usCG23p5EF8WRndxiC6I76sjG7ce/YXAoe6vjBlF1fantf5hBfwTeMvjE6Cx/C1q+xWNW/2ZYBH4KIwelMgt+bBPIdXoqqLUIo49LURaHJG2rxOCl1zZV+M7gPwR9DIi4Jai6xsDAXVwbXKi4XvZHikQC0fUrSofCjLlbKmvrp0P1EGDgrUGAN8MoFeq4ALEM0UzUswMc+NANp9WeXSYPf9QkWd4Hnjh5kuaPamfPBZo9XxDs9H2czUxO3SdoKwoSyNMaY4tYXEENyXISuqeSPyNBCLZI0SlkHaybkPHRwNimgqVZ/7NmRRiTkcsogE3oasf2LIyssO4bKava4QePMDWmiiNU6VI40zVdmNfWyGdjmtwId5gZbVQS8bwaRUH0Bkqqv0aBTmOIAq1WSJr3lbFPRQ48f67GJ0lAvEzgUo6db7f7ngFrD7Tyy45Qukv77gVnz6b1twLzM9KrVqCt9eWL69sKR8f+0Ly9n/f/MLy84lBnhI6oVTuPLGPioARe5vUJqbyvjIFJ31Zm4bB5aXTirG2wmkUGW7AqOp39/eaagsCCNpLzThRiE5qqt0AnjFqRdtfoR1p6AWc95xJS6X4n+ADJoPNnk1CS7LyyAr8WW1eZH30kWv/WnJy/L44/vvWD7d3d+ffwaz/55/94KPzr+Zie//AA==);lineShape=1;strokeColor=default;" vertex="1" parent="1">
          <mxGeometry x="252.343968838685" y="-990.8485684824659" width="18.1687691564755" height="7.8533474489810535" as="geometry" />
        </mxCell>
        <mxCell id="opCMUjGsSkM5_SPHou3j-70" value="" style="shape=stencil(lVfLctswDPwaXzEkSILkOU3/IzNxak9dO+M4ffx94aqUTVDaNjfZworAYvHgJjy87Z5etxt2b5fz6ev2x/75stuETxvm/XG3Pe8v+rQJj5vw8HI6b7+cT+/H5+n369PV8vr07fT9+oWfE04qRXdFsfs1/ZMKpfTnn88T4LA/3gGKo9ADoqcYAYCppA4QmDwDQKTYA5ip5nWAxlB7l3ylVNcBKROzPcGBGDREMS4VqoAlziRxYKmsA7y0EOc8VHIgBs8U+hiyUAQs+US1dICSKYM8hNIcmAFCDgStyvE9S1mdBC6px653KXnKAFAKRd9rycGgSyXu86A0MAhaAnGfh0IF5E00rWzsUwAcVSp9BJoEoDzlVPrvC4mH0rY6IkY5U/vQM9ocXPMn9bXGFHG80n/fN4LX+PS96Bz8vubLBWPvUH4j1WjtkT/S0nOzT8i+2NaiAgFlLINAmTLgX+2l5yeSx/ap5yfB9q7+ZzF6Kyje3OrvpucK9CyJSq+f0jrlWn6rN/Z/m/2yPbf03+wzstdxZr//jx5XxcSL9HbtiWz4R01X67H0fEZiNMpKK++bflC/0npkMytbga7xI1b/gvTAdp9wWJ/R8q/1iPL1QXvv5vdzwAFWWK1tnZk7ogJACnQqRlNiWjOIU31tRneFQyPOPaEBaiKRdQCPQTvMU2whzid4CiDo4YCcyAFWoy3jlPB6I61M5izExtrythIomUk/t9blSghNyHPIbRQuLyth7HRoo9PVw9h733rrsvDKMAo83FWq2F4UIlRqVR31So1YR7q75z4G7cdwd/d22deCZXSCa5v6DEitQy2nobZ5fQdAHS9nCv2SqfXHCJCGlUsogJmgyijDCajp6VrMQwxoKmc3nBBbKtfGvqlnTZygPXakVTs5SNzCouDb+r8GKMMNB1X0h6+m/wHQh9tN+GV/OEwX6fv39uasf0237vD4Gw==);lineShape=1;strokeColor=default;" vertex="1" parent="1">
          <mxGeometry x="274.2126899201951" y="-992.9458476020575" width="6.337232804497599" height="8.413558132675101" as="geometry" />
        </mxCell>
        <mxCell id="opCMUjGsSkM5_SPHou3j-71" value="" style="shape=stencil(lVjLbhsxDPwaXwm9SZ7T9j8CxGmMpnHgpK+/L7eG3BWVHSe3tVezEsnhaKRdvnl5uH3e71J4eT0dv+1/He5eH3b50y6lw9PD/nR4tadd/rzLN/fH0/7r6fjj6e78+/l2Gbk8fT/+XL7w+4zjShoXVAp/zv+0QJH//fPlDHg8PK0AtVGSAVCZct0GlNxfXwCNct4GJCaOHiC6DYhMofoYCgAoNTe+ETcQM3EaxnO5Mr60YbzE/oW3AwgkY06lUgYBpECaPQBFnCulMWQJxKBqNZGMM3CkJtuAphR0rJpQKtsASVTDACgJEkkjlXFJxpQCyqCF8li3aHUDzNNExRGjU/HtECamZmphezxrf31JKjHIqTVnGL9vVE9ogkShjAtKpLhqwmPVEkVAVQPwOAMbFwHzbElxjEEaNZBUNnUYAcqwCgtg7B6V/oktQCwegATG6tBGIqlSQXUoPq0GYKCqnEkngGKAo8YCQFyyOgQPEBRD7Cq9Dho0tBGBpzooaGgD1OgBGcVggLE/9UoDTcJqgATobUGXUcW0QZ20tObgAQVojBUuZQ9IiHyFongA0slFNaoHVExvbj5LAVGj9SSuABWltfXtbFXpiFvU7VcGgCJQSaYWRduPAbwImDqD3cTq4IzP0nEo6OwbKIaA85qmNGkn8BZd6yQbFTeETlFHRNcwzSDXZvgYwLxXdG6pQelrudfpnVvQAnAONJKAUjfT+2kbRfxu0hvsUmrz1ZhMrketaUEZzEA6w4eZZF4p+vFo07X+dccAWz/4/orJq4gTmqH5Bk0CTbGZK2eWyiVpW/3G01GmII9rsuiIVPqO9LaL5t7wF6rakkCZF5/ubLe1G5JivyOKmWjQC1MVzFUnEHLwvWZJa2A9xdOuFdjMZrAd7+x0mFCG2MtwzVCQyiXjK8da0IGVvVzYDIgWbOdZt6QGPTHLdPS5sqVL9xQrQEVyod5lGECRbGs/rK1P6chPanfAK4CgLOmkGIJtyXRyMICgHVq9r696La3+MGNpQEGL9zEGgLLN3h4utyUoaHOPwQOgAf3ofcw7APbw//rn/vD4eL49Wr/310X21/mqKX/+Cw==);lineShape=1;strokeColor=default;" vertex="1" parent="1">
          <mxGeometry x="282.17113559172344" y="-1001.7739457944181" width="12.107569883973126" height="19.240494360122224" as="geometry" />
        </mxCell>
        <mxCell id="opCMUjGsSkM5_SPHou3j-72" value="" style="shape=stencil(lVjbclshDPwav2oAAYLnNP2PzMRpPE3jjOPe/r6iLqeWjs92+uY4ktFltVrY8d3788PbfpfC+/l0/Lz/fng8P+/4wy6lw+vz/nQ466cd3+/47ul42n86Hb++Pl7+fnsYluPTl+O38Qs/Ln6RJA2nFH5evpBATX5/8/Fi/3J4vbYPFLNxqJEYORRqxTgUppq2HVKiEI1DTpQLcMj+BE5UkMMSwHRIhbgCh0AcrEOgjJMWW6XYsEP0ZdXOVN52ECrOvlNq2/aZik05R2rAXkvUbNcqFZBAoVItLDQeEH8nYYs7gU0eFbUHSJ9t34JRC/4ElIGGxMWnIMCBM2Vb09Jm1W47NCo26VxJOmhaotQtsisFEFIWirZKqZFE0La8cqjEYDqrhrQCHoMTlE9q8DkgpGqbxEJPs0KU1LTTtkoaJBrnpmC1DnpmBH1Qhz9AmA49kAQYUrc59E4ZhCSNmiW9GAIFcIQUChauPVEFZZLkk9AJKuiENBliqauiBYeUbV0HHjMoky4TOxAcYZlanQFc8WoC6Oviq4Qbp/alOfsIwNqbnx/cNbUXHw9CXl9Y/Sp+lG+nalsQJ+ds2Xc3zpPIN9b/kt/SMsh5ekCzqMtzvLfs3SJZVumWfbSDU+Gi1QYUx/JwDyogultss2Jb9uyGBu7xXlfkhQFU/Q4pcCbVnrOrf8DxsAdER4BbxaO6AtVHy2fxE6iDNT7q2Z092k+jX+LsA7JvHm9qj/Hp8BYgiQ48i6sP1EWredGFC37/5kAyDqg7ETJlzCajOCVIGQ9ksgnougeMctMeAKK1ia+lQAneJxp7XafCDekJXYvROuQOl4BU3zNdlCjn4WBBNAQIyEGab0ITqmAsVYC4sVHFwgB3w8EmPcqAVvEKd7VAJl2rg5LgKlD57e5EqoeR1NSbaHGjUCB5qfqtTn8wFCx5BQ3FEiMHVWmWXrjDfanXMnb7L8B5VjXtpKaq3w6wpBIrOh1YICUpoWTbBx0pxNl6VwvOAXOA+IvUQCNIIa0yiBO9N+1XUC1lFu12AitKbdTRPc1zvH4TkQjx0xwxB0fVNM4hzDW6efnt/oSKHISSbYF2HTGS3iujddBJqPiVxs1aXqTS7aSbH//S8RNBmotjmQSBWoS9tBtXTwBT9gQmDVLk6hKo9gimaSrXa3u0+2/8fgB0F71UGy8iCHb+bjP2FiCK4EEnWMsG/0g27rRgbJar22KP76NhPq4s9pjdV2MvCUqROLfRFQ1lSCv/+db6T3v98Pdh9+nw8nJ5F77+v38I1q8uj8h8/ws=);lineShape=1;strokeColor=default;" vertex="1" parent="1">
          <mxGeometry x="296.38175254663133" y="-993.1629161755881" width="20.565301620358696" height="10.891511827366434" as="geometry" />
        </mxCell>
        <mxCell id="opCMUjGsSkM5_SPHou3j-73" value="" style="shape=stencil(7VrZbhQxEPyafW3Zbp/PHP8RiUBWhASFcP09bRYP45pMLUI8gNi3zca100d1dduegz77cHP1/voQ3IfHh/u315+Prx5vDvr8EMLx7ub64fhonw764qDPXt8/XL95uP949+r09/urvrJ/enf/qf/ClxPOR6mto4L7evpGq2j9/s3LE+D2eDcDQpoAsUj1BKAS8wRI/hwgACBIawQQpAIgimM+BAmz0ymJYyZ5SRkBJRCAkxJnQBZf9gFNasL1GvfXV2kF1wdiUBUf0IFK1pdBgtV6n/bXZykFU/AjizvrFeKj4kmOLXoeOeGI/VkcZNhJdfvrg+j8+1ElE3+dJCgbs5/ky4lz03p7oiP2RIlzfIyCtCxV0pwAXgIhSZwJ5yQSe7oq4Hpqfx3hWwI0GPvkeqNXmxNgHjHCpSpxZnTnIAMUcRAhL5GZFJETvQYIR03X2uxzjlIYIEicWZTbMHIP4DMCGikzMynPdVxMmZQCHAD8CMPTgIU3K0AmzItNckEAkyKjUlMEFGKSAULc+EDCah0sK0aJtSgD+A2AJS4aN+ewWuIYlwwAApMrFfgOgCeUcwBoUTmPuO2Rr85OZ8s0I1/bdP4ojYiGWdxmp2OUTPJQssTZJDUjWdvc+NB1iQHyaDOLLtVR5XsAyIMBlFRctTTNJnkLA2vlZVi8AhTmw0aLO4CUaG3Ync0HRzJdFxVaARIBNDekdwE0Sj4DwIAUeMU1j3IfPO1YBoARyQCsZTX/RE9nXDIfytxQjHyVUMMAYeZS4PVgAD+bZPVwhq0KTTEPtd0rIFQN7kP1EmanS6Vh7SU6i4CxK5J6aEXS7HRTOhs2K8iAgMDyYF05IoAVkAFAvZsljpnURskvgES1tQPgCfmcSQUAtm/jAJj4LG5MW+3fBfJgYSDkMwOgsXev2BMK0rsDWIkavTeAzJ6QcBIwrxqLUhpj/wpAdWlpgavEsd1tB2yoURk1kgR4QqR7n7bsZVf0Zh3ILI4bgLInLKPIukRZxVkQEwI8r+nqEUA7UMPRwaKkvERrxDwwp73bbPp64Jh8N5S+rm1cmBLE1four1GYHVqj5wwGQDItRxV7qYaOsorDH0JYB0mQ7EBbREm4M7OfYON3Kbg9zvzQqjrUMhtd2Ya9RuyL6qg0XSbRyyT670yiRj7Y5Yc2JH2vgGAoU06+fggAu8vFyKd3lzrOeFc1zY4FLsczA/A3Hs8wk/7H4xkDZAAEOgtYpvGeReksYOSDOTE6Op70exsQsjq63i/WQ5d78gRzGq5+vKeZ1opyX6kWh4zjeqWnzD5jNfTLJpJnb7oHHhQqY5s9kGl9YsOS1NlhdXSH7zcNMSZ6FXK54DsBLhd88/q/64LPimpz0EUHehwWbByJNF8eLgQzH7aRcJr49nNzshfHFmVnPXQ0VXoXZYROCQFKEvzzQnIFCGw/HHAr2Z/AaizgGVf3gT1BsX0o39NvX2ZQXgUGwGvNfA6A8ltoG/+dFzLOAezDz/c/Xh9vb0+vj6z/j++L2Fend030xTc=);lineShape=1;strokeColor=default;" vertex="1" parent="1">
          <mxGeometry x="319.45890327558755" y="-992.5148790879914" width="14.36509243426889" height="10.545484698247085" as="geometry" />
        </mxCell>
        <mxCell id="opCMUjGsSkM5_SPHou3j-74" value="" style="shape=stencil(lZbbTsMwDIafprdWYufgXHN4DyQ2VjE2NMbp7XGp0tVBddld1uZrbP+/vXR087Z7eN106N7Op+Pz5rN/PO86uu0Q+8Nuc+rPsurorqOb7fG0eTod3w+P4+/Xh2HnsHo5fgxf+Bq5UqCUgUL3PT7JCZB/n9yPwL4/zAEG7xTABJwNACGRAoqDlJYBDuCDBiKUsAxkgogaKOCNkJKHonPwzoFzy0R0EFgfwUBxGQgCJA0EIKOuhMBaCGaItAygvM4a8EDFADIULYQULnsjJA9O55ASkAXkVuoo9rKqlKqwExCBLB0YnJY6St0Mb6RSU5wDRkjsIJdrQhI3Nw2xknRJ1f7/LKu4OWvzDcKhCfh4jTXEm6zLumI+zoD6hMHexglZgGYK2A2UIrAWbrVHZW40PWqPgUBtB60MGorgmhNklBlJYIGkkxiGpTH7pEezFmJlHF8N+FRrMrmvQLSUq7pO+719QDtbowc2rDSJWvcHXztw4fuNVWVMZevfAVCPGERAwxU+1u6djEd1cC5JEDQgRxo+DX/GKkIwAoqprZCUzIgn+1Yxu2841UacxWPsn/XhJWGnHCGLy4Vj2+/3431l/r69oMij8XJDdz8=);lineShape=1;strokeColor=default;" vertex="1" parent="1">
          <mxGeometry x="332.55529901592126" y="-998.4379833129149" width="1.5063802950690246" height="2.2918957159205595" as="geometry" />
        </mxCell>
        <mxCell id="opCMUjGsSkM5_SPHou3j-75" value="" style="shape=stencil(7VjLUhwxDPyavar8tnwm5D+oYglbISy1QB5/n56a8jDWMJ3ilgO3ZWjZltRqyT7Eq+f7m6fjIbjnl8v5+/HX6fbl/hC/HEI4Pd4fL6cX/DrE60O8ujtfjt8u59fH2/nvp5sJOf36cf45rfB7tvMS4mQU3J/5Q3Gi85evM/7h9LjGJ6l5MEgqnhiEKDUMBrGJIwaxSEqDQciS875BqpLdYIBDprpvkKM0PzotsRA8TjT67KUqwVcJweAdcSCrhNEBJ6kRfJPoDZ6loCzLveGdI3gvRe36DB9E7XlSIPi4xTcSn5Kk2HgWkq+SxY/+hs6QPbwhUJTE4gn8WDRJIskX8KEM+CyRrY8aM0XZHdrLbx4rxsMBRmjt510C5Dul9hhnajI6qSwFqPpxh+RoDirWG3dITSozaKLjDig7JT5os1WMvDCpa8WWTU3iCU+9W+qqW2igSoQtDPOal0ziqqBeHQ3gNdmhaM/Twg3Hqz87KWOcWpNC6Bchp8GeqdA4dblaee2IYKjVi+YkEnzteV3S0GjBVaunynsa9H3URy00CdXmAGlkAqad+QseCpgIjaSNRNWlw72fAG9pBwNGO+iJU2tQ2A6pt+yVC47tkKVWa6DMoEhxNqiNBAkGzexQxZOswUBHXoMWrC/AwJsoNcmkcuC03xA7E2IjD3VTOYypPtgjwSDy2jS9dtqBSZiErQvEZ7UuK1eX2kO+SkImaa52oEWWA13fErXQYQ2tc+xT4CkbXpqdFYD3LMWYhbalxlOcizVgEUJtbouZltpHDWLesM7xiRzd37AoiCP6UmrvxCuaKnFaXV9vdSTPDKolNr4kRgwwY9SXirmeOI3ZwOgLhqDG2hpUeNyhLEvsDeZlJCuuPpU4nZNtDCn2enr/7tW6OCyDoad3F9wW3dirfKOXhex7+S6Jo1Pb52Xt87L2X1/WUB9jvqD4kREU5zXPG9rfYN4vsWjHx6lkmFx7uwOWYD0ZKTIcha4EQiK0eCNchfqs9s1o0nvSDtDE1eJZzyz9+rDCNyYq9l434Ym0b968gGcpC5ajwEdSBJjfvY0n89dtzpP7/XwHb3ofWM4azebeO93/SXycHQKhSpWun835PcV/+FXzn3j8eHtCvTs9PMwvsOv/2ydXfJqfa+P1Xw==);lineShape=1;strokeColor=default;" vertex="1" parent="1">
          <mxGeometry x="335.7838970731682" y="-993.6011362246402" width="9.030917334730475" height="11.246033779275736" as="geometry" />
        </mxCell>
        <mxCell id="opCMUjGsSkM5_SPHou3j-76" value="" style="shape=stencil(7VjLctswDPwaXzEk+MQ5bf8jM3EaT9M446Svvy9UD1UTlFZODz3lZktckVgsliB34ebl4fZ5v2P38no6ftn/ONy9PuzChx3z4elhfzq86q9d+LgLN/fH0/7z6fjt6e78//l2Gjn9+nr8Pn3h5xlXmXyZUOx+nZ9wphj+PPl0Bjweni4AhSm7DuAT1bQOyExROoCQq+vjk46P3fhCqayPj56i7xfkiMEEwVFKPUAgQF9LH0FgChEAPOWe1FjIA0Ah7sdnRxkkoVLkfjzmyEcqBhAby4sAThRqB0iVggekliFkBQBZKCO5n0E/URzQRbQAnj+xDKiN8xngyYMYUiEx0paWmLUZkgFoZkDQSb/XK8lr0AKKR6XsLSAAZWRPzBbgAa1anpwHAANAWAAEkAeVmrEYBdQMARItrQmoNSdKhiWhgGhVyzKu52BFK0AMwEN5TzOEHsBbgNi7EocmlrVM+158QcgDgMq79CxpSaGaVvEZ38uVKmJJmgs1QMUVJ6UtYN4buBG9DKjWlyRQBFoSrbieVontyRqgmiUlaALeOXJ9IiQ3f752CrXvjSD6klMeEki1vo5mSQJrdEoEW0BFicjWXC94WEZoVVc7RUGZCCTZAjyiKTT9X9CENnYVW0k2EYxiYLsHKQ8OVIQuyWpDaQD+rYBsgp5pWKM1ewtgBEhUemfSqCoSUybhNwFq4+TaJVVrNFtBy8CS0oqMRgbxaeJQHmQIukB3VUA0M9StoI0dT/JG9aDtjlgALKDcds2ra1TbvqHkKqqgtwK0ezDdfZ0/sbxrBdveF+2NQclF1UafuRRg0HrgSH1BaCfKQBv/p0/sxfTeJ773if/YJybKAwB2cc7uu8HDE77WV+iNKXLztuUSZUvrRifK0tQ/d6LqGqgpK5alwtiXbP9TImxEh55PXQk1AsOdw+QJyPYGSkNrGtdO+KbP1dOxgKTpDMVU29x6LJ/wpRnKLAtyyPSC1R3ee3K2hwfNGBhfhh7Xb1yaVJtjXZEATSjA+LwWcwEh16FPZ4ZXFAowMfDM2uoMvS44bgUtRhcJeuTEkpkhww26lsFfCjkg1Zqt8hQQEUupCeECUFDQ0drFBEBBa3GxBSSwuVVuXfxl0Egab71nvQKgP/5e694fHh/Pt8KX7+01sD46XyGHj78B);lineShape=1;strokeColor=default;" vertex="1" parent="1">
          <mxGeometry x="348.98486870620377" y="-992.3664944995182" width="10.17138681998733" height="10.419218214868533" as="geometry" />
        </mxCell>
        <mxCell id="opCMUjGsSkM5_SPHou3j-77" value="" style="shape=stencil(lVfZbtswEPwavS7I5fJ6TtP/CBCnFurageNef99VBcbispqgb7I0Y+4xe3AKD2/Hp9fDxO7tdr18Pfycn2/HKXyamOfz8XCdb/o0hccpPLxcrocv18v38/P6+/VpQS5P3y4/ln/4tfIkkU8Li93v9U2gEP+++LziT/N5gw+VQu3w3pMPgODJ5Y6gJ3DZJzCTc71FlYrbJ/hA2XeEWMjXfUKmWjp8FqqC8Fk6fMmUAN4Lee4IVUiAB1yo9CfUSAV4IGpA73INVPw+IWWSnlAKBd4nVG4GvAeJSYBJakAOPcFTRQShwpaQgPRqIhctIQLp1UxchxOQ06WlaesDOqE2KW+jBPKgBJPpHMgBk7xzthyUkVBcK+W+olXeIUGCF0uoKBGFuBdTjlDfmgibuUgJmRSbmjeEjDInlJwlRORDoCiW4EFb0oLI2UYJypUpDGF1SBtKME5rL0bqY0qD+qA0AglbggedbOlbQ1FnRNC8DgSYh0SlDIQMxTd2ATQeVN5ucJpxUaeh9aHmqoRqCBpoXHHWacF50Kk7EDI+wYzpDwjZtRH4PlF0DgOC1GHIZThFdYyaXrnpbf9klNZ7Nyc4IO+hU+qcLsAiN7QxzQKQXqTaN9aY2/K0twdwH9NQYDEsu1dPYFxuulyZoasDCbRJPZ/74vEUgMeKL31IXVPu3nYYo8ELwIt+tni0uYlvdXXHO1DKwhS9xQPFyTAV1B5Q+SIUbXzQ9iyxLV13fEb2DJLzUHG6zZs+4duI2MPH/v+5SXYPL8XgUWf839vFx3h9uF9lXubTab0Jbb/bq4++Wq9N4fEP);lineShape=1;strokeColor=default;" vertex="1" parent="1">
          <mxGeometry x="362.1507903618526" y="-1000.6307932624144" width="8.95684407884597" height="16.49420747314064" as="geometry" />
        </mxCell>
        <mxCell id="opCMUjGsSkM5_SPHou3j-78" value="" style="shape=stencil(rVbLbhsxDPyavRKSqAd5TtP/CBCnXtS1A8fp4+9Ld6u1qWKnKNDbWh5K5AyH0sQPb/un192UwtvlfPq8+zY/X/YTf5hSmo/73Xm+2NfEjxM/vJzOu0/n0/vxefn9+nRFXr++nL5ed/i+xBXidg1K4ceykCOl/Gvl44I/zMc7vAU0dgEpUdbtgCykyQUI5biNVx4PCBQCwBeq6vCRYgL4Rrn4ikkY4IXE42OgVkGAjgVEoSTbATGsFa6cVqqII6Xqj2ArosEi6iBzoghUM5aSTyk3EkSrNZKXoZgOBeqceQwQFBCp+EbKSgJaVXRULluSQGoxlvwJLNQAS9JIBx0CKRDOAsTrYO4pKEDGbo2ZMlDaiq5euNZ7ZYvV6HVL1JDOTEEGeya0f6FQBnwGomkl9fkz1Mw6+/d2t/FSgNnMOsXvH22AoLZTUl+wZSRoIGk3ylqBeQ2nNFDECrvIzNl8zblSRPavFHxKJRAjlTOFP9ys/zPAEhBPa8X2N12HsdqEApjD0o3V8cYzutlqHya3OY9vntI5vzsggFbl0ZkmC4PpkrqxVrytAErNyYMTKjXQd9YCXgFZVzbwwy3VGOYfOhurwhXmH8ZRVxTfm5SqxydS4II03lB2pVWA5z77Vzz3p8ZGP/zbU+rvePu4vdte5sNhefbd/z++82xpeSPy408=);lineShape=1;strokeColor=default;" vertex="1" parent="1">
          <mxGeometry x="362.7316361597909" y="-995.0807100702609" width="6.351640616596561" height="1.4894398458113756" as="geometry" />
        </mxCell>
        <mxCell id="opCMUjGsSkM5_SPHou3j-79" value="" style="shape=stencil(lVbZUsMwDPyavGpsy5eeOf6jMxSaobRMKdffoxBSaqVZhrc03Y290q7sjq9eNqvndRfcy/Gwf1y/93fHTcfXXQj9brM+9Ed96vim46v7/WH9cNi/7u7G38+rATk8Pe3fhi98jDwR4jKwgvsc3xQK8v3idsRv+90ZvjKJNPiQqAJCThRjQ4iFUlkmxEC5JRRPNS4Tgid2DUEyiVsmeKFUW0KlwICg38stQSgkQGAq3hIqIjjy1RIElZVKsPgMisQzfIVF9RRbW0ihDLrmKHjbA1QhR661kUQqcD/e9Jinri/o9a2JJJDLqJ7O7F9XBHo1Nmb/bmr55f0HkjgjIMFav2p3BD0n5IqV/GOqpdxYzUwRrKCEOmuaANFKMFFWV8QACGojE7RCFZW1kMx8LahKcbL9WXAKGhY6XdoteafmBYxyYQWkIVJOFu9RG8h7K9mBUeEozaKJnHdSd8KnP6Jsm6zDBkTtv/jBRa2xcyUGAiJPJjsdOXHy1eXwaxTbFbTIGbVYe9YmQSWAqBUdL9wuMB1Bl/HVRtNTAoqr9rhVjIeLnuLRG3wAFq2ZkjN4FIGqhxEbvAffl1O5f/EJHMiDI00oKQC9OkWirT/Sqwk0GeBpCizha2ugCE/jsxEyERIJMMR/r2l/4/Xh905432+345Xy/H97h9RX4/2Tb74A);lineShape=1;strokeColor=default;" vertex="1" parent="1">
          <mxGeometry x="369.8828945304849" y="-994.474358915324" width="3.3835180280702217" height="7.948533913308188" as="geometry" />
        </mxCell>
        <mxCell id="opCMUjGsSkM5_SPHou3j-80" value="" style="shape=stencil(lZbbTsMwDIafprdWYufgXHN4DyQ2VjE2NMbp7XGp0tVBddld1uZrbP+/vXR087Z7eN106N7Op+Pz5rN/PO86uu0Q+8Nuc+rPsurorqOb7fG0eTod3w+P4+/Xh2HnsHo5fgxf+Bq5UqCUgUL3PT7JCZB/n9yPwL4/zAEG7xTABJwNACGRAoqDlJYBDuCDBiKUsAxkgogaKOCNkJKHonPwzoFzy0R0EFgfwUBxGQgCJA0EIKOuhMBaCGaItAygvM4a8EDFADIULYQULnsjJA9O55ASkAXkVuoo9rKqlKqwExCBLB0YnJY6St0Mb6RSU5wDRkjsIJdrQhI3Nw2xknRJ1f7/LKu4OWvzDcKhCfh4jTXEm6zLumI+zoD6hMHexglZgGYK2A2UIrAWbrVHZW40PWqPgUBtB60MGorgmhNklBlJYIGkkxiGpTH7pEezFmJlHF8N+FRrMrmvQLSUq7pO+719QDtbowc2rDSJWvcHXztw4fuNVWVMZevfAVCPGERAwxU+1u6djEd1cC5JEDQgRxo+DX/GKkIwAoqprZCUzIgn+1Yxu2841UacxWPsn/XhJWGnHCGLy4Vj2+/3431l/r69oMij8XJDdz8=);lineShape=1;strokeColor=default;" vertex="1" parent="1">
          <mxGeometry x="376.00357487799033" y="-1000.5069488301563" width="1.5063802950690246" height="2.2918957159205595" as="geometry" />
        </mxCell>
        <mxCell id="opCMUjGsSkM5_SPHou3j-81" value="" style="shape=stencil(lVdJcttADHwNr6gZYNaz4/zDVZYjVRTJJSvb7wOGRUoAw3Z8oyg0B0ujgRnk4W3/9LobOLxdL+evu5+H5+t+kE8D8+G0310OV30a5HGQh5fzZfflcv5+ep5+vz6NluPTt/OP8Qu/JlxJlHhEcfg9vUlMsf9983kCHA+nO0AWStUAuBPzNiBlqsECmGraBkghzgYQK9W2DeBIJXqXpG4DYiIRG/SShn8COnV7QInEAdnHZOxrpZyBQ0LBhtwahQhCZmrdADqTAI+k+joroABAztSKdSlTBsSoidgFzZQAoBVK9gQ9M4As9VWdlSoFMKkHEnuCUqUCYmg3xGZjgHUrymR29gzKprRxIRfKyD7Mxy8pogx4qvbB+q9MR/4HirY3hSL+frH2kXqB8WbLiUAdUELz2djZC8pPmkl/sw+A1CWvvx+AspTqOR0wHxpJd/kRlB8VCkdQqENq78RXqGB7tv4kaqBh1P9ihTFTR/Fqe3g+NwH2ZW6PW78kVK9EpTv7jOol8+y62aNBoPxs2fmPJo3yv0WXn4bto+/HivsxWL4JZZRPbQ/7fZ4n21a80fOTcT+K5ZvyH9VLqHZnHxD/M8mqH1G/f9C+t7mcdwMggIBjWARkqUCjiI5Ic4QLJRol0GNtxQldDtA+lLtfoHR0R5DVcda7BSpgXYzNr1yauQ6Inf3c6Divq6xqzAkQNfhJr0koaCv1+1OKcLsZFy63MibIbP272M6MDKVFVHqrKwIxCFkXa1mtvbB54moTV3UBVNV9rFnmCa5CFb+uaDMImDcKqG4+dSgwI8AJZHgPkNxEUwkDWdKgu5WM8YIDNFgBjtsK6IAaNa6WruWOtDWVvUvy7ljuHgD3rpUCjCegwaODeRUDVPrsFWPMEorhoxfN/wDow+1e+3I4Hqdr8f3//h6sr6Y7tDz+AQ==);lineShape=1;strokeColor=default;" vertex="1" parent="1">
          <mxGeometry x="377.49128132415126" y="-994.682434165054" width="8.275313148555268" height="10.288810438461622" as="geometry" />
        </mxCell>
        <mxCell id="opCMUjGsSkM5_SPHou3j-82" value="" style="shape=stencil(7VnbThwxDP2aebWSOImTZ0r/A4mlrEpZtEAvf19PV1kmzsxpkXioEG+zO3bi2MfHdmbii8fbq4fdFNzj0/Hwdfdjf/10O/GnKYT9/e3uuH/Sp4kvJ764ORx3X46H5/vr0++Hq1lyfvp2+D6v8POk5yjkWSm4X6c/OFDxf/75fJK/298v5CMl38kHphCRfHa9fKTI2/KJPA/rZyRfzfqBQtmWz1T68wZPCdgjVJOVd7ItX8kbe1yzcFXeDwGYNwAH9p54sCgFoBCIw+AitAOTq0MMgI9UIUcbZK5QoRqTEmVsklXIVEEYZpOMlwrEqSqIdAqxkCCTAsV+h+ybGzYD17s1F3IocJ58D42s6ALYVizlfgdRdCWo4Hq0iu4JFGp7u5AvQL6Q750qCkaQDUI+WPkIwpxbLi7Xh2xh5T1VIB+bvxfyDNiRKWYbgAgwESy7aIQj8E+g3NuvEEIBDjYxs0D28s17TT4JCch8bsxzTppIAuzPNgXYY6IY2dG1pFhXSCS9RbqEoAhoiI1JkK9ZbNo7iOjENsXOObfuodrK0Ys9DiCuqP19iHUBwBE1DsTIrWRthGAgCcYgrWrBgKIKUFSV/E2aJSqAGUuwsKgF4q74loZnhQqJpTgbZlWoIA5SicugAAIhxdZxVUA1UKRZvDg03EF7HbYKDvU6mWKfC1WXAOm5opBaCfpXk2IDy+ahjVu5dZSbbjXQCBB8c+CqVcgo45wl+VkBxGEGX7Jn8K+DNyalcu7ZF25Fhy5KKiYfMmQB3cE0YFUogEiXsIJWxl6SIUVRbdM4SLUKaHTRSJsdFty2BaY8boEUZO0QoPyogvODmwAxaQYZcp0DgVnAoi+3/n5LwbDxDCYAVz1DMEnNmDbWFCC+q50iJZJDVU4Hlh6uWoIyKkHc2P3cyXjIxmUoctq8CkrqYW7zGUZaW7s4tjKouWXbbRc4tmkZZ2fkEbj1te2ttPsHUdD2czyyBxnqZRgktcNEzUm0oyozpKXZYjPmZZg+3lknpQLT52PMmz7GvP98zIsUzPp4SBou5aIWKShv2JcTJZAzb3JJCM77JpeEqIq/i0tCP7joPVwSYoXXXRJqA9nLswYG9S22G+SMe+C2+1leIC+KvYznAl2qnZ3JywprWbJ5yRVelg8fB1QeTUbcsny5PuTROKwP+4kV/0QgryxYrP9R++Esj2p8I8iy8SYlwZwZ5SOcV177Mefv8vrw8uXoZn93d/rwtHxvvzTpX6evVHz5Gw==);lineShape=1;strokeColor=default;" vertex="1" parent="1">
          <mxGeometry x="388.870586906522" y="-994.7616184422241" width="11.309247659754844" height="10.075722874028324" as="geometry" />
        </mxCell>
        <mxCell id="opCMUjGsSkM5_SPHou3j-83" value="" style="shape=stencil(lVZJchsxDHzNXFEgwfXsOP9wleVIFUVyyUpi/z5QxoyG4Kgrus3SDWJpEJjk4W379LqZPL+dT8fvm9+75/N2ki+T97vDdnPanfVpksdJHl6Op8230/Hn4Xl+f326IC9PP46/LhbeZ55jJuYLzfPH/MlTDH8/fJ0J+91hQaiJSu3wLhBXQGAKrj+gtiNXCYWbvUYIiaq7TUiRUuoIKVAEhOiJpSPkQgm45PR3H0PFMbhEkiwhCiAIhYFQCiAw+d6lRSnX00T1rhO0rGEIASjDUc5DjkAVmMTgC0lEeCPUmil5hE+9jFS6FeTHD/4k8hnlpxh8pALsZ6re4iPw3zlbYSUEJIlAUi0hgQhcJudtyIxOqCuEz95bzymTMy7l1hm3CDboAq+Xi0uDjDIi5MGl2ip/K62fWV8Q4AmOZLgtKiBohH7Ag04IK52cQNk8haGTPezMLDalEdjn1ueLIheQUW59vsA7fLMY+4kCqtideNHG6QuQM2Wg0pAp9BpKQhlkKGkv9xrSmSZAEpmp9DX2eETlYeLoSEFF0JFn+sA32d7Cp14VrslkHf9Pk1e8Q00wpIih/SIkYvDoZinRqkLvJhBv0WnEBo/Gq+455n7ntmWs43XiR4P3yL76b+0HtHflppcrHo0/7fFqFjsKCK/bg1lA2rV0Y2G5c9P8D4I+XBfbl91+P+/Fy/92EdZP8xItj38A);lineShape=1;strokeColor=#007FFF;" vertex="1" parent="1">
          <mxGeometry x="37.52631025927474" y="-946.8854745837864" width="4.015014528932342" height="18.015751337114455" as="geometry" />
        </mxCell>
        <mxCell id="opCMUjGsSkM5_SPHou3j-84" value="" style="shape=stencil(lVfLctswDPwaXzEEQRLkOU3/IzNxGk/TOOM4ffx9oXroiJC0nt5keUHhtQtwJ3fvzw9v+10M7+fT8fv+1+Hx/LyTL7sYD6/P+9PhbE87ud/J3dPxtP92On68Pl5+vz1MyOnpx/HndMLvi12jHCejGP5cXrBQSP/efL3gXw6vMzwXijoYVKqyjY+ZUh3wiRLASyaVAR+o8jY+Ne9PoBC28UUojucz5bqNV+3p6HilDPJTG/HoDysMoCmlNhhIJGmgAuEaYbfIgSSDTxRqY8xFqQEDC0JGgyrEIAhNJGOVm1ACacrF912rVIBLcv37mteAK22Freo/0YABUxy/MNWybOOD7+xaexY28KGMeIVUCL7zarmBTzzijXuK4mV3foIliMTZ4wM4X0jc+UIK8pM6EWf4GkEPkS78Z+BPIQ0eX0E/KEnx+UT5Ud+hVq8C6mVC4vB6Ax8cvvYTNuKNrh+M1iDeTCwer0CIhNri/AbyH6lUj0ejgxf90G7wy9fXNAPylxd8VIh3smv1xfjo+jPD/rdB5/xJN/RKm8dHoLnRT4GJX6B/kp9kE39BfTOJen8C4G9Z6JUpAOTvCh7k3wJ2BLOhhAhgM8YxrKWuAesRJz8y7AsRGOiyhyqexFY010QBitDE2dHAZj1S6Wa0HCexbRMNxNAC5bGPJPVJu+6S+Mb4HCXrWRI/+WwpTaiTmNoYQ4VKmq7CM1vq0FJqS2ZzeJQiCV5KmeFWvdQ6Tl0N1rmf/PLBWOwsg/4Lre8j6wZxxSCidYI7G+cGQO84eH6aAQN+NirJx6ygLaoXVMMzcKh27s5W9wwXhOoyVPrlZQPvqMkZCrx2eZ7hA/Z/FBfrkggGeO1yPqNZgfn/v7vibbw9fF5Mnw4vL5d77fx/f5G1V5dLsNz/BQ==);lineShape=1;strokeColor=#007FFF;" vertex="1" parent="1">
          <mxGeometry x="39.21085314813001" y="-944.960616402144" width="10.022889493343115" height="12.370225635856263" as="geometry" />
        </mxCell>
        <mxCell id="opCMUjGsSkM5_SPHou3j-85" value="" style="shape=stencil(7VnLchw3DPyavaJIgiTIs+P8h6ssR1tRJJcs5/H36ckWN0Nwph0fU+WbtMteEkCjAYIXfffl8cPnh0sKX95eX359+OP68e3xoj9dUro+Pz68Xt/w10XfX/Tdp5fXh19eX74+f7z9//nDtnL767eX37df+POGi5L6Bkrhr9sHViXXfz75+bb+6fq8W9+k1Xl9lN7P18cq0SZANWnhHJBUYpgBSSwRAI4UJ0AxSfkcoElCmgFJlO3Qpcw75MIBRdK8Q4ZVhXgJO8xhyDCaeClmKXkGZB6HINpmo4Nk4iUTneNWuig5kQ0D72HrUonJ3fPCmnTmIhWbAS1TA0BtawvACC9U1HEbTiA+zUiVOcy1SCO8KE2izlHrI46HAOSKSwaQl0YhjAMMQGyikQAWAajSiZMqvnbUFmMWIGzz74OJoREAaDmHDYFsxAI4VecdtEolRwIgzLmD/A8kzmB+cRpWJZAjQbG8SmYaBfyezV4F9QKRYYQtz8SwIoURo0ifNQxUYeS2e/rudZi4tYFJTocL1bAWpMw7lEhLAwC2ABLRDBwpLKJnHFCSBygDgDnqASxwANQ5cJCATqjRUDn6AmBeQsbV5UgscNlLwGY02+Ge8jtAJVxqZYlDlEhEAAANHmDKAW4HXtPbvYLvADQOwRuNfGA2bAk0H8nSyJCzHVwcNrIwLiFw8w49UBHobaTLHVCGPJ8B2nykzpWvd8nqAZnEAQBXsADgjQzYPHOjG+80kC9zQsAsJWQCwKIHsKIIQJoLBD75RiBq94DGbGheZ3Z+OEbYEK7dFp1ZXT3BAWB1FIC0ACJzU/G9A8wqhOAAuNYeVjXG13UHozl3YEMdAn3qpYXgkbl1jQOsYm5t/nqyJSnz0kqmQqXsgK5wA9thTYjKdWNNOaMycJTVaJa5EV442rghnErTQlflgejBA1j3cCCvneuGSWkLgNSU7wZsPZbjRqL83vrE2Qb0E6xfB8Bf5CKlq1XPPrT8ldfFH33ijz7x/9InFsnOS5XTW6XOO9RM701oLJ3MmNIpAvpOV0aN61ItvioipZjM4IYclzEiq4pliQOuwIUB1Nfd7dLOxgI62sjdWCCwHfD17NYUqFthtBttGNUAeNWNyIJksh466koi7/igxI4XdYwhjtdnP3SIfUzAzoZLrtHQTNOzRj8gQ3qyIR8kyw3Iahsd3fHMrgwX7plKJCbhAI7ajRbEGMfQ8A6w0Q0d08K3bzgRS4U0muzd4LQwC/wgpxgdOlbf9mQ+1YzJ0yjjYso81P20S41Ou5AnTo+UDylVpc0xyHwMilRvbtDa+JtA8Q1ryeP6fgyI/kjb4JKEIRXfr0LxMjE6Nt+62Z27Z0x1zxQQYdbgZq9HaGvYK4X6PqxFbrJn6tY2kd9fiNfuFh0b7Asn1rNaHkfH9R+r2tI7b50o+f2w1OVO1S74OTTWs/MvVyRrdD4UxgVqt56VzOWJyGxMmU/WuwcW8K2RtuJ73xq/vR5//Puw+en69HR7F91/7x9C8dHtEVXf/w0=);lineShape=1;strokeColor=#007FFF;" vertex="1" parent="1">
          <mxGeometry x="50.288789773872395" y="-946.1247860130603" width="17.261894129725267" height="17.0926627393804" as="geometry" />
        </mxCell>
        <mxCell id="opCMUjGsSkM5_SPHou3j-86" value="" style="shape=stencil(lZbdUttADIWfxrdnpNX+XlN4D2YIjYc0YUKg5e3R1mOIlkSd3vnv88pHR8c7yc3L9v55MwV6OR0PT5vf88NpO8mPKYR5v90c55MeTXI7yc3j4bj5eTy87h+W8+f7/mQ/+nV462/4s3CNUEKnAr0vV2JCan+v3C3Abt6fAxmlGCAJWnWAhsoGyIKaXSCJAUoEeyUltGyAqis4QG2IFmiMFh1AVbIltYLE14FCyFYlJgLRdSITJNolGtiRKRGq7ZzqQE4jooBtI2oFO4BUkAVK84EMsrrmBhIHKGMjUkV1VIphXCGqW5zO6W1pFggITklaQK4G0CKzs0KuaMkCGSE53lARrZlU6OB8dG+TXUFbGfyBoGFG6V8zykPjCLFcB87c/OkNWoPh8hI6MBbQofJa3UdysGtbX3FZJh36YUg1GJySeqzYkr6i53KrBeXbjFYnBjQa6wBofHozmhCHoVZZHTN1QP4HkDima09Dx0whrm7+BBKyE0yc1rQ+i43ofHRBtW4tDHHaEMYwzrym7cXn1ar2AxKvKXLteWuLSODg1ZNsYgRfUc0TWz831xQcR4GYkZweBxmBBHEmRz0x/Bm0AY6garpBofHfpgdfO47HebdbNizn98cdil5adjdy+wE=);lineShape=1;strokeColor=#007FFF;" vertex="1" parent="1">
          <mxGeometry x="65.83665859335383" y="-945.1686478838196" width="1.7342225794745587" height="1.7395425942100733" as="geometry" />
        </mxCell>
        <mxCell id="opCMUjGsSkM5_SPHou3j-87" value="" style="shape=stencil(rVfLbhsxDPyavRKUqOc5Tf8jQJzaqGsHjtsmf19uF2ub3PUUAXpbyzOSyOFLgzy8bZ9eN0Pkt/Pp+H3ze/d83g7yZYhxd9huTruzfg3yOMjDy/G0+XY6/jw8T79fn0bk+PXj+Gvc4X3iSSPmkRX5Y1pp1OTvwtcJv98dbvCxUhSDD4VaAwQmLoagW7R8n6D7STeElChiQrSEEiknQOhUrc21UwjAhkIhWyd1SvE+IVViS6iJGjgh65WsDTnNl1wl1Eg9GoJEEuClVoitcJ0iMKFVCvaASr0AfJsNvKhAHcRFZ2/ARfd1vPjAU9mByD1TZofPwD+9UmrO3oju02bzrokjFeA7teT8jwRWfLd5E8KsyD2CuMyMlLAFbBUIQgWZoGlQLSFRBsVCNfM2JBwUgUr6DGHMwwUh47AuvDAa543wwq3ASy1Tsak8CgeUVkKzOnQog97IHdBw5jcKFq+RjWRmjy+wnHb1R3F4mJla2TweZr42mOruzyhz2pzoN5ULBZ26e1EZUftg9j0zMIyh8QSXaXFuEP+H0IqvRpJhOdJ+5ETLWg4AoQSvmjZNZHTSK1kvaUlGOqjbu8vlq6fXlRBi23O04lQQStm35caUwAFM1UaeThbI5kVgJJlr7CpefI/SlYpGHZl79k0TAaEaNdWsgwKcvcbMtQZrlwZBoZXHDQkMS5FoaSkOD/0Tl/dBASHJ90CGTVzU3uDwDdgr1Q85YXbwOr4T25COc0Tdw7tWIND/iee59ZLFcFQe9/9MaVd88KW3giFw9TWB9v/n60M/rk+Xl91+P718bv/3Tx1dmp5J8vgH);lineShape=1;strokeColor=#007FFF;" vertex="1" parent="1">
          <mxGeometry x="73.22100421079028" y="-940.0168504259419" width="5.343695634921523" height="8.709610531522983" as="geometry" />
        </mxCell>
        <mxCell id="opCMUjGsSkM5_SPHou3j-88" value="" style="shape=stencil(7VnLbhsxDPwaXwlJ1POctv8RIE5jNI2DJH39fbk1pFjj7BhBeyngm7MZrvgcUtyNXj3fXT9uN8E9vzztv2x/7G5e7jb6YRPC7uFu+7R7sV8b/bjRq9v90/bz0/7bw83h78frBbn8+rr/vrzh50FOpbVFKLhfhwfZSS5/nnw64O93D0f4KmXGRy+xreN9kOwnAXuFj0QgSZsFvEoOXCDPKklk+CyhTngV5fgSZgv4+4uENBsgJVN8RbxWgq8SC+I9wTdxFfCJBaBJjmCvIxkRnHgFfOX45MH/lWSQ4csc3ySO+NPwdfZPFlWOn/UvPWXX8OCfKpUnNJSMtwAkIuBRIQuJJxlXuj+GQ4MEEoEoaU7oWLqKa/g5gTLP6CJ+DkCxEJIImIfggGIpTTy0hGC2OEdaw5YyUMMpSCIqqRc3B1lbp5m3BZJkqIIm0RGnesmz0VaXkdR9bN2JQ8CJksRLtTPzEIjiiQ25YGZbInmiUkndxJFJRsZEpWq1D7UZaGpX45I50qV1+nhbQCXO7NKsGLiAn21oI9/XBKDcWpJ6xobZ6GYVy1Sy3IQTKqVgEwAKNgEaB49duTVu9Ek9mMCZSMdZwDsnjhSEBRb6oB1BaaaJOhQIRKdSkVjNTZGdcNJqLXKRBMIEwswzjTcfE/AgkHo+rgrMRV1Cf7IauZlnkpErE0idSgcLGDERG8xEhwNJIl41PFClow3XfA4KWSIRA5ZiSYgnaWH4gnhGxJZlCqktyuy1NJ79Y/XN9G84k0euv+Hn9yc6Xyz6zP7M/QVr+DDTUaVtxPyZE+Ab82fpTDJqgHZ/wwcgLwk8PxMObJnhE/q/nMNDPmc6kBs+YnxZ/zB8mvH8wtJOb1B0dDH/RKxHNpAv3asCnnVYw1cHeNYILH9gPnX9xraWnz6DvY75p2F+GoPyeoH8VH6Bem10RzcWfkDFBErcgIg3lsoc+k58bZ3/hsGJ95iTCkhGWaRklqFrdmlR2icvU9plSvu/pjS4q9kthC11FoE51BbLwryUkeRzpqG2MRG8lPieJo96GW3KSSMVlArytipVyW60UHLqulVvC5xsK02gkDjYpR1WEcojrRGZLPJmvtzyYTvVuID2xcMR9SUSB2/tGcapwOdN7D7GhUoO0D49DYWyBML2J93N7vCB6DOm9eHS2C/1K/oAfpmnCL729fArh9F57Z8sjNn7Lwvjy8L4LxbGi39gYVzoKtESDhQy4qURVjzBWI5NqBV3ldYc2Pq0dgceNSdWkgW3fLnQCbh08wa+0hE+9y5xhGdfrU42GoZnW8eEFJ3HiLGyUa8N7c2sU+JS0/zJN/YwB+axAF+hXLih5UjtVZxWstIroOFPviCwRv/er5Ln8fbj9RPo7e7+/vAF9fj/+MnUHh0+t+rH3w==);lineShape=1;strokeColor=#007FFF;" vertex="1" parent="1">
          <mxGeometry x="82.09440168116532" y="-938.5226227410625" width="17.022634296959513" height="8.205327347692407" as="geometry" />
        </mxCell>
        <mxCell id="opCMUjGsSkM5_SPHou3j-89" value="" style="shape=stencil(7VjLbhsxDPwaXwmJelHnNP2PAHFqo64dOE4ff19ut9qsKHuQXoPe7F3Niq8ZUtqEu5fdw/N2w+7lcj593f7YP152m/Bpw7w/7rbn/UV/bcL9Jtw9nc7bL+fT6/Fx/v/8MK2cfn07fZ++8HPGlUo1Tih2v+YnvlJIf558ngGH/XEFyEwp9ABPlW8DkqPqeoCjAnYImbwxSffMtwEcKfYAfZKAST42ixsgBorlNqCS69fnSCGAIFHs1wtTBut9IdfHSIQEuZyp9FkQDaoDQRWKzrqQ4m1AzFdihHZImqR+B06UBABSM2DJc6DkAUCd7k3S0nMgSqmQrx2gkoDK0/V/Xy9RJQFpS0I5m/XQnkqpdOsLZRDS7GyECkXw/extCvT7mMumKIQ8+n6w8RSqgDa6XkzCHDnEm0jcB1QzzMii2Hi70ooMamgC9ClWMXAoB2qSka+EuZ8a1RsgJMi0LMS9SZNkAvkqKj6jHAGn68DlkojBDlXruFiAoB1qy+sCyCQVAoopVYF9xzs3aKQ+AXHVLarvAZ4KECQFmD4igQICiE21RMoIUKwAiNYG8FozFwYAjGtqDF4BMmptsUnWyoeKUj2KQKCMTFJGmrAyecAgBURjkqOITOJmwKqYUK9SH1h6gLYKlLjYXq/qG8mG5iGY+l6e3Mp0GjjqUWkUKt4C0Jik1Vqi9SFijiZvo4T6YR2GSR0vUcOaAH1YlaKMolQHxjEJKm/tUANFGTldrA9KoIC0MjdRWVMU6dJC+TUAlfeS13cCcmkaseTBYYAj7p1OAXZ2nZTMRKxNDp4CshVjxiLwf9j7EMMeKIkPMeyNp+GCT0liq07LFJ1VlYhmsoqq4yAPekwzJhXfTuDXj4bORqk68gCgLnLP5dVwdt0J6/Q0CAGJHEc9bifq68dh2wqVTAVptm3OobTeeP37joI5qupgBkpV1dAZuYMXDMm3AaetxwHVQs2GbLBJTROXJbNH60OrgLf1aIrU9WLFFx3lJdppR8UCqeM0lJoMeNj4ZZmeVrcLDPRxApiqjk3xb5kkQ1E47HQwJimTgLpMg7URPME+cGthq9s8aJIfLufwxKaTuOnjCkC3PP98wfgOgP54u8982h8O83Xo+r29/9RH891puP8N);lineShape=1;strokeColor=#007FFF;" vertex="1" parent="1">
          <mxGeometry x="103.55734103995906" y="-939.1930441655778" width="10.58516075454228" height="7.42822369097204" as="geometry" />
        </mxCell>
        <mxCell id="opCMUjGsSkM5_SPHou3j-90" value="" style="shape=stencil(7VjLbhsxDPwaXwmKelHntP2PAHEao2kSOOnr78utq+2KciYN0EuB3Pzg7FIkZ0hqFy8eby4f9jvhx6fj/af9t8PV080uvtuJHO5u9sfDk33axfe7eHF9f9x/PN5/ubs6fX+4XCyXT5/vvy5P+H7CFabGC0r4x+mXwCTt1y8fToDbw90GkCOlNAAStfq8faqUdHxBoFoAIFKoA0AyBXkeEFv/e/XIfARviIViGADFXAoAkIjjAKiZNAJAJBnfoIlyggAeo6SFAkhDFNLmAaoQ8DsmK6BSRocOpGNYVYlRWANx8ICEXOLp0ApLQ9oZADq0rB5vASBxUombBxQQJSkk0QMkA0DuUd/koWIAswcEBEhUHaDAPBig5BGQqSJA9pk2PlQgAhbW5BhnpcGwlupYfEbRiEWgjICcKQKXMlN2AGMIKI1iFK0eEMAZavWMM5cEnKExBfWHFuBSa/15ax4YviEwT8XEpECYWuhn7ADzUgDAKsHJd7NyBQzKieJIuY2X53OdPastEEi/w3RoIzXQGaY4MU6hvX9+oQbtQ/L2DPLM/XQbfqLmEKi45yco9dJLYGPPqKf7OtVIDZRd9lR74fnFk3/xHzHtjH4FoF86abbFH/ivFKfm3AAHdGoiVj9AsatnwFKfwN7mF9fVGuw52XPY7AsiGNU02aOO40dCs0fqHvz89UIbZ0pTfAKIv/Ex+/gL5q+ztwhDPrqR1uotgfiESU8S1CuL51T/cBik6uo5wvrM0xhl9uD5Fo1JH1B86sQX2xH+ob01ABkT1kwgULOXHo8NADIy9ICvAEsKeMOiUK/SCGusnmQMg2oAHVlfI5zHlyC6oav0Qjx/6NSreDN/ZFQX0Tey3CDRbHl0o+kCAMxPpQv/6hJDqiX2byipDyTPLYN1zHRpcKG1ZVBGQC1wcHzb7Trgbbf7L3a7uVlBl6bbFFsBEKeXcWpUDZMZSFHuWr1e8AicR4yieUyctUhIIO0xWeWeBChlmiZahgNJVq+seMMp1hFH+0yKBmb1F1QF3oAV9RMMLjuzL95eUWNQv42/MNCq19QGl3eLj9sQAneBOg8ofgAwALqQMwBP96JoJrE208aUBatqlIPoq9oAqOiK9DuWDQCuUetF6+YMSINffRn8FwD78Ofu+fpwe3u6ut7+7++q7afTPXd8/xM=);lineShape=1;strokeColor=#007FFF;" vertex="1" parent="1">
          <mxGeometry x="113.50336340842591" y="-946.2137089201467" width="9.7010627317482" height="14.164748302392065" as="geometry" />
        </mxCell>
        <mxCell id="opCMUjGsSkM5_SPHou3j-91" value="" style="shape=stencil(lVbZctswDPwavWIIgOdzmv5HZuLUmrp2xnF6/H3hqpqIkLSdvsn0Lkkcu8SgD2/Hp9fDIOHtdr18PfwYn2/HQT8NIuP5eLiON/sa9HHQh5fL9fDlenk/P0+/X5/uyPvXt8v3+w4/J15rlOXOkvBrWlEq/Gfh84Q/jecFvgZqpcNzopz3CbkQa38AU1FAsBNqR4gNXilV4twR7Mwa9wlRPKEVSuCEGCi2nlBJyz5BM9XQExpxAASmmD0hp32CJArqCQ0Q2LLUVoQKCDxfYEEoAgo3R7jAC4jZqsA+qX/TvIkPxH2nWtVQigKp2z9TAUUTyn3ftQQzmn2fGl7A/ixUXELj3CbbhEYxeEICGbIriXgCEqcKpeBjCEAJWuYLLAgZxGDSadFXQcGVTJw+hjKvbBOYZCXOALKklUQ9oQIlqJKupIM6VezGK+mgE6xXo3PVECig3tBVM9kRwFbLhiNF5Egk0SepQLUlhy9z5XfwIXh8AH2xiUdqS77K9iqgALjMbrV4dyIqmpD2JTAXZ1ACNW31jsGmZxBzYt8WplcQQlLfdwx7IpkU1eEZ9LU9zanXZoAOnBOl6vAC4i3sa2ZVBz1UVrMFFk0Vah7PYP9qr3xw+AjibeLNztwPWJdZYcou/wnhK7Ueb2YJ3HphIh+EBgrwv9Pgv/H28TF6voyn0zS5Lv/3o6otTWOuPv4G);lineShape=1;strokeColor=#007FFF;" vertex="1" parent="1">
          <mxGeometry x="125.33824876262611" y="-945.4839052381028" width="1.6975899876483866" height="13.24310234185579" as="geometry" />
        </mxCell>
        <mxCell id="opCMUjGsSkM5_SPHou3j-92" value="" style="shape=stencil(rZfZbttADEW/Rq/EDMnZntP0PwLEqY26ceA4Xf6+VFWpHsq6aYG+ybKPh+slZ5C71/3Dy27g8Ho5nz7vvh0eL/tBPgzMh+f97ny42NMg94PcPZ3Ou0/n09vz4/T55WH85fj05fR1/IfvE6dKtY4Uhx/Tm5yo6a83HyfgeHi+ArJQzh2QmKpsA6VRCB0gjSIAaqbCHcCFOAOgzl/PQMykBQBMHDugUQ3AhUjaB6lQAQalTLX1BgWKvA1YREJ/QLQTQBZYiV1QI2VwQhSKvcvaYIyi+dz7kDM0KVYK2gE1UAN5lkCaeqBRa9uAWlZd2oQE5KFkSu4EoQp8KJVi8EAAlWEuht4kq62EAPaZtje/vboN6A2ggEzXRJW9D4qA4kvDzoQmFaoOSJTfAVwe8iw7WwBLDyyZ2dIMn4d3REZJ2AMViQyT9OXdwmzkVmlw8UAE5W3FJ+JNQh1XVkJpUULaXZY0LUCBThsQnUkZyowBsioNSdCH6FRDcZQKJQcIMXK6zQZcNRDyoUaSVccJMGnsL/VAQvMnETfvQwRRqov0XkUpIKBQTj4PjBqoUHO1ZGqL+sHysKqlgkQg+yFq1Vr/J6AmjH3HxRCgfLNpb6/3TSmh6lupBp4Pwe8+NkQVzXUvYzbz0Ei0sd761cdMVKCstia49rFBj4o7LRNzOQF6bAqQeotwChp7mUxzYd32OKxiatteBkLcrBf6bhvXPdQ8zW8BahIDglpsDemBZO0EnE7JD3VbMQV4PWaheaABk2wp1z4NhWE/pzBbfAWgfrb9kesKAHlQ04fVCSjVVvucPBCAD2phZR8ltMnoarkqgTJInBWC06TcKIM8jJXT5yHXuRw3T+hHbl7itgU0Z1KedXDL6X+78v0FYA9/bphPh+NxuqBef+9vpPZqus3K/U8=);lineShape=1;strokeColor=#007FFF;" vertex="1" parent="1">
          <mxGeometry x="129.61330306418085" y="-941.9067781898389" width="6.43122222796827" height="10.466491745608767" as="geometry" />
        </mxCell>
        <mxCell id="opCMUjGsSkM5_SPHou3j-93" value="" style="shape=stencil(rZfbbtswDIafxrcERZ2vu+49CjRdjGVJkWantx89Q45FJ38wYHeOzU88iPylDP7pY//yvhuEPy7n09fdz/H1sh/8p0FkPO535/GiT4N/HvzT2+m8+3I+fT++zr/fXybL6enb6ce0wq+Z8xTcBAn/nl8wZf774vNsfhiPK/NCMXfmiWq5b+4SBe7s9U2R+8C0Xu/AMwXgIThKpQNCJpfvAzFZIAlVkHJ2JKkDsi7hQI0Cub6mRUMCHqpWVTqgBhIPgEpcLRArBGKfQ40kYB8UKH2VaiIOYKeZidkSNUEX1WSd4UYokGIPFMoRAmI8VAqoroVSskBBORTiPqRVHW4TuUWwdoFi0oGpFvBgIhQI2ZYpYcCWKVMBDa6AM2XSIMHM6WdveiNSRTunE+Yt4BCQ7cxNE4GBtBkhQUkX8pshRUKjQN2EFMAITc258YDUVYFcbZUeDETdTHV6AJheyo+EJpvWKBQw4E1IFWtfaRO5AmDSxer3lBUKKW+ab5Gq/wMUIW/KKsQg6aRVMkeKawf37VNu6f7llNMggS75ak/q6KAuiTZz78FHYpC083bjxLXbxO0cmkQs2uqgaOjNpe+kCGWPrRCrwoB8uQ37cs9oMnvHnPvVPWW4ujk8BZ6d3O4TV3OkXWy7RwsPzVOvQ9yU7PbG2lQZypxrenA1R3V3bVav5uh8le3qDHpGrCAyCZCGf7wtPzTXh+vF/G08HOZ7/fq7vcjrq/lPgH/+Aw==);lineShape=1;strokeColor=#007FFF;" vertex="1" parent="1">
          <mxGeometry x="99.32211127264293" y="-915.8163173049193" width="19.19636481461739" height="12.631656667803217" as="geometry" />
        </mxCell>
        <mxCell id="opCMUjGsSkM5_SPHou3j-94" value="" style="shape=stencil(lVfLctswDPwaXTEkSPBxTtP/yEyc2lPXzjhO2/x9oKp0RbDaTG56YAUQ2AWgKdy97B+edxO7l+vl/H336/B43U/hy8R8OO13l8NVr6ZwP4W7p/Nl9+1yfj09LvfPD7PlfPXj/HP+wu8F5wNxmFHs3v4+oSh/Hnxd7I+H08qeC2Xu7ZkkbAOikPgOwIGc2wakSNV1gBCppG1ACS2ABlCfGQBqJh87gAiVug3wzrWQGyIlEnCIUiwgax6AixSo1g6gx/IZxFSIUweohZIHgERJekClEAEgkmQLKAwATNzndZW4/1eipX3tAbAvUx4iiohL5HnIUdm2F3ImHvUI7JWYfZVrogyqLMSltxeY0UTRnFfFAfIzciJSAPnxron9BlAeIhJxi3cFQBXzMpQgkkch5fZ6BUjIQxloKhRBR/JKe3PoRAFJTQEDLSBAWTZoMyDlZOJBmx6dQVpdV4CM0qpNN1hABdRWaoztooJ2UShGay/AQWrdapUjxG0ZqlYgkVSb5vsZplSGBCVon2yHV9ox1PLn7EXd96zLOntBQDm1XnUDMEVQgZKt+nWqIZoWPUPPa8G8zrpd9IeOBU5aiVYIIVMFUtPdQPqQ5qaP2kWyg1a1FNHwt3WLcN9xVpjaH0H8w2KhUx+sLo68Waaa6jbMk13uMsoNidntoAKYcq/4m7sNQbI35gz1XpIxd+Co2U6BjzYPtl+H/dZRCcYezhgmX4x9Qd32k2v4x/Z68W/nfzocj8svw/q9/UfQR8v/Rbh/Bw==);lineShape=1;strokeColor=#007FFF;" vertex="1" parent="1">
          <mxGeometry x="114.49297699335455" y="-914.4378934018715" width="5.670185197527174" height="13.490482181113341" as="geometry" />
        </mxCell>
        <mxCell id="opCMUjGsSkM5_SPHou3j-95" value="" style="shape=stencil(lVbZbuMwDPwavxKSqIN87vEfBZpujE2TIk33+PulYbi16GSwfVMcDg9xRuTAd+/7p7fdkML75Xz6ufs9Pl/2A98PKY3H/e48Xuw08MPAdy+n8+7H+fRxfJ5/vz1NltPp9fRr8vBnxsUQKIQJlsLf+VOmPH94nAGH8bgCaKZSO/sUSABAEqn2AQKVfBtQ1WdUI+VyG8CJMncAbZQYAALl2AOEGNSQKqmLoBQFABJx8YBWbwNio9gDVp25jogkzYcQEKJR2NhzA7dEqfhLKsC/0SD6LhTQhQ3xtBIrslfnvywZ3sg/u/wzZEUjzr29eQA8jYliT2w1qoMLtR5n8QABFRiLavUpxQgAbWHlCtASVEIRf0kVRDCtleC7UEHXDNCcdCosmiMlV3QjBbxLsrR1RVRFt8RLm1ZKqEhqsqGewpQiL/7WAFC0bNqgVACVMrH4kpH240YLjQRqLTj/lRrIxx7UtGEF4N137blQczMhLI/+9QsSP6bYegzUXMSL05JkEMGGkvYpMWRdTYsSPwOQgpJr9hxKFJD/5qegCQn4b5FCz4kARdDstc3OHo3A9jnwvuzRPBPj9MYeUFqEms+fgb29tVWdvQBKGyPVTeRFpNftxc+PBMfHtBD0jwrDxevbm9p/AOzwtRi+jIfDvFeu//eLpH2al1B++Ac=);lineShape=1;strokeColor=#007FFF;" vertex="1" parent="1">
          <mxGeometry x="134.4642690513631" y="-909.6331965961182" width="2.237977428938801" height="10.268561580948841" as="geometry" />
        </mxCell>
        <mxCell id="opCMUjGsSkM5_SPHou3j-96" value="" style="shape=stencil(lVfLbttADPwaXYldcp/nNP2PAHFqoa4dOO7r70tBWFVLWWPkJstDiZwhZ6lBnj6OL++Hgd3H7Xr5fvg9vt6Og3wZmMfz8XAdb3o1yPMgT2+X6+Hb9fLz/Dr/fn+ZkNPVj8uv6Ql/5jjPVOMUxe7vfKdSmm98nfGn8bzCc6IsHT5Qqvv44CmUDu+oyD4+RvJi8M7t41O1eCYG+RTf0m34Qins46unHDq8rxRAAbXYF4hSDCrwbqlwobRQBhrUQNzXnFQE8IrClHsRcqHgAauZOPUsadVIZpWB+zZKVEANojr0Nax4uN95TaflDYUqUE6F8xafyj7eUd3gPXi+I+kLqJkEPt+JZShgvKk3UgSNp/mYQQ6N4r16zfOFCsjHt55c4QU5RWN7hfdAX2m+s8Yn0HIUN/jIwFmIi+UH6RspZ4uvIJ9I1eAjFTAy+m8/YtPEIGekYOrN2HntzGs/o/4UqmzxBfDJjY31PAJ+mNxmvgryxab+On/Qb46i2/AD8nGtG1f8Z8DnxqUnfaE/sOEzNIZ38HmD98Cj9WA1/EhjYId/2eA9cuiNvwnM59N4FWwzkAwCQmr+tAR4EqBYkibocorhZUVPRd8HZA0AKZViTSsxBbROBDsFAZ9iSqI560WNAJ31mXzvQ5MyYO61aLPReYHGlYqdhEIMGklXOrMCJth4QexKl2A+urG6fnK8a2f//cmJJCZARzmDgNBO3iUgkQPeogya5eNRAFv39cv5sBfAzgagDc37tiIuAaGt/nsBRgYNQKu1sl76YVAaItrQnF0ptCq0+N55g39YwyYAeczEkhHOtT1jV4dN8zlg85/94HqM14v/X3dv4+k0fxyu/7dfg3pr/pKU538=);lineShape=1;strokeColor=#007FFF;" vertex="1" parent="1">
          <mxGeometry x="133.2649326763983" y="-911.3964089660697" width="11.543034447356996" height="11.752942561583872" as="geometry" />
        </mxCell>
        <mxCell id="opCMUjGsSkM5_SPHou3j-97" value="" style="shape=stencil(lVjZchpBDPwaXlVzaEajZ8f5D1cZByoEXBjn+PtoQ816Rwtd8dt6odHVakne5Ie33dPrdpPC2+V8+r79tX++7Db5yyal/XG3Pe8v9rTJj5v88HI6b7+dT+/H5+vfr0/TN6enH6ef0y/8vuJiI+EJlcKf65taSMu/N1+vgMP+uADkQi0PgKIU6n0AV2IdAZm43QfUSDxa4EIh3QdI9DGYkwxcEqUcBkAqFPN9QMv94w6IlRIAiP3eGHQMVFHQiWLxgCggrYVSGwEJWkitZ30GKAmotIXIo0s5kwQACJTiWOlIDcTQqIx1s0oGBQYS6ZjVVqlGELM5PNZNrZIgSRxJxxDU3oCYrVvKmNXGPQs3Acqdy3PQAVJJV4WuSo0BYM7JEgAKrUKtrlwC/aON1MUQYYeqUh2pJAmKRgyBwtiikikBLpkJ7xNTwT6xAxSqyILR1QVhmUYWhHgshAjOa6W4AsAYmEQ9IAN+G/2L+hggmUxUss+SIgtpxW+GImAN1lzQudu8a8HJRiIGPTrFIJ6uGQHMAWchEKMscW+wRcspiqF2cV/2KHJJ+kRbuBRQHRrV4AGCXFIv95alCtRY5xAXdYA6o16+jRoRBa03yJeRuDZqo1YavTMqnKzIJ3AEfRpQW2/5xUQpaASl7vEMsDmNtNKY43eNWT1vItYzS+HqsNbi0Ml12yPfDWwLF5IxH/G0qwCqJl5tV7GPsNs5zX73yVAmbRtzAoAT2kLnwMf3FQl9WM1DEiyqZZQLK3pAm5V4fckBSp60LnBzzSJ0qda+C87LXuqXwW3SRX8HTDsv6BwOPcQZINDCVNTVREeyndaTxK4bQFQrq0QPQOuhlYmDB6BWs3ssNg+IqPvFnyYmqhkt0dUfPzZvGYhqLP1MWOg8WmMMUFyWbD0EhYsrQbJpKIDeBlBHjdY75F7QdVRh41JBhRM/Po3wUPM+e0j/B8AePu72l/3hcD37l5/7O99eXf9HkB//Ag==);lineShape=1;strokeColor=#007FFF;" vertex="1" parent="1">
          <mxGeometry x="145.50375954164804" y="-908.069251535432" width="8.5916954001572" height="9.121701341566284" as="geometry" />
        </mxCell>
        <mxCell id="opCMUjGsSkM5_SPHou3j-98" value="" style="shape=stencil(lVfLbhsxDPyavRKUqBfPafofAeLURl07cNzX35cLR67F9U4QwIf1LkcUyeGImuThbfv0upkiv51Px++b37vn83aSL1OMu8N2c9qd7WmSx0keXo6nzbfT8efh+fL/9Wm2nJ9+HH/NK/y54DRTTjMq8t/3NzT/s9/Xi/1+d7ixL0rCg31IVGQdkKWv1wExUMrrAImUZQCIUKnrgNCotQGQlGoDgEB19FAKVeBBSUcHjakqcGBJ1RGgFICDmLv/axUC3JGoT5IyMYg5J5+klmHdaiQdt1QDBVC3miiNha62JRBDLRTzWAalFACgUSwegMhqZVp6yCDoFonZxyBgS01IxGcpgaBbohBGQKQGuGSAODbonGgUg3h210yKshSpuC1ViijoQOwAjUIBhTP2sweglrYNcF0AQJYsxJA8AFGjCuVF0O/KttYPMnLJ+MsJAELXiJvCZZSlQM0FLcQohuhlxpbIQARsveYARm+cVkeNuYGQh9o/37Yokhmlwh4gqIGup8etzIDCGb01+SwxEDJrIHVCFikhD9aii8LBjpOFtmZKgEsGYBdDoYZ16XOArL2DrwdKgmlNTM0NDgrPhxg8NQLjytmOx0qrQPVmL96m/6jhgidGSbDOwRyMOUp20APAfKyPgFi7itxPavXabdMVgwa1wYXdKNOF8P4kE71OMgXQz5ZxJwC4ZDZOOqXn/uK+ffEyzJRAybT6QSnAGUNtNnTjKjxtjcNuHI5dlNfsdeSotTaiHC9ImmGBzUF1+kgRJVS7tl0bH+qvJcjNI+2jgqm3R7P2Z+8XH9vbw//LzMtuv7/chW6/+8uPvbpcnOTxHw==);lineShape=1;strokeColor=#007FFF;" vertex="1" parent="1">
          <mxGeometry x="154.46752633094513" y="-908.2645552374154" width="7.071633245481405" height="9.300883979530902" as="geometry" />
        </mxCell>
        <mxCell id="opCMUjGsSkM5_SPHou3j-99" value="" style="shape=stencil(lVbLbttADPwaXQmS+z6n6X8EiFMbde3Acdrm70NXkKyl7EFzk7Qz2iU5w+UQHt62T6+bQfntfDr+3PzZPZ+3Q/g2qO4O281pd7anITwO4eHleNr8OB3fD8/j++vTBXl5+nX8ffnD35EnzMR8oSl/jJ8ClfLvw/eRsN8dFoTaKEuHl0o1AQJTcBskuEPO1PodUqTI9wkpU9KOUJgSOFIo1EpHaIWkAUImbT2hklRAUCqO0Ij1PkHLlMQFIUdAEGqrHRpIqySqsiLk+4R5dXmiAMpAvMIzKJtQ1lVOQdVWQr0UDeKDK3ImAedXyrXHJxKkUyoun5ECEJHopICZEKiiitVVRgNlELFGUvYEZDWrsZep/UKArm05e0IDujarifqsVlCFYEG7I2WqwAi2g8+SeQno2mKQ6IVXAEFn3S+UHVFaI/HKahVJYz7x3FSvffk2Q6YsLraAXXXqiAu8ov5CqfokRew29VWIIGRemSHDnH4VbwHEXkcZ98cgk5Dna8fMAzIUzb09wS42BTsk8beIORy5LVkD7YsWiMGtk9krW0kRXin0/xdKIOKcKPUy5emqvo1vXkRMEXi/xOlSveIFNJfSfK/Apqnmy+DxID/V+gI7fEA3pk6d6oqvID8mYXWzFEUQr1nQzV46Ffw23hTPDt8A/svD4H8Q7OE6e77s9vtxdF2u+1nVPo1zbnj8BA==);lineShape=1;strokeColor=#007FFF;" vertex="1" parent="1">
          <mxGeometry x="164.19334044916002" y="-913.794342531201" width="2.1850778556670085" height="13.127064241337958" as="geometry" />
        </mxCell>
        <mxCell id="opCMUjGsSkM5_SPHou3j-100" value="" style="shape=stencil(lVfLctswDPwaXTF8gSTOafofmYlTe+raGcdpm78PVA1lEbI205ssY0U8FgtwiA9v+6fX3RDc2/Vy/rn7c3i+7of4bQjhcNrvLoerPg3xcYgPL+fL7sfl/H56nn6/Po2W49Ov8+/xC38nHGcKbkQF9zG9yVTrvxffJ/vj4bSwT0ycO3ufyOVtQGRK3AGCp5q2ASFRTB0gOvIAoA5I7QGFctkGCJXQ2adIAuy9nt/HzIGyAwBu58+ATIVBzJp031chkAgogyPpXcpCDgDUgRw7QOH2ibuA4hsPGqBGciirlVzPJEnkAwQIW0ABaRWxMYiy0UOAYYZkSigGWblUKIF2UAAbQKWEg64mBqGAYihUswUgLmmIpT/BO9dKcx+hWSz2CEFBpJb2BYAjAETKyaapAvYpwGVbCNQQEpqoLAAw6LnBFtxwqBCR2PCbyaMTVMh6nRnfoBiYoglahQkon3ps6xCpIpdUGHl1AuJ3pZxtDF80REo2SwFxSanmbB2g3N/YvCg1QshK8DUsqEzSCrsAoAmhf5spOmoVLoRfdZCgruaVMgmuXFo1hLqE2KeA1QkIkFXpeqGptUnP/RkUKfQuVQ/5rXM89ezToYXUNQR7go7FCLJUm84t5i6ityfuv89MDtivqJrmwt+PuIU3rzLSqrKxyojZlSLcxvycjnkb0/YEzL7tXvM0ydAj3UxCr6tKE7SYOOI+ZEcVOMTess5RRPbBcsjBiilJTYnx8OTUGv1m70F+lDArewaU1sXN+O+x/6Udf7NHI0Htc69Eoc2ILXuzwMR2I9iyLz3jUpujW/apt9eWR/bZCmOG+9T/Xni+tteH2+3q5XA8Tpez5f/2NqavpptcfPwE);lineShape=1;strokeColor=#007FFF;" vertex="1" parent="1">
          <mxGeometry x="167.94052705729644" y="-912.4335566333616" width="10.451099613872211" height="12.067120145856013" as="geometry" />
        </mxCell>
        <mxCell id="opCMUjGsSkM5_SPHou3j-101" value="" style="shape=stencil(lVdJbhtBDHyNrkQ32evZcf5hwHIkRJEMWc7y+3AitDykZirwbRZWcy+yN/Lwtnt63W44vF3Op+/bX/vny24jXzbM++Nue95f9Gkjjxt5eDmdt9/Op/fj8/X99WmSnJ5+nH5OJ/y+4oRJeEJx+HP9wpEk//vy9Qo47I9zQKMWDSBGamUdkBqlYABCOa3Ll0ilG/lAIazL10KtuvMjkG/qgFgHAklbB/RK2SqInWJfB8Rws/hmUhhRW1ahWbA2pUCJgdOVeraATA2kLTcS60QqlEAaUiR2AKEGAFyoN+t0I0ZhapRtJXGlJEAD+7DGSqWCWs0kDhBHMS5Hib3THdZq1cpJVgGPKCwXXyG2QVKnItDQEwWbaClUUbWG8XsAcoZp0P5JtvaqRgGYlBMVq6FlSoAB2qjMW1A7dKFQsfKzhlquVUrNKyjAZabsDFITgUGRgqsKrTvgcCC2ZdcLRSgfLAdr1jNohEC5WHkedLBif3XycVDact9QdvbfNC5XBOXm5SFlU7Pnt04dnK9/2Z+PuEu7vLJ3GPV9FArRR7SCDCiguJAmTHYaUzvVeh5eLQOYmvNB2RElOY6JMavqCjT0uy7QroFZk+7lO3A5U7zrSjSidGzf2cMoaXdV2iiCIas143JcBpGtdaU7P1OA8uLOF0iL0Q+nzrBr2O852gUonmmsZTP5CGr60/I6VyxAt5KIeJ390lIy5K0qPkRZiEGKax6Ta7ZHocWrCPW7HaQAgDpdrUnaR4jbdfEKdryKjhMAKH3MohkArQjtbtx8tOqyhuapRfeoADKdi/dBdzcB1JL62MtmJlW0bbaxgs/DCkaUbq+OgOW2iy0D0sjrPKxIA4970AwASyP4ITIBEOHVMWNmAMb7bEne6QwoQ8T3tIYV3XX0OpgsyWviEMlPLtpa0vUNFd/kotOQ4LKmgGyjpEzYUZQ+faX9P0AfPm7QL/vD4XoBn//3N279dL2ty+Nf);lineShape=1;strokeColor=#007FFF;" vertex="1" parent="1">
          <mxGeometry x="186.16088009548037" y="-900.2305130000786" width="6.168995516771812" height="8.38446411933805" as="geometry" />
        </mxCell>
        <mxCell id="opCMUjGsSkM5_SPHou3j-102" value="" style="shape=stencil(lVjbbtswDP2avBISdX/uuv8o0HQJljVFmu7y96NnKDMp+wR9cxwe8XpIyrvw8H54etvv2L1fL+fv+1/H5+thF77smI+vh/3leJWnXXjchYeX82X/7XL+eH2ef789TZLT04/zz+mE3zOOM8Uyodj9md8kiu7fi6+z/On4upQPxFHJ+0Q5bgN8JccKEBy5DABMrC2KhbhtAyoVr+RzooAUOEpJAaoj9gBQKAYNaMQVBKl1DzugMSVgUoz9vIWGCKKaWj9v4UMq24DCVLTTuZAHia6eis5bYsoIkIi1SdFRASZNAFMZ3ItrHSAGDBpQpssQpXTTuQ7IVHUeiqeaAKBQ03SYvAJRaoGcyXShhACRcrMAqCFTYAtAUWqFqreABsq7VWrGpIoBzRZfc71YNigqPcJphKd8R4X2WiLtAaknJ3TmJNIBlKuEqRgA7jOSCE4W0EAxTanWiZAjEEenYvJWQ0FR8oOG1NvzOsBZBonOBgDSt9rY+lAXaFR1MYmRPkCTgqHcrby2nDYDRcoVdePJ4oGjBXPURwtgZJKkaSQ15qh1WkxCUap9Ki+czogPbZiKrfeFLUDTYZ0CjaIk5xkAw9VBAJZA4V5j8jpxU3kjTuc+oRaAipvr5wC5DrWUIeNkLJvOVxxVBGh2wUoBzl0ZaUmXRij35m7Q+w97CJC8em0SR8wH6Xw607IKwKkYKGkNkfGyIVHSPqQM11DZHbwGSNxQ58txaDOyTQCKRpkPWkO7rR/ra2WmrJ1ezMmtVbeaMRrJgcxxn5k3HzwFkLhhTEsUPIhqoKj7XkxwSsuQ1udz6ZWy7nCwdJM3DlweZLcPRkNfbrbkSzby8DZTKWp5D5ngW98purzrSV9PmKPojbwH9vNAflxB4p5ZP0Ue2C8ZNhV3G9fr8tFOQilZEE+5nloOwPWCB5Jxv8xtyZsCChRQPPNwJ8H358/et+/Ky8P/y/3L8XSavw0s/7cfA+TV/CEhPP4F);lineShape=1;strokeColor=#007FFF;" vertex="1" parent="1">
          <mxGeometry x="201.98822170884102" y="-906.1674913328433" width="8.563425425140066" height="9.748676695621176" as="geometry" />
        </mxCell>
        <mxCell id="opCMUjGsSkM5_SPHou3j-103" value="" style="shape=stencil(lVhbctswDDyNfzEkAYLgd5reIzNxak/TOOMkfdy+UF3JJhxtmz9ZxhKvxYPa8M3L7u55uynp5fV4+Lr9sb9/3W3406aU/dNue9y/+tOGbzd883A4br8cD29P96ffz3eT5PT07fB9OuHnCZeNcp5QJf06vWGjLn/efD4BHvdPFwDOVHgAFD8irQMkUZIR4EcADdUBNgAyU2YAEGqjhgZdkErSogLFLrQAMGrAIl5CsvhciQ0A3OIRwIVaBibp/PcMECZBUVVKdQQYdFo7yaihVkrAaXOLdQBoJgMaOlMdnXadDfiQk1NjRFgiATb1SlYGQE+UO3Aik4xh6o0YADSRBbaerVwjx98DFxUd8rVEevc8s+X9MFFtUZ7Lunwi1RgjRKU0V+OShE6sSD6NRDIvD1AMiTic3ygB+3NsMKZQvlAa42+VSgMJIx4pYUIG/BXSfiUP7KnULdqTwfkejRblrSJ50xgfA73FqGiMP+KnxYngfMjA30Zt9Nf5hgaCztov+JxBvurs3YU88leoBvkCJxrP2i/kMT87R3sqyFe6kl/mz4p8zBduo9dN1OaOsVbvgW+NBMQnxTngfGPQpHMcZc5nAS23UA/yQh3WY5Eo38D5lapGexLgz0flpwEQGm4hBgGtPWqYGAc0tHbVcjspaLmeUb7KQfkHYCRRUzj1ms1z92LYo0msEpcu5bnRrO6N46yvDfd1ozSG1Y/oIKylR4AU2KmdGm0sZV/rBAE0zu5pmgOAr+MhDznDTHOP01Lm1L9fPD1GFW83niQbXa4wa1ri5uvLOOp2vsj2cRxn31SBx74qh/k6TSzQr50XOoaIfaQDHzxrYUNwnQURqcaWdDbyfQDPHW4BNNwjC1WLAHShcJ7lK4CiZbyTSQSgcvM7k3J0GoU1t5gHv7k1MDizxskgyy62BpCxKclyJ1kFBA0FO61xuZY8X8TWnA7U8IrtaLv46A3+PwD+cP5g8LB/fDx9b7j8P35g8FenjxN8+xs=);lineShape=1;strokeColor=#007FFF;" vertex="1" parent="1">
          <mxGeometry x="212.1258935955276" y="-905.4484912222922" width="9.361891195961828" height="10.610195808902157" as="geometry" />
        </mxCell>
        <mxCell id="opCMUjGsSkM5_SPHou3j-104" value="" style="shape=stencil(lVfZctswDPwavWJIggf4nKb/kZk4taeunXGcHn9fqBopAmTvNG8y5RWJ3cXBgR/e9k+vuyGFt+vl/H336/B83Q/8ZUjpcNrvLoerPg38OPDDy/my+3Y5v5+ep9+vT+M/x6cf55/jF35PuNiJ+4hK4c+0UoQk/1v5OgGOh9MKwI1SsQCmyPcBWagEAxhXAKAm4moBgUoEgE7FxsCJYroPaIFaM4DEVBrYoRHboGOdabgJKJ2SPVKM1AWyFLIHBBADV4oOUCBLKVOMNug8K3MTEDNlsbQKdXCkTtGyWipJBxsESnaDlqhUAOiU7Q6SSYCVuBBbkrrKAIQuymHygAaE7uwBTZ2BSNITO0ChBhKu6/eiB1RAa29Uij9SALR2oRY8QICVep8TeAE0EuBuBXSb0q3P9r0LsMJJoIxi6N6sosKhGISqjUESVrrNB1gAPO95T7iYPECwNdoGAK2hB8gekEA+dC2t4oNmRGukuqEV2jv6fqJKw6IR55RfAKoMEk5ruwOoMgiw9KeVvaGXMrEtM5pxggBlds46RRGgeWuMO6CcFt+ANIaCaN00oJEltEMnaV6HhtpDCBRs2dAcRS1Lt9iaiXGOdhu12jWjhFjK0DohUI5+FjA2COu+FQ+3e1AksTSN5RMUmpg2Xa7D2UFJdGbSsgGqwEa3kqkCVqsfTZipo76+5ONqWhIQsY5rwapQ4ISYlzlk/j+WoOrnbARKMTiPpkq1DOkwhuZDib4A6GyFJNPcCrYm6WyFKndVgN1BSWjIqGl+vRrsGaisQ7ZruTqIN1DEdGZ2pV4HcZQ7ynqIHlCAkVRWp8MIADrogJjy5kiA1ig+F5RodCR1sptk9G6ApjEFuKm4VhzDMt0tgDIn+D2Ac3dlXC/KXB5WSqN29XHZWQARtlytAMGxFHAM4nu03qBQpf/0vfU/APrwcU1+ORyP0y17/d5fq3VpupLz418=);lineShape=1;strokeColor=#007FFF;" vertex="1" parent="1">
          <mxGeometry x="224.17442066467947" y="-903.7128703669033" width="8.21268067849156" height="8.648797146279557" as="geometry" />
        </mxCell>
        <mxCell id="opCMUjGsSkM5_SPHou3j-105" value="" style="shape=stencil(lZfLctswDEW/RlsMCL7XafofmYlTa+raGcfp4+8LVaFlQvJtu5NlXJIADkBo8A9v+6fX3SD8djmfvu5+jM+X/eA/DSLjcb87jxd9Gvzj4B9eTufdl/Pp/fg8/359miynp2+n79MKP2ddZWI3qYR/fbwhF/+8+DzbH8bjjX2K5EpnL4GE7wuCo8qdQN98LLEp0PVc7gSxUHX3Bc5TTJ0gB8oeCIRK73O57rkp8ExZekGlBI4UEkm0ggiiVDJ540OmAvKg62W2Aq73BVVI+sTlRAXkoQYq3u4gIKxVD2B2KORAlGqhXHtBpSBAUK2gOOIABbVnqUhb4p7Ar9AIKEq5BfEqiFTRkaINq+aekdOefLECBJ+WdF4LQOJKWTmdySFaFW8jSMQJCMKqgAIl4HTxVE2mBYZV1+MVGg5kWtPE/ZEUvoh8SJRWeAvIg4bVoDEVEGLJNfr/vUR53QRA16jJsqSCDJzWEpVqna5oBw1i6PPAsIAcs3VCU41uFN0iGZiUFtSYCgVTcpEC6gKJomkbiTIquf8V6AXBveAmDtvXoqauz8QS6m38bK9cGvqm/ToNAcInrfNeyVB8ARl6TZsuEwPsMt41NJvAR0h3jPaKcxm2Ja14Q7eD94+iXHrymBKYGxRkgwXjnhRaBBd7xIRC5r1dH52/tL8Xe4hQbRAv8RF0tznLkMC5Su1rfx6PG6TYBhkoorJUezNK4ttfbFUqP6ixuDYQXWsGjrabwzbqvn8dzvVhmexfxsNh/jC4/d9+Ceir+SvCP/4G);lineShape=1;strokeColor=#007FFF;" vertex="1" parent="1">
          <mxGeometry x="237.32802673758056" y="-906.2368850946336" width="6.089395929987185" height="9.044756361741465" as="geometry" />
        </mxCell>
        <mxCell id="opCMUjGsSkM5_SPHou3j-106" value="" style="shape=stencil(lVjZctswDPwav2IIgQf4nLb/kZk4jadpnHHS6+8L1UNFBKVN8ybTWhHHAljyIDcvD7fPx8MUXl4v52/HX6e714eDfDpM0+np4Xg5vdrTQT4f5Ob+fDl+vZx/PN1dfz/fzm/OT9/PP+cv/L7iNJHojJrCn+sKF5Lwb+XLFfB4eloBciYuPYBJ6z4gRQqpA1SawAZSSfsNCqnuv2+fq+INqhkAzN7eIK6UAYAj1doBJLSVTUClwt37USjy/vvqPUhCRYBB7EOUA2kELguF3oOcKIGgmoNl6gETlQQA5kNvUkrNyE1AVEouSGYS4lHyaROBxMhMoTdpijDPubSoL8RQyKSS2/eWHZQiAhQKsfdBKWCA9oAUKE4AUCn0PlimI+CSTpRDX26FKqjPqkM9T62HbAMqsQMICaCGAbQnX7XEgfrhECj0TtTU+Li3Re65Ua3tgS3Ma+1TbSsR9YAy7FBxmHJriysATIQFRQYA2kGIhx0yIFNlKtU7rYCu1dqQ+LAWlIfQor4AMkXkQ2jTaZVpRokzkxzA2gYCmNN9yRm/CwLIUBDcGvpe4lLxgITCajM3egBMXGn1svKBEUCHkpNWUrsF5JyOTRh8oEYTimv1vc/igEbK3Gh6LWNuveP1WBAQkP1kNwDkd/K9bxWHPTalOmyBGo1ldgAwGNUfBhQzqU+EhqYntgfpOISsuaHJm9ucXcYc0wQSYUPN9Q0bpKh/5yVPq1GNai5HnzkpjfLb+sQaVw+wUa0AELP3YdZYIKwSKTplzHAHU7qhr+oSm67bEa7RaQETumgD3yqztCBsvj+0ABO6KM3sG2UMsLMWzztbQcJ7VPa8nFa2Hc5Nri0WQRaZvW6o4+o3EjlVzLjStOXnzZ4A+pFalbhShgpXqyf1OyImeAZxaDnZm7acPQBKDPaaez4NYRGj7oQ7waqZAS4HgoUYN9G/YlF9R5O4g0aCmkQXYbcAMuSd5bn2ebZjPQMf1HTacA+ADhqafW3OAEDVD980/AfAHt4uNu5Pj4/Xe5H1//4ixJaulyjy+S8=);lineShape=1;strokeColor=#007FFF;" vertex="1" parent="1">
          <mxGeometry x="248.54154974005735" y="-904.3477599962232" width="8.90450046553975" height="10.265534268541677" as="geometry" />
        </mxCell>
        <mxCell id="opCMUjGsSkM5_SPHou3j-107" value="" style="shape=stencil(lVjLbhsxDPwaXwmJlCjpnLb/ESBOYzSNAyd9/X25NeRa1O4YuW28mpVIDoej7OTu7en+db/j8PZ+On7b/zo8vD/t5NOO+fDytD8d3u1pJ593cvd4PO2/no4/Xh7Of7/eLyuXp+/Hn8sXfp9xkWJcQBz+nH/IjWr998uX8/rnw8v1eqWgAyAxcd4GcCJtA0AC1bINkERSBoDtmRUACjUeAIW4gfWZ4niiWEgYbiAyALhCgKWkuphzD2oVkJlSHrOaiAFA7XUd6yYU4jagKMVxBw2kIKu1UBqD1kYhbANappLGMiglUIcYQv9gR9RMGeTVtmjjFk2ogC0qk4xsbbVnej2vQjr2Q2swTUmojYCrsNbDFqrTmVDpInf6XwCFFJAjRkouTdoTt1EJ0rGDlkyjGIJvoZbwkWaAwI5YjuQKwRQFBz3ytUUKiH6WVpel0NmyWbgJAAtnQlMnAApap8IFyoCuJlxJfdCCgq4U1ac1oxiqV6al5dCAMGl0hcsUEKBQcTsoMaqDUnVsNcHHddDkARXoTExTDNaiqIGYWp12wGwtE4DRkcKkGtpHwBaAm69DvNHTk7hWDPAdZ1zCQUdXOGtarHz+SAFaAWtRaR4AyZf80Go31PujABsQOrVoAzEod+m9AiDlK807rNpgluy1I1/FHs5euwYqmRj0Q4mkYwxa4JFypTaaPrMniK0p+37IEQ4Us5VxZGuyHgQAVn8kYchWlm53Ljbxxg65m5eLd+AuPOsxBCpjAxkbkTmJfq7f4Orsr6iBaWLfd/bKNkDCKnHFGBfAbctpHpU4Xdz+ukUkGSNQ7RqyTm0/cY2oKEXFR2zrFQSgft7aephS3/xa+4VrPaNeXez7FcTLPp+2XtBk64b8Kp8ZCGrw8qi5c3BjPbtbRoJ+ZLoymGNHLXOR/8t6hq4weLtjOtTQTPvo/fnmenv4f1l/PDw/n+/61+/95d5+Ov9jQD7/BQ==);lineShape=1;strokeColor=#007FFF;" vertex="1" parent="1">
          <mxGeometry x="259.89239967131675" y="-905.3661972481018" width="9.984838794276616" height="10.322258498156943" as="geometry" />
        </mxCell>
        <mxCell id="opCMUjGsSkM5_SPHou3j-108" value="" style="shape=stencil(lVfLctswDPwaXTEEQRLkOU3/IzNxak/dOOM4ffx9oWrkmJC1rm+KlRVeiwUwyMP79ultM8Twfjoevm9+7Z5P20G+DDHuXreb4+5kT4M8DvLwcjhuvh0PH6/P099vT+N/jk8/Dj/HL/yecJKotREVw5/pF2WK5d8vXyfAfvd6AciFxncXgNyo1HWACnFvIVUKaR1QI0lvQQqVDABKXDpAzCTIAlPuXeJIqiDoRlp7gJACl5IFLb1LgWpcB0QLMfVBC1WQVk4U+xhyoAIssL3mDlB0rsx1QPYW1NIQQAxGhD5oq4wiLgUK2gEaUwIWWiLpAbVRBRZaocAe0AA1mlLu69ACJVDpVkmbj0GQS81XukXKAMDB0hR6hFATaKL2hWh57qk1ADufjI+oENXn1RKH2Gffy32P2ici4LeVuiUPyAwA4mXjlgWmqosYUFoD6TJLyCUrXF7UAQlTW7gkmK7Bq/FIJqBkFnRwdeC5p64DTI1dpa0hEL/Fk+9Wy2VK9zW1LmKwNKDCVUrRBx1wPyT2aWXccZ6tgrO0BKS59qsuuRhsEuMWTU4EdC7lalod+SoxsmCFax6QUMfdC0g6E+E8dz/F8PoMkoUcZzjl8jzHz+QTKN8LLS4ZanHyap8ynIlcZ96cNweTTpAjUYp9BMxQ97KNuB4QIZFUvSjhElhvuZRmyqjZqpdVLrdGruvOWGFOR6V3RbCQQbPVMK+05xAyVPoiXpKKOQlEzxzwm4xNF5ClFLxg2BaLZok0kuoBaI02IqkuAIDasjgFKmaeHRuVfdBoa7Ad2G2UtoIW0M1ie7wD1JntawB3nRjd0f1jgNAHrSYAoB0MEPvCaZp3zDWAY6udUIitliVXOLWoUND3Hn3/AbCHzxvzZbffTyfq5Xt/k9pP0z0rj38B);lineShape=1;strokeColor=#007FFF;" vertex="1" parent="1">
          <mxGeometry x="272.84208904509364" y="-905.863997586393" width="7.094297482577719" height="8.306578506697736" as="geometry" />
        </mxCell>
        <mxCell id="opCMUjGsSkM5_SPHou3j-109" value="" style="shape=stencil(7VjLbhsxDPwaXwlRFPU4p+l/BIjTGHXtwHH6+Pty6wpZUc6gObbobb3maCVyZsjdjdw8P949bTcxPJ9Px8/bb7v78+NGPmxi3B0et6fd2a42cruRm4fjafvpdHw53F9+P90tkcvVl+PXZYXvFxwXKnlBxfDjcic1auHXnY8XwH53WAFEKNUBIKHfuQpIkSQMAK6U29sAZSptACg18AAVUhniI9UM4hMVdvHMIL4Qp/EAlOTt+BwolyE+UFUQrxSai0+gAiUQq4tH+y9Kml18AOtX7n+v4guIz/N+BOSnBSrRxReQn5Z6ul/zL+C8rVCoLh7xp1VSz4eC1jf6jnwQKAAOwSeUAzWQUTuxk0wspKgERrkRoDinWTygWJYjkH3rmu0AS3MGWZLJWCxvCZzBjKU5QKMIeBqtDtUDCiCe1VWDBzTgRJwppAkArKV1oq3if3Plujd2GqzikdSYNPqcIilMxLOiIesK3ila7t56vWZe+U2pIOuaCmDeB9Zn8dZr0lBUsUapeQDitfWWOgEUKEfYu7sBECckU2R/6Iw6bJtYlykhqTWqjnYF0kJMOROPkNRE+wZWAOSpNhPoxGwFAJOC35KJCVGjEo9PWPnsdYS1AfaPKGBPeeKSGRIgX+z+tkoSOnOgOJUN+VeYxJCpAm6/N36R83iAInCSMuLx6BfWdgSUwEY7NzyaJaBZQZXE9XLunvPXDIN++Po/DI7DILv4f3kYbEbHcf0M201N3oSsxUUAKIXiaKTWsRgxVHrLXokY2VY2nxtLbLIWMOWoOfmYI42w7WsmiR6QgXMtr4xjlc0HAnopzX14XQEE+ERir0sDwHF2EtryBNA9rGX6Q5sf49HFjeRLllB/4t5RVwD0hIVq7gzY7bhQdZUOfUh/C/C+zw9/ALCL168dD7v9/vKxZP2//zpity5fVuT2Jw==);lineShape=1;strokeColor=#007FFF;" vertex="1" parent="1">
          <mxGeometry x="42.436270842515" y="-839.8378435636945" width="1.8075762363149148" height="12.924113174004749" as="geometry" />
        </mxCell>
        <mxCell id="opCMUjGsSkM5_SPHou3j-110" value="" style="shape=stencil(lVfZbhsxDPwavxKiSF3PafofAeLURl07cNzr70tjoWTF3Z0ib85mKA3J4aGdPLwdnl73uxjebtfL9/3v4/PtsJMvuxiP58P+erzZr5087uTh5XLdf7tefp6fp79fn+7I+68fl1/3E/5MdpGC3o1i+Dt94Exl+vJ1wp+O5xmeIzUeDBpJ2MbbBSkOeKUct/GSqI6EAjFv47VRqQ4fAJ8slNXzkW18ySTj+ZyIgUEtpDIYWIRK3jZomTiPjJRKAykI7y52ixw6y60rUhoMilADV1TpPnaDamECN1hYZUxzM6EAHanpYoxrqyQg0dESN4ZpFodVC4tJG29gaiBzdlryeC4QP8ao2Y0QL+P5tVEGHgdqZcTX/mVdF1SjxycU0RV8BKIQqsnjBZSyrpyP/E29Mcziw+D83LMzw1dU+qRj1Vi+EtJ0b2wzPaAqs87lFB1h60qev+EL4K8UxwJoQgHwEYrq8RHEM1Jkj2fAh7ta5vxhfaWFvwwaY+jZn8Vfcf0u8ptBCwre37t+EsIX9XjEn/3ku+sf8Imk1eMF+Cu9uuf1C/SgK3iFepYFH9Q/M4VF/SYQn8/izeHgBGQtAzREDb4DNYUd3cZoXrQUVGKlURw1V7mP2vVJzL6IS4T7ljHWMWuZexjWDUKfu+/rRO6Ftz7rTXej08JwOTDGPDrNFa5ExtgZ1D7Lt3Y61ylMuqgQKgW3QfXRvy6k5HdG4wOSxmWxJNvshMp2y5D1DsWTr3k8WhnVbwYfu8LW5Bg1ZL0pAIeFVBfngzIwCS/8LYBP7EU1jw96dPS+MMOjzY99VXLrGt/AhzE+JuiKNnA/aQyPHkGmf/eGKD1iW/6qxzMS9Ccfcf/H24+PF+PL8XSaHpzz//sXpn2aXqfy+A8=);lineShape=1;strokeColor=#007FFF;" vertex="1" parent="1">
          <mxGeometry x="42.660151019304976" y="-840.4292686023018" width="12.247728953441547" height="15.861138679609855" as="geometry" />
        </mxCell>
        <mxCell id="opCMUjGsSkM5_SPHou3j-111" value="" style="shape=stencil(lVjbktowDP0aXjW2ZVv283b7HzuzbGFKYYelt7+vUsZpLJNDeQtBJ5Z0ji7Jhp8+di/v201wH5fz6ev25/71stvwp00I++Nue95f9GrDzxt+ejudt1/Op+/H1+vv95fJcrr6dvoxPeHXFVeI4wQK7vf1hjC5+vfO56v9YX9c2HMg7ztAjhQAIBaS2gGSUAnrgFyJXQfQRyS3DihMpY+BC1XgUvWUUgfQNNQMAIFyH7Sv5DxwSWxavSOJ6wCRlsQ5SxQYJMm3HM40UAU5ikyh9A5lCoAFfZ7vHVLmGZzgA0nuI2CYIyHf24tKqwASKPf2JZMk4FCl2pNWmTKSdqbc57SqtEHIKVtpF9URcEkyJRNzoQxkoR77nracyaEkRZvVnNqZtwHJVpsCGNBWM0UZAOgEoTQABEivForZBs2gGKoWozlBxYXSWluIM6CQQzHUgYc7LUZ5NYDautRalkofgzhKKOhMhS0ANrFkC0h86+VrWkruoRPYEjfFgE7QvpqGLKGgwyBv5UEgwEULcIiHMNSDagmpNdg2M6kVBa3jygC0HjAP9oQ7FTf3iP+taWmzYNk1UFqLnQ4atAetUgHVWUABrVIrLgw1jSboDcBcg2suFRNDpYQBfihRxo3sMUCZS34eKEwJAFK18laxRBCDzjiTJe8cOTTXE1UzFQvsxloPvUs6FJFa5+OXXQZoL7eZPO8ZDvvjbmx7ERzAwwLqPdwDsrN7gMfboaPYe4QpUE5d3wAEzpIFpYt9NaAGoE2xJ5l9m0e3QyitGOclXZUKBqK+VvgeoOshavUpDPXMLW23aUuWZxWSBycoq6avio55tFG6tt0tABERZ0thsgelUG48H0l7YE3wa4k0ESzWT7Rj5NYPZ3uBbxm5pW9h74GK0hCvjk7QvVLbuWZ7PKaGZieRCvRfirVHU00oGn9wu370Zfu+vV78e7N/2x8O1w8Dy//tlwC9df2KwM9/AA==);lineShape=1;strokeColor=#007FFF;" vertex="1" parent="1">
          <mxGeometry x="54.62617767121844" y="-832.0351159091977" width="9.47969557744743" height="11.869794714915974" as="geometry" />
        </mxCell>
        <mxCell id="opCMUjGsSkM5_SPHou3j-112" value="" style="shape=stencil(lVfLctswDPwaXTEkwRfOafofmYlTe+raGcdtk78vVA1TErI2zU2WuQJ3sQDIie9e9g/Puym4l+vl/H33+/B43U/8ZQrhcNrvLoerPk18P/Hd0/my+3Y5/zw9Lr+fH+aV89OP86/5C68LLgVKPKOCe1veeE/i/r75ugCOh1MHiJlcHgCVQt1ez5VStAFc2AaEQqmMACEp2wCfqaQBwJkYRJAWv61Pyilury9U6rC+MGVA2Qeqo6a1NNFuU1bJR43k/RO3RU1UgwVEoJGmOZstqWp+G5CrFbVkioCDqCYjIDFFEEEiJRkBukkBgNR23AEYWFUy1VWEgCLUlTNCY7UFkGpJM7CSCOWxelLEHNT7hkOiCKwxA0YvqbszjpAM6YLzoNYwHCqOUKyXklBA1njfcQeIoOLUGjFYAIN6UPMxWw4Vkebm/g7gEemwMp82AbSl0JpKl2lBbUwjrLxUcIlGIytTQREiBZO4AIeD5oFXBcRI1kzJWUBAFVdWBaSdD7s1iyXtkJekddIOIEhWaWnqEofmiXeOnGGdcUEIFQMoH/UZZzJX8Uz8LKAEW9RVDQw4zKKMiVA/ohGkQ05G0p1wt4XVo8iImJMJAJn82AXEwcPMKm96EohAJN9adWcl9H2xU5o9VbB/DVDHkei5SbCp6Vg+HvaYqANuDIAzoD42G4qwOudRY2xHHplITWnOALAhpdWsyvBgpetlLP7y4fpx2tbWlLfWG75CFbS7eciY07OjAgpfBTWTUI/baHRqxuz5PMDupXWckgWgWatTyRwwFBARaW6e6QDo3PbpS8x/APTh353p6XA8Lleu/n97x9JXy/2M7/8A);lineShape=1;strokeColor=#007FFF;" vertex="1" parent="1">
          <mxGeometry x="64.78835582382942" y="-830.6980425930235" width="9.658636897172606" height="9.781657300215306" as="geometry" />
        </mxCell>
        <mxCell id="opCMUjGsSkM5_SPHou3j-113" value="" style="shape=stencil(lVbZUuNADPwav6qkuecZ2P9IFWHj2pBQIezx9yuXMfZoSFO8OU63pelpHYO/ez3sXvaD49fr5fxr/2d8vB4Gfz84N54O+8t41afBPwz+7ul82f+8nN9Oj/Pvl92EnJ6ez7+nL/ydebVSdBPL8b/5jSeZX/yY8cfxtMGXRLE2eBEK6TYhR2LfEFygCiKkRCU3hCBUQYSYiWNDSEycbxNCd4acKIMITii1hFooFEDgRcQPQiXh2wTJlNgS3pP8nBAodISKIjCVViVhlQkwMnlvIxQkK0ntjhBARpSLxb9b5VM8kw/2EjyQSE9n7iBTFoQ3vlM8ysd1+ScKEfiUYrJ4BvkUqtLiI2WgvziK3BFAQhKpekuoiFCodEfwgKCa1mwJyKUqqqllvYSIS9NGKORwSjlZAiycQrGrg4B8HW1LnQoHdDzpD621DJytzSd3eJBRJOnwCTjJLc1tg3ewcjJbSRPEs8FnmD8vE2aDR3f8Xby2Lt8KpAMBEXywpRZVUXDFwVNpm6MONeTrKEuv2oxNAZ5IOrfb9qgdX8CMmgZzq5LA9rJKsuIdOHIuxK2LGHajwkv3XPEe5F/8En7Ff7G5dHg0/op63ubP4PvVkfM2H5B/DdYSDHcK9bCIwRdgCK3BbO8X6ak1no2BYFFu1ocPiy6d8laAb62aX+P1Yd1rn8bjcV6Lt//bPVhfzTu0f/gP);lineShape=1;strokeColor=#007FFF;" vertex="1" parent="1">
          <mxGeometry x="78.3172938163816" y="-837.197713045531" width="3.1919270941544116" height="16.56634836094711" as="geometry" />
        </mxCell>
        <mxCell id="opCMUjGsSkM5_SPHou3j-114" value="" style="shape=stencil(lVfLjtswDPwaXwlJ1Ivn7fY/FthsEzRNFtn09fela8iNqHiC3hybE5EcDklN/PSxf3nfTcF9XC/nr7ufh9frfuJPUwiH0353OVz1aeLniZ/ezpfdl8v5++l1+f3+MlvOT9/OP+Z/+LXgEhP7GRXc7+VNoZT+vvi82B8Ppxv7WElyZ++ZAgNAoCgdIHhyfhvAkTh2AHbQpZAouw4QHUndBvhMuY85earAJSHpD8iOKjggtwBX+0oO5Mg7iqEnIRELAAjl0gGqI4+Smsn3J9RIvmwDUqJqAJkkbgNKpNzzXAW6JEKp51kiBRC0AqR3SRJFhwG9S7IyvwUoxqVCBRCtgNAzLZUKiqFSNCesabgPUDl6C0A8aIiJB0AGgEE+CsgorbGJ5SZoJIeZ12TTWlGWmKQvb42qAAHpCc7EkFoatgBsXIq4luLgElPEaa3GpdAktUVcyRbwoDQKW0AGjVJpymxj8OgEGbLEuJaEKlseULP3zg3MZQpY1NWkqTzqAnEo14jKVSU8SI4Rc2WIWp1ERGQbw00etqpJBpEWXH4uWYBHPq31f5Om8AAw5BUBdEL4oR0/mEG+DhMC1KuuDmKC9rBv+NJqbR1aKirAQ6JipmIgBzwaqluTgPTgbOnlCBWa2ma0bjIZ+uMDcd/Gos4LIAZd1rzZxlJb6O4DxI6TsG4G90krxL16vAJADJFtG8ttG9paWUMfgod7xrzi9iS7duB9e7GkuVbo9znTdTYbe6R9XU6j9ccB6adgx60jBhSrvVmTdH0G8eqVwTDsIcEp2lYU4H6h9uZKogeC9jvb9/nEBaf2RvSprX1b8dbe/9wI37L/ryvVY3t9+Hd/ezscj8v17/a7ve/pq+WuyM9/AA==);lineShape=1;strokeColor=#007FFF;" vertex="1" parent="1">
          <mxGeometry x="81.94829399727223" y="-834.510240439107" width="13.277136785037516" height="10.760611842430269" as="geometry" />
        </mxCell>
        <mxCell id="opCMUjGsSkM5_SPHou3j-115" value="" style="shape=stencil(lVfLbttADPwaXQku931O0/8IEKcW6tqB4/Tx96UqyBXpapzeFGVGXC5nSHqID2/7p9fdIPx2OZ++7n6Mz5f9ED8NIuNxvzuPF30a4uMQH15O592X8+n9+Dz//fo0Iaenb6fv0xd+zrxAlSeS8K/5RY1U4583n2f8YTyu8JVitXimVrbxIRMHQyiVmLcJGiHZE+VOMWwTUqScDSEVanmbUALFYggxU2wg50ZsCZIoggitU7dJBz0kuNWuEZKPwIhQKYslCDVwrUrgZglMCeTQC1Vb6VBJBBKK+KTvRCi2cJ1ygvhm8Zk6TlmskuQevtiMsbS1aBIcHilb8TU7fEL4TpLd+aEmur/PtJh7C+9U2iiAegW+5netsCzu/mAEbQcNOG1KwTotdOi06Y6cNfVIiNC8rEUbHpJ1W1S/smZAslAZdR8hIl3XmwgBE8qiy+sttaUtf9BpQaWBI3gvqxeQ9m66RV165mY7svh4r31lJz1KuGpsE2CobcVn7/2AG/b/4XmZYauZU0ACOnPckNKpVsGN6lRzNc5qZ3ClOjedOYvaFUTQklbXL+IyVLZmv1gn9ICTvhkIqkNwq4G6nWmrFrVByHbMav+A2wsFm7HWHV0RL7vTFV+hMXUAuO9n2FtUZFZ1XSjB77M9j24maCTfNPhWSECF2btYFYFsxn6iNX0DCsx+y6kVjjT2jbFmiA8krmvhxe6f2zIQ9P3tWh/+ruYv4+Ewb/br//tVXl/NPwPi428=);lineShape=1;strokeColor=#007FFF;" vertex="1" parent="1">
          <mxGeometry x="59.99474924825722" y="-813.3513783994134" width="22.737301707800505" height="3.1833878975324863" as="geometry" />
        </mxCell>
        <mxCell id="opCMUjGsSkM5_SPHou3j-116" value="" style="shape=stencil(lVbLbhsxDPyavRKiXpTOafofAeLURl07cNw2+ftysdXaZOsxctvHjKjhkJSm9PC2fXrdTDG8nU/H75vfu+fzdkpfphh3h+3mtDvr05Qep/Twcjxtvp2OPw/Py/vr04ycn34cf80rvC+8SDXPpBg+lg+1U1m+fF3w+93hCs+RWrIEoRBuE2Kh2AyhdEpym5ADSTSEXCmALRWhbCOkQAwiSKRuI3ClCjR0GesNQoCae6PADo8kK166wUfiBvCdshWgSQYZUnyzLneKCZgcVn1rhhIJYMwRrAJuw/dbhGJTpJpThznqjlCooi014mIJQhW5IJRchEYJ2Vx94WmEjLZUSLLXAI1ef68EJkEasneahUqBBLGlrR3e0Zby+D0IjQrWnO3AyNgFbXZXSaM5buFd5QWKDF12HmitI71t5O+yH+jx2loXvYyKqI/GGnihFiHe5V8Ng4KV4ARUnNFOtfqiuyOBrYR7Hjc/v1Q0owEmYz5ftWZEZf1ZgiSqNq2ZYV0XnQ1uBhd4cs7rWYKeQ0i0zoZuNbRKBZSqzmi2xmnz/bXy/xGou1YL+GCLfkLO1QtKiX0lzScdWJ9HK6547W6AD95lnU4R4qNtha4RQYLCuHisDuBp+s+x2RI14JjeU2xJNN0h3E+260sdNXID31zJZegvU7L5EYbHPlO3h4fg4fvZ2+Z9vD5crrYvu/1+uRlf//dXYf20XKPT4x8=);lineShape=1;strokeColor=#007FFF;" vertex="1" parent="1">
          <mxGeometry x="63.42365716053109" y="-807.5087465192674" width="15.583366519591154" height="2.878087935252066" as="geometry" />
        </mxCell>
        <mxCell id="opCMUjGsSkM5_SPHou3j-117" value="" style="shape=stencil(7VhJbhsxEHzNXBskm2STZ8f5hwHLkRDFMmQ5y+/TkwHlYY9ZRoAccvBtTFdxKVYv4sQ3z/u7p90U3PPlfPq6+3G4v+wn/jSFcHjc786Hi35NfDvxzcPpvPtyPr083i9/P93NyPnr2+n7PMPPhVeJ/UwK7tcy4B35+Gfk84I/Hh5X+Eg+9HimJGN8oGDmr5TCGO9JxOJzRniOFh/LGO+oGnyhWhE+FYsPYP+O2PV4aQoM8N7gMzlGeGfwkQTjjf5M0cH9mPsNbWR0Xrb+qQnhcz9/pQrso5MVAw/gtOqG2sELCTBDbtKtxC9g8z4Rp44QuPnvbfcXcv3+2TeDvB1eTLknRKxnqiS9oClQAgSJ9tA5Q02LUOpFFQ0BcOhaqPQerXrJ4NBKMEmoYldUocKWkECWUEI0hNJ0GxG8IQjMWzW3HV8JGsggscwEY+3YhB5uqU9dlcljlaIh+LbmUNZkCR54ab44E82OBBOKt4SCvKTxLnZLKH8pIZtDB2J06Ks3V7LCiuM2Obim5pbhEmZPuaXBEUEMQfDN1SbKKiAc8oZWvWwJgiKoUDSF+VWHkZtq3SyBzCEtca0PgcwhtrmY18QrmGqoF5GQrnkjU8JRLU32tZuQN2QTQgGWFCWIuWqPDV7ImzO4lj7/DaFka9d5BPhbmIopKZEKIGiVc6Zo4TSgddQU3uSgl4Imy/7QWngzIGjfZTpDDlSBSsk6Q0cKiLiPzvmjc/5vO+dr53GNFvirsdjM7mDB3BSndyoNsYXDvshmKweLsV6LCVwPE7TfXKxGMpBS8am/WG53McJnb7RHfeOM742fYDaf99PjBcaV3wRugb6f9TStNZxfs5hpI3Dn/pcPGu/j9eP19eThcDwujy/r/9vXFh1aXmr49jc=);lineShape=1;strokeColor=#007FFF;" vertex="1" parent="1">
          <mxGeometry x="101.68604414692345" y="-828.2387109755387" width="24.366815210137403" height="8.002929564497741" as="geometry" />
        </mxCell>
        <mxCell id="opCMUjGsSkM5_SPHou3j-118" value="" style="shape=stencil(lZdNctswDIVPoy2GBPi7TtN7ZCZO7alrZxy3TW5fqColE7JeJzuZxicCIPAIDfLwtn963Q3s3q6X8/fd78PzdT/Il4H5cNrvLoerPg3yOMjDy/my+3Y5/zw9T79fn0bL8enH+df4hveJ80KcR4rdx78V8vHvwtfJ/ng43dhLJA69PVNx20BMlFMHsL4CALmQkw6QQpW3gcqUeiB6krQNeOfIuY5IngKIulbi2AHZE9dtoCQqvU8aVgE+pUS1T1MJlPw2wJkSd4A66QUAkcIKyCAGZqq1P+olcfcJRzGvtgA++UJBLIB28FpNpQcyVZAmH1t1zkCiCI5agdhHXSO5DF3yJmihFACQKZgdmAQchK8UTAy4XLWHswEcVeASB/LJAgXVhiaRrUsCmpTLCmDyBQDVNoSmVQAgjpJJa4D1PQKm+FITwy2XstlBmxA0tQbNJgZVAZQlrSWzQ21tfh8QKt4CFaV1lsYboKDy1oZcuYSkT8t7HbSgFk3kgk2rA0GPLWo6bl7ZFIFVaXgsM9XswJTRDoWyOQftQRTDZ4FYbQw5UgInnVO7P2ZARQCIsd5ZsdfWFIiBS8U36Z0v3gjFOBVb3iFQBLoUsi0+UeVDQhabuM93Vm2ycB9o/Thfuy0J94+NYi+sGR6as94k6IyzjaDRAHlZTTEBXiPO3v/SRrmNULlPPbfD20ikTTwJ6LDQZpVm7uC0E1vlLuYetGNus9ZijqaKamcEfTsSLN/u98U+IvtPztj/t9eHZaB/ORyP0/fA7f/2A0CXpo8HefwD);lineShape=1;strokeColor=#007FFF;" vertex="1" parent="1">
          <mxGeometry x="121.32904011886865" y="-824.8454976663511" width="5.766836432489511" height="9.583364960432203" as="geometry" />
        </mxCell>
        <mxCell id="opCMUjGsSkM5_SPHou3j-119" value="" style="shape=stencil(lVbLktpADPwaX1UjaZ7nzeY/tmrZQIXAFktefx8Rx5iRcae4GdM9NVJ3yxr06WP78r4ZJHycT8evm5+71/N20E+DyO6w3Zx2Z3sa9HnQp7fjafPldPx+eB1/v79ckJenb8cflxN+jbxWqeULS8Lv8U0m5r8vPo/4/e5wg6+BuMdzIanrhBwpto6gQqmtE1IhDh0hKXEEBKXYEwomBAo9viUqso5n0tLjI6mCC5H2FTelAFrETLnvaRMoAjdKrgKmBAhSp/NuCJrWCZopFU/IgBAjBfY1/GvbfUKjHH2XIpJZqFYvQwFXMl+oI5i3EYG981qBbY2ZxHWpUgZKa1tYw6QERSuTBE9oID0i03nXfIar3++bycwsizvldUKhyL7ogsxHSRZdhfFk11STDZQcKLsWmS+QCNO/t8YDTjXNFulUcB/OVBzhGvD7DUokj6VTqeoi/0DjyFSCryGAGmJdxNlmGMqOLLJjvgJXsnQmV0OC2XmYYE3qSyhCDehsKvTnW01ovlgQe7yFFVVsQch9+C16BQTBVHMDzFqAZ7DTQKCxTWTtK+ApqmsKONsFKuD8HKbNYMYLuH8uU/9mPJpcJfrPoOHBd7ny9IGZ8Qr6X8u0Fsz4BgadZao5gafY3cdn7yCBhra5rL2jbZShQRQWm06khhz94DL4f7w9zJvn226/HxfX2//9pmqvxi1Xn/8A);lineShape=1;strokeColor=#007FFF;" vertex="1" parent="1">
          <mxGeometry x="259.3004667157222" y="-848.2988185498599" width="1.5866034963269628" height="9.753500940240382" as="geometry" />
        </mxCell>
        <mxCell id="opCMUjGsSkM5_SPHou3j-120" value="" style="shape=stencil(lVjZbhsxDPwavxKSKOp4TtP/CBCnMZrGgZNef1+qhmyT3h0jbz5mdqnh8Njd8N3788PbdpPC+8dh/337e/f48bzhL5uUdq/P28PuQz9t+H7Dd0/7w/bbYf/z9fH4/e1hIMenH/tf4wp/jrxcifNgpfD3+EtslOv/X74eCS+710uCUA6WECkIICSKliAkAM+VcjR4Ju4Ar7fvDt/yOl7/FhtPpRTW8bEQuwMLxbJO6FSawadGAg6ggorBq8ScED7YeIoeGMTTqNl4WiAGCYiVKhtCT/OWaxnIxRIqBRBR7iTVEjIlQCiNqvVEUxVAkvXv6pIcKQJRu3hXSKbOgKC2tirxSehFQu3EVqWkd4jg0BqxVSnmKfSyrGH67MLZICLu1G1EhToofcVLcngBSVA8R4dHSRt4Wwkyb7iGL+zwAaRM9XEpy/MCa/jaHZ6R/nE2tjM+gfNqZ+Tkrw/qLPM83hkvwECKL8HhG2rtPNN/1pORPvm6s6POO65vO1HBemr83m8N+GHoY/1cKQL/D/3F4TPSX/PbPB7XY0sOjxrv8KePJ6DJp/4Xp0/BePb1noB/rutXbl1fPB7pP/qP3T0yVayPFIfPyJ+Rkq9fNGXUD6F+Dt+ijwf585P4kmf7Pg0APIgbz+udRgzD3aZrQVkH6RCDu0EIfvsQoQ4Yrfv1pvK0+fKc1CqzXa7VuVEt70PBz3pdP5CuuqE164uLYy0fm6fxT7fguSQtp5qCTYTuXB2EdKXq2OkgPrtJoKWDrErVVpq2FkEHjp6gEiRQ+xoR+9pESzKHuTpMPM6A1n5oDo96Vy6zlZzjCQA/TGQVjXoiMCwlzeXtRNC9+QbBKqRPWgl4SAnt6tEMFkLy/TH2OaHXCDF7AppoEv1GoQTUslVWN/LjqemvEdzMGcZATfVqCbzlpLYQEnp+UgJ3T4B7Y6V+pRJc7KpfHDXT6NHg80/ttwn64fyS4Gn38nJ8x3D5v3+poD8dX0jw/T8=);lineShape=1;strokeColor=#007FFF;" vertex="1" parent="1">
          <mxGeometry x="253.20390710942115" y="-854.4646644766585" width="14.382773432020228" height="21.401057467714494" as="geometry" />
        </mxCell>
      </root>
    </mxGraphModel>
  </diagram>
</mxfile>
